<svg xmlns="http://www.w3.org/2000/svg" width="13" height="13" viewBox="0 0 13 13">
  <g fill="none" fill-opacity=".8" fill-rule="evenodd">
    <path fill="#9AA7B0" d="M1 9.48533897C1 9.96835384 1.24133333 10.4123675 1.62266667 10.6313743L2.03866667 10.8668815C2.36266667 11.0513872 2.708 11.0318866 3 10.881882L3 8.75931661 3 7.24126986 3 5.11870449C2.708 4.96719982 2.36266667 4.94919927 2.03866667 5.13370495L1.62266667 5.3692122C1.24133333 5.5867189 1 6.03073257 1 6.5152475L1 7.24126986 1 8.75931661 1 9.48533897zM10 3.0002L10 12.3752 10 13.0002 8.5 13.0002 6.137 13.0002C4.5 13.0002 4 11.6552 4 9.9952L4 6.00395C4 4.3452 4.5 3.0002 6.137 3.0002L10 3.0002z"/>
    <polygon fill="#9AA7B0" points="11 12 15 12 15 10 11 10"/>
    <polygon fill="#9AA7B0" points="11 6 15 6 15 4 11 4"/>
  </g>
</svg>
