<svg xmlns="http://www.w3.org/2000/svg" width="40" height="40" viewBox="0 0 40 40">
  <path fill="#CBCBCB" fill-rule="evenodd" d="M30.417,16.0447 C30.629,15.5657 31.189,15.3487 31.669,15.5607 C31.669,15.5607 31.67,15.5607 31.67,15.5617 C32.15,15.7737 32.366,16.3367 32.153,16.8157 C31.942,17.2967 31.382,17.5137 30.902,17.3017 C30.901,17.3017 30.9,17.3017 30.9,17.3007 C30.421,17.0877 30.204,16.5257 30.417,16.0447 Z M19.294,7.0937 C19.673,6.7307 20.274,6.7447 20.638,7.1247 C21,7.5057 20.986,8.1077 20.606,8.4707 C20.227,8.8337 19.626,8.8187 19.263,8.4397 C18.9,8.0587 18.914,7.4567 19.294,7.0937 Z M31.699,19.8987 C31.699,20.1907 31.688,20.4797 31.667,20.7667 L30.467,20.7667 C30.347,20.7667 30.299,20.8457 30.299,20.9637 L30.299,21.5147 C30.299,22.8127 29.566,23.0947 28.926,23.1657 C28.315,23.2347 27.639,22.9107 27.555,22.5367 C27.194,20.5117 26.595,20.0787 25.646,19.3307 C26.823,18.5837 28.047,17.4817 28.047,16.0077 C28.047,14.4147 26.955,13.4117 26.211,12.9197 C25.167,12.2317 24.011,12.0937 23.699,12.0937 L11.285,12.0937 C12.968,10.2147 15.25,8.8837 17.83,8.3987 L19.293,9.9347 C19.623,10.2807 20.171,10.2937 20.517,9.9647 L20.519,9.9627 L22.155,8.3977 C25.586,9.0357 28.491,11.1707 30.165,14.1017 L29.044,16.6327 C28.851,17.0707 29.048,17.5827 29.484,17.7767 L31.643,18.7357 C31.68,19.1187 31.699,19.5057 31.699,19.8987 Z M17.351,17.9157 L17.351,15.7127 L21.299,15.7127 C21.503,15.7127 22.738,15.9477 22.738,16.8727 C22.738,17.6407 21.791,17.9147 21.011,17.9147 L17.351,17.9147 L17.351,17.9157 Z M8.368,18.6417 L10.415,17.7317 C10.853,17.5367 11.05,17.0247 10.855,16.5867 L10.434,15.6337 L12.092,15.6337 L12.092,23.1067 L8.747,23.1067 C8.45,22.0637 8.3,20.9827 8.301,19.8987 C8.301,19.4737 8.324,19.0537 8.368,18.6417 Z M9.482,15.9987 C9.695,16.4797 9.479,17.0417 8.999,17.2547 C8.52,17.4677 7.958,17.2507 7.745,16.7707 C7.532,16.2897 7.749,15.7277 8.229,15.5147 C8.708,15.3017 9.27,15.5187 9.482,15.9977 L9.482,15.9987 Z M13.109,30.7067 C12.597,30.8167 12.092,30.4897 11.981,29.9767 C11.871,29.4607 12.197,28.9557 12.711,28.8457 C13.224,28.7347 13.729,29.0627 13.839,29.5757 C13.949,30.0897 13.622,30.5967 13.109,30.7067 Z M26.333,27.6657 C25.865,27.5657 25.405,27.8627 25.305,28.3307 L25.305,28.3317 L24.827,30.5577 C23.355,31.2257 21.722,31.5977 20,31.5977 C18.239,31.5977 16.569,31.2077 15.071,30.5107 L14.595,28.2847 C14.494,27.8167 14.034,27.5187 13.566,27.6187 L11.601,28.0407 C11.235,27.6647 10.896,27.2657 10.585,26.8437 L20.146,26.8437 C20.254,26.8437 20.326,26.8237 20.326,26.7257 L20.326,23.3437 C20.326,23.2447 20.254,23.2257 20.146,23.2257 L17.35,23.2257 L17.35,21.0817 L20.374,21.0817 C20.65,21.0817 21.851,21.1597 22.234,22.6937 C22.354,23.1657 22.618,24.7007 22.799,25.1917 C22.979,25.7427 23.71,26.8437 24.49,26.8437 L29.255,26.8437 C29.309,26.8437 29.366,26.8377 29.428,26.8257 C29.097,27.2747 28.734,27.6997 28.344,28.0977 L26.334,27.6657 L26.333,27.6657 Z M26.79,30.7527 C26.277,30.6427 25.95,30.1367 26.061,29.6217 C26.171,29.1077 26.676,28.7807 27.188,28.8917 C27.701,29.0017 28.028,29.5077 27.918,30.0217 C27.809,30.5347 27.303,30.8627 26.79,30.7527 Z M35.781,19.6077 L34.438,18.7767 C34.427,18.6467 34.414,18.5157 34.399,18.3857 L35.555,17.3087 C35.672,17.1997 35.724,17.0367 35.692,16.8807 C35.661,16.7237 35.551,16.5937 35.401,16.5367 L33.925,15.9847 C33.888,15.8577 33.85,15.7317 33.81,15.6047 L34.73,14.3257 C34.88,14.1187 34.833,13.8297 34.626,13.6807 C34.567,13.6387 34.5,13.6097 34.43,13.5997 L32.873,13.3457 C32.813,13.2287 32.75,13.1107 32.687,12.9957 L33.34,11.5617 C33.407,11.4157 33.394,11.2447 33.304,11.1117 C33.216,10.9787 33.063,10.9007 32.903,10.9067 L31.324,10.9617 C31.242,10.8597 31.159,10.7587 31.074,10.6587 L31.438,9.1207 C31.475,8.9647 31.428,8.8007 31.314,8.6877 C31.201,8.5737 31.037,8.5277 30.881,8.5647 L29.343,8.9267 C29.243,8.8427 29.143,8.7597 29.04,8.6777 L29.095,7.0987 C29.102,6.9387 29.023,6.7857 28.89,6.6967 C28.757,6.6077 28.587,6.5947 28.441,6.6607 L27.007,7.3157 C26.891,7.2517 26.774,7.1897 26.657,7.1277 L26.403,5.5707 C26.362,5.3187 26.124,5.1487 25.872,5.1897 C25.802,5.2007 25.734,5.2297 25.677,5.2707 L24.397,6.1907 C24.271,6.1507 24.145,6.1127 24.017,6.0757 L23.465,4.5997 C23.409,4.4487 23.279,4.3387 23.122,4.3077 C22.965,4.2767 22.803,4.3287 22.694,4.4457 L21.617,5.6017 C21.486,5.5867 21.356,5.5737 21.226,5.5637 L20.395,4.2197 C20.26,4.0027 19.975,3.9357 19.758,4.0697 C19.697,4.1067 19.646,4.1587 19.608,4.2197 L18.776,5.5637 C18.646,5.5737 18.515,5.5867 18.385,5.6017 L17.308,4.4457 C17.134,4.2597 16.842,4.2487 16.655,4.4227 C16.603,4.4717 16.562,4.5317 16.536,4.5997 L15.984,6.0757 C15.856,6.1127 15.73,6.1507 15.604,6.1907 L14.325,5.2707 C14.195,5.1767 14.025,5.1567 13.878,5.2187 C13.73,5.2797 13.624,5.4137 13.598,5.5707 L13.345,7.1277 C13.227,7.1897 13.11,7.2517 12.995,7.3157 L11.56,6.6607 C11.414,6.5947 11.244,6.6077 11.111,6.6967 C10.978,6.7857 10.9,6.9387 10.906,7.0987 L10.961,8.6777 C10.858,8.7597 10.758,8.8427 10.658,8.9267 L9.119,8.5647 C8.964,8.5277 8.8,8.5737 8.687,8.6877 C8.573,8.8007 8.526,8.9647 8.563,9.1207 L8.926,10.6587 C8.842,10.7587 8.758,10.8597 8.677,10.9617 L7.097,10.9067 C6.938,10.9017 6.786,10.9797 6.696,11.1117 C6.607,11.2447 6.594,11.4147 6.66,11.5617 L7.314,12.9957 C7.251,13.1107 7.188,13.2287 7.127,13.3457 L5.571,13.5997 C5.318,13.6407 5.147,13.8777 5.188,14.1297 C5.2,14.2007 5.229,14.2677 5.27,14.3257 L6.19,15.6047 C6.15,15.7307 6.111,15.8577 6.075,15.9847 L4.599,16.5367 C4.359,16.6267 4.238,16.8947 4.328,17.1337 C4.354,17.1997 4.394,17.2597 4.446,17.3087 L5.601,18.3857 C5.586,18.5157 5.573,18.6467 5.563,18.7767 L4.219,19.6077 C4.083,19.6917 4,19.8417 4,20.0017 C4,20.1617 4.083,20.3107 4.219,20.3947 L5.563,21.2267 C5.573,21.3567 5.586,21.4867 5.601,21.6167 L4.445,22.6937 C4.259,22.8677 4.249,23.1607 4.423,23.3477 C4.472,23.3997 4.532,23.4407 4.599,23.4657 L6.075,24.0177 C6.111,24.1457 6.15,24.2727 6.19,24.3987 L5.27,25.6777 C5.121,25.8847 5.167,26.1727 5.374,26.3217 C5.433,26.3637 5.5,26.3927 5.571,26.4037 L7.127,26.6567 C7.188,26.7747 7.25,26.8917 7.314,27.0067 L6.66,28.4417 C6.594,28.5877 6.607,28.7577 6.696,28.8907 C6.785,29.0237 6.938,29.1017 7.097,29.0957 L8.676,29.0407 C8.758,29.1437 8.841,29.2437 8.926,29.3437 L8.563,30.8827 C8.526,31.0377 8.573,31.2017 8.687,31.3157 C8.8,31.4287 8.964,31.4757 9.119,31.4377 L10.658,31.0757 C10.758,31.1607 10.859,31.2427 10.961,31.3237 L10.906,32.9037 C10.896,33.1587 11.096,33.3727 11.351,33.3827 C11.423,33.3847 11.494,33.3707 11.56,33.3407 L12.995,32.6867 C13.11,32.7507 13.227,32.8137 13.345,32.8737 L13.598,34.4297 C13.624,34.5877 13.73,34.7217 13.878,34.7827 C14.025,34.8447 14.194,34.8247 14.325,34.7317 L15.604,33.8107 C15.729,33.8507 15.856,33.8897 15.984,33.9257 L16.536,35.4007 C16.592,35.5517 16.722,35.6617 16.879,35.6927 C17.036,35.7247 17.198,35.6717 17.308,35.5547 L18.385,34.3997 C18.515,34.4147 18.646,34.4277 18.776,34.4397 L19.607,35.7817 C19.692,35.9187 19.841,36.0007 20.001,36.0007 C20.161,36.0007 20.31,35.9187 20.394,35.7817 L21.226,34.4397 C21.356,34.4277 21.487,34.4147 21.617,34.3997 L22.693,35.5547 C22.803,35.6717 22.965,35.7247 23.122,35.6927 C23.278,35.6617 23.408,35.5517 23.465,35.4007 L24.017,33.9257 C24.145,33.8897 24.271,33.8507 24.397,33.8107 L25.677,34.7317 C25.884,34.8807 26.173,34.8327 26.322,34.6257 C26.363,34.5667 26.392,34.5007 26.403,34.4297 L26.656,32.8737 C26.774,32.8137 26.89,32.7497 27.006,32.6867 L28.441,33.3407 C28.673,33.4467 28.946,33.3457 29.053,33.1137 C29.083,33.0477 29.098,32.9767 29.095,32.9037 L29.04,31.3237 C29.143,31.2427 29.243,31.1597 29.343,31.0757 L30.881,31.4377 C31.037,31.4747 31.201,31.4287 31.313,31.3157 C31.428,31.2017 31.474,31.0377 31.438,30.8827 L31.075,29.3437 C31.159,29.2437 31.242,29.1437 31.323,29.0407 L32.903,29.0957 C33.063,29.1017 33.215,29.0237 33.304,28.8907 C33.393,28.7577 33.406,28.5877 33.34,28.4417 L32.686,27.0067 C32.75,26.8917 32.813,26.7747 32.873,26.6567 L34.429,26.4037 C34.587,26.3787 34.721,26.2727 34.782,26.1237 C34.843,25.9767 34.823,25.8077 34.73,25.6777 L33.81,24.3987 C33.85,24.2727 33.888,24.1457 33.925,24.0177 L35.4,23.4657 C35.551,23.4097 35.661,23.2797 35.692,23.1227 C35.724,22.9657 35.671,22.8037 35.554,22.6937 L34.399,21.6167 C34.413,21.4867 34.427,21.3567 34.438,21.2267 L35.781,20.3947 C35.917,20.3107 36,20.1617 36,20.0017 C36,19.8417 35.918,19.6917 35.781,19.6077 Z"/>
</svg>
