<svg xmlns="http://www.w3.org/2000/svg" xmlns:xlink="http://www.w3.org/1999/xlink" width="40" height="40" viewBox="0 0 40 40">
  <defs>
    <polygon id="rust-a" points="0 0 32 0 32 32.001 0 32.001"/>
  </defs>
  <g fill="none" fill-rule="evenodd" transform="translate(4 3)">
    <mask id="rust-b" fill="#fff">
      <use xlink:href="#rust-a"/>
    </mask>
    <path fill="#000" d="M26.417,12.0448 C26.629,11.5648 27.189,11.3478 27.669,11.5598 L27.67,11.5608 C28.15,11.7738 28.366,12.3358 28.153,12.8158 C27.942,13.2958 27.382,13.5128 26.902,13.3018 L26.9,13.3008 C26.421,13.0878 26.204,12.5258 26.417,12.0448 Z M15.294,3.0928 C15.673,2.7308 16.274,2.7448 16.638,3.1248 C17,3.5048 16.986,4.1068 16.606,4.4698 C16.227,4.8328 15.626,4.8188 15.263,4.4388 C14.9,4.0578 14.914,3.4568 15.294,3.0928 Z M27.699,15.8978 C27.699,16.1908 27.688,16.4798 27.667,16.7668 L26.467,16.7668 C26.347,16.7668 26.299,16.8448 26.299,16.9628 L26.299,17.5138 C26.299,18.8118 25.566,19.0938 24.926,19.1658 C24.315,19.2348 23.639,18.9108 23.555,18.5368 C23.194,16.5108 22.595,16.0778 21.646,15.3308 C22.823,14.5838 24.047,13.4818 24.047,12.0068 C24.047,10.4148 22.955,9.4108 22.211,8.9198 C21.167,8.2318 20.011,8.0928 19.699,8.0928 L7.285,8.0928 C8.968,6.2138 11.25,4.8838 13.83,4.3988 L15.293,5.9348 C15.623,6.2798 16.171,6.2938 16.517,5.9638 C16.518,5.9628 16.518,5.9628 16.519,5.9618 L18.155,4.3968 C21.586,5.0348 24.491,7.1708 26.165,10.1008 L25.044,12.6318 C24.851,13.0698 25.048,13.5828 25.484,13.7768 L27.643,14.7348 C27.68,15.1188 27.699,15.5048 27.699,15.8978 Z M13.351,13.9148 L13.351,11.7118 L17.299,11.7118 C17.503,11.7118 18.738,11.9478 18.738,12.8728 C18.738,13.6398 17.791,13.9148 17.011,13.9148 L13.351,13.9148 Z M4.368,14.6408 L6.415,13.7318 C6.853,13.5368 7.05,13.0238 6.855,12.5868 L6.434,11.6328 L8.092,11.6328 L8.092,19.1068 L4.747,19.1068 C4.45,18.0628 4.3,16.9828 4.301,15.8978 C4.301,15.4728 4.324,15.0528 4.368,14.6408 Z M5.482,11.9988 C5.695,12.4788 5.479,13.0418 4.999,13.2538 C4.52,13.4668 3.958,13.2508 3.745,12.7698 C3.532,12.2888 3.749,11.7278 4.229,11.5138 C4.708,11.3018 5.27,11.5178 5.482,11.9978 L5.482,11.9988 Z M9.109,26.7068 C8.597,26.8168 8.092,26.4898 7.981,25.9758 C7.871,25.4608 8.197,24.9558 8.711,24.8448 C9.224,24.7348 9.729,25.0618 9.839,25.5758 C9.949,26.0888 9.622,26.5958 9.109,26.7068 Z M22.333,23.6658 C21.865,23.5648 21.405,23.8628 21.305,24.3308 L21.305,24.3318 L20.827,26.5568 C19.355,27.2248 17.722,27.5968 16,27.5968 C14.239,27.5968 12.569,27.2078 11.071,26.5098 L10.595,24.2848 C10.494,23.8168 10.034,23.5178 9.566,23.6188 L7.601,24.0408 C7.235,23.6648 6.896,23.2648 6.585,22.8428 L16.146,22.8428 C16.254,22.8428 16.326,22.8238 16.326,22.7248 L16.326,19.3428 C16.326,19.2448 16.254,19.2248 16.146,19.2248 L13.35,19.2248 L13.35,17.0818 L16.374,17.0818 C16.65,17.0818 17.851,17.1598 18.234,18.6938 C18.354,19.1658 18.618,20.7008 18.799,21.1918 C18.979,21.7428 19.71,22.8428 20.49,22.8428 L25.255,22.8428 C25.309,22.8428 25.366,22.8368 25.428,22.8258 C25.097,23.2748 24.734,23.6998 24.344,24.0968 L22.334,23.6658 L22.333,23.6658 Z M22.79,26.7528 C22.277,26.6418 21.95,26.1358 22.061,25.6218 C22.171,25.1078 22.676,24.7808 23.188,24.8908 C23.701,25.0018 24.028,25.5068 23.918,26.0208 C23.809,26.5348 23.303,26.8628 22.79,26.7528 Z M31.781,15.6078 L30.438,14.7758 C30.427,14.6458 30.414,14.5158 30.399,14.3848 L31.555,13.3078 C31.672,13.1988 31.724,13.0368 31.692,12.8798 C31.661,12.7228 31.551,12.5928 31.401,12.5368 L29.925,11.9848 C29.888,11.8578 29.85,11.7308 29.81,11.6038 L30.73,10.3258 C30.88,10.1188 30.833,9.8298 30.626,9.6798 C30.567,9.6378 30.5,9.6098 30.43,9.5988 L28.873,9.3458 C28.813,9.2278 28.75,9.1108 28.687,8.9958 L29.34,7.5608 C29.407,7.4148 29.394,7.2448 29.304,7.1118 C29.216,6.9788 29.063,6.9008 28.903,6.9068 L27.324,6.9618 C27.242,6.8588 27.159,6.7588 27.074,6.6588 L27.438,5.1208 C27.475,4.9638 27.428,4.8008 27.314,4.6878 C27.201,4.5738 27.037,4.5268 26.881,4.5638 L25.343,4.9268 C25.243,4.8418 25.143,4.7588 25.04,4.6768 L25.095,3.0978 C25.102,2.9378 25.023,2.7858 24.89,2.6968 C24.757,2.6078 24.587,2.5938 24.441,2.6608 L23.007,3.3158 C22.891,3.2518 22.774,3.1888 22.657,3.1278 L22.403,1.5708 C22.362,1.3188 22.124,1.1478 21.872,1.1898 C21.802,1.2008 21.734,1.2288 21.677,1.2708 L20.397,2.1908 C20.271,2.1508 20.145,2.1118 20.017,2.0758 L19.465,0.5998 C19.409,0.4488 19.279,0.3388 19.122,0.3078 C18.965,0.2768 18.803,0.3288 18.694,0.4458 L17.617,1.6008 C17.486,1.5868 17.356,1.5738 17.226,1.5628 L16.395,0.2188 C16.26,0.0018 15.975,-0.0652 15.758,0.0688 C15.697,0.1068 15.646,0.1578 15.608,0.2188 L14.776,1.5628 C14.646,1.5738 14.515,1.5868 14.385,1.6008 L13.308,0.4458 C13.134,0.2588 12.842,0.2488 12.655,0.4218 C12.603,0.4708 12.562,0.5318 12.536,0.5998 L11.984,2.0758 C11.856,2.1118 11.73,2.1508 11.604,2.1908 L10.325,1.2708 C10.195,1.1758 10.025,1.1568 9.878,1.2178 C9.73,1.2798 9.624,1.4128 9.598,1.5708 L9.345,3.1278 C9.227,3.1888 9.11,3.2508 8.995,3.3158 L7.56,2.6608 C7.414,2.5938 7.244,2.6078 7.111,2.6968 C6.978,2.7858 6.9,2.9378 6.906,3.0978 L6.961,4.6768 C6.858,4.7588 6.758,4.8418 6.658,4.9268 L5.119,4.5638 C4.964,4.5278 4.8,4.5738 4.687,4.6878 C4.573,4.8008 4.526,4.9638 4.563,5.1208 L4.926,6.6588 C4.842,6.7588 4.758,6.8588 4.677,6.9618 L3.097,6.9068 C2.938,6.9018 2.786,6.9788 2.696,7.1118 C2.607,7.2448 2.594,7.4148 2.66,7.5608 L3.314,8.9958 C3.251,9.1108 3.188,9.2278 3.127,9.3458 L1.571,9.5988 C1.318,9.6398 1.147,9.8778 1.188,10.1288 C1.2,10.1998 1.229,10.2678 1.27,10.3258 L2.19,11.6038 C2.15,11.7308 2.111,11.8578 2.075,11.9848 L0.599,12.5368 C0.359,12.6268 0.238,12.8938 0.328,13.1328 C0.354,13.1998 0.394,13.2598 0.446,13.3078 L1.601,14.3848 C1.586,14.5148 1.573,14.6458 1.563,14.7758 L0.219,15.6078 C0.083,15.6918 0,15.8408 0,16.0008 C0,16.1618 0.083,16.3108 0.219,16.3938 L1.563,17.2258 C1.573,17.3568 1.586,17.4868 1.601,17.6168 L0.445,18.6938 C0.259,18.8678 0.249,19.1608 0.423,19.3468 C0.472,19.3998 0.532,19.4398 0.599,19.4648 L2.075,20.0168 C2.111,20.1448 2.15,20.2718 2.19,20.3978 L1.27,21.6768 C1.121,21.8838 1.167,22.1718 1.374,22.3218 C1.433,22.3638 1.5,22.3918 1.571,22.4038 L3.127,22.6568 C3.188,22.7748 3.25,22.8908 3.314,23.0058 L2.66,24.4418 C2.594,24.5868 2.607,24.7568 2.696,24.8898 C2.785,25.0238 2.938,25.1008 3.097,25.0948 L4.676,25.0408 C4.758,25.1428 4.841,25.2438 4.926,25.3428 L4.563,26.8818 C4.526,27.0378 4.573,27.2018 4.687,27.3148 C4.8,27.4278 4.964,27.4748 5.119,27.4368 L6.658,27.0758 C6.758,27.1608 6.859,27.2428 6.961,27.3238 L6.906,28.9038 C6.896,29.1588 7.096,29.3728 7.351,29.3818 C7.423,29.3838 7.494,29.3708 7.56,29.3398 L8.995,28.6858 C9.11,28.7508 9.227,28.8128 9.345,28.8738 L9.598,30.4288 C9.624,30.5868 9.73,30.7208 9.878,30.7828 C10.025,30.8438 10.194,30.8248 10.325,30.7308 L11.604,29.8098 C11.729,29.8498 11.856,29.8888 11.984,29.9248 L12.536,31.4008 C12.592,31.5508 12.722,31.6618 12.879,31.6928 C13.036,31.7238 13.198,31.6708 13.308,31.5538 L14.385,30.3998 C14.515,30.4148 14.646,30.4268 14.776,30.4388 L15.607,31.7818 C15.692,31.9188 15.841,32.0008 16.001,32.0008 C16.161,32.0008 16.31,31.9188 16.394,31.7818 L17.226,30.4388 C17.356,30.4268 17.487,30.4148 17.617,30.3998 L18.693,31.5538 C18.803,31.6708 18.965,31.7238 19.122,31.6928 C19.278,31.6618 19.408,31.5508 19.465,31.4008 L20.017,29.9248 C20.145,29.8888 20.271,29.8498 20.397,29.8098 L21.677,30.7308 C21.884,30.8798 22.173,30.8328 22.322,30.6258 C22.363,30.5668 22.392,30.5008 22.403,30.4288 L22.656,28.8738 C22.774,28.8128 22.89,28.7498 23.006,28.6858 L24.441,29.3398 C24.673,29.4468 24.946,29.3448 25.053,29.1138 C25.083,29.0468 25.098,28.9758 25.095,28.9038 L25.04,27.3238 C25.143,27.2428 25.243,27.1598 25.343,27.0758 L26.881,27.4368 C27.037,27.4738 27.201,27.4278 27.313,27.3148 C27.428,27.2018 27.474,27.0378 27.438,26.8818 L27.075,25.3428 C27.159,25.2438 27.242,25.1428 27.323,25.0408 L28.903,25.0948 C29.063,25.1008 29.215,25.0238 29.304,24.8898 C29.393,24.7568 29.406,24.5868 29.34,24.4418 L28.686,23.0058 C28.75,22.8908 28.813,22.7748 28.873,22.6568 L30.429,22.4038 C30.587,22.3778 30.721,22.2718 30.782,22.1238 C30.843,21.9758 30.823,21.8068 30.73,21.6768 L29.81,20.3978 C29.85,20.2718 29.888,20.1448 29.925,20.0168 L31.4,19.4648 C31.551,19.4098 31.661,19.2798 31.692,19.1228 C31.724,18.9648 31.671,18.8028 31.554,18.6938 L30.399,17.6168 C30.413,17.4868 30.427,17.3558 30.438,17.2258 L31.781,16.3938 C31.917,16.3098 32,16.1608 32,16.0008 C32,15.8408 31.918,15.6918 31.781,15.6078 Z" mask="url(#rust-b)"/>
  </g>
</svg>
