<svg width="16" height="16" viewBox="0 0 16 16" fill="none" xmlns="http://www.w3.org/2000/svg">
<rect x="4" y="1" width="8" height="14" fill="#F4AF3D" fill-opacity="0.6"/>
<path fill-rule="evenodd" clip-rule="evenodd" d="M9.9998 9.28256C9.5298 9.74156 9.0278 9.97803 8.0998 10C7.0608 10.022 5.9998 9.27943 5.9998 8.00043C5.9998 6.71243 6.9708 6.00003 8.0998 6.00003C9.3723 6.00003 9.8998 6.55429 9.8998 6.55429L10.516 5.83676C9.8292 5.2702 9.28807 5.00043 8.098 5.00043C6.34 5.00043 5 6.35843 5 8.00043C5 9.68243 6.364 11.0004 8.002 11.0004C9.29265 11.0004 10.023 10.5934 10.616 9.98143L9.9998 9.28256Z" fill="#231F20" fill-opacity="0.7"/>
<path d="M3 1.17072C1.83481 1.58255 1 2.69379 1 4.00001V12C1 13.3062 1.83481 14.4175 3 14.8293V1.17072Z" fill="#9AA7B0" fill-opacity="0.6"/>
<path d="M13 1.17072V14.8293C14.1652 14.4175 15 13.3062 15 12V4.00001C15 2.69379 14.1652 1.58255 13 1.17072Z" fill="#9AA7B0" fill-opacity="0.6"/>
</svg>
