<svg width="16" height="16" viewBox="0 0 16 16" fill="none" xmlns="http://www.w3.org/2000/svg">
<rect x="4" y="1" width="8" height="14" fill="#F98B9E" fill-opacity="0.6"/>
<path fill-rule="evenodd" clip-rule="evenodd" d="M12 8.00001C11.999 7.15001 11.4985 6.00031 9.88163 6.00031C8.69714 6.00031 8 6.60419 8 6.60419C8 6.60419 7.5 6.00031 6.4 6.00031C5.69791 6.00031 5 6.39924 5 6.39924V6.00031H4V11.0003H5V8.00001C5 7.64001 5.25 7.00001 6.2 7.00001C7.15 7.00001 7.499 7.53701 7.5 8.00001V11.0003H8.5V8.00001C8.5 7.64001 8.8 7.00001 9.75 7.00001C10.7 7.00001 11.0041 7.54001 11.0047 8.00001V11.0003H11.9972L12 8.00001Z" fill="#231F20" fill-opacity="0.7"/>
<path fill-rule="evenodd" clip-rule="evenodd" d="M3 1.17072C1.83481 1.58255 1 2.69379 1 4.00001V12C1 13.3062 1.83481 14.4175 3 14.8293V1.17072ZM13 1.17072V14.8293C14.1652 14.4175 15 13.3062 15 12V4.00001C15 2.69379 14.1652 1.58255 13 1.17072Z" fill="#9AA7B0" fill-opacity="0.6"/>
</svg>
