<svg width="16" height="16" viewBox="0 0 16 16" fill="none" xmlns="http://www.w3.org/2000/svg">
<rect x="1" y="1" width="14" height="14" rx="3" fill="#F4AF3D" fill-opacity="0.6"/>
<path fill-rule="evenodd" clip-rule="evenodd" d="M10 9.28253C9.53004 9.74153 9.02804 9.978 8.10004 10C7.06104 10.022 6.00004 9.2794 6.00004 8.0004C6.00004 6.7124 6.97104 6 8.10004 6C9.37254 6 9.90004 6.55426 9.90004 6.55426L10.5162 5.83673C9.82944 5.27018 9.28831 5.0004 8.09824 5.0004C6.34024 5.0004 5.00024 6.3584 5.00024 8.0004C5.00024 9.6824 6.36424 11.0004 8.00224 11.0004C9.29289 11.0004 10.0232 10.5934 10.6162 9.9814L10 9.28253Z" fill="#231F20" fill-opacity="0.7"/>
</svg>
