<svg width="16" height="16" viewBox="0 0 16 16" fill="none" xmlns="http://www.w3.org/2000/svg">
<rect x="1" y="1" width="14" height="14" rx="3" fill="#F98B9E" fill-opacity="0.6"/>
<path fill-rule="evenodd" clip-rule="evenodd" d="M7 12H8V8H9.5V7H8C8 7 7.99532 6.04254 7.99466 6C7.98705 5.50341 8.1329 5.07282 8.43221 4.97217C8.91964 4.80825 9.56885 5.02115 9.68985 5.06415L9.9852 4.22604C9.90948 4.19883 9.4559 4 8.8114 4C8.1669 4 7.81677 4.0614 7.48189 4.38879C7.16513 4.69847 7.01614 5.22015 7.00125 6C7.00039 6.0446 6.99998 6.95274 7 7C7.00001 7.0273 6 7 6 7V7.972H7V12Z" fill="#231F20" fill-opacity="0.7"/>
</svg>
