<svg width="16" height="16" version="1.1" viewBox="0 0 16 16" xmlns="http://www.w3.org/2000/svg">
 <g>
  <circle cx="8" cy="8" r="7" fill="#f98b9d" opacity=".6"/>
  <g transform="matrix(1.09637 0 0 .916809 .261188 .0155648)" fill="#593e43" opacity=".9" aria-label="f">
   <path d="m5.508 7.64062h0.797816v-0.409136c0-0.456869 0.047733-0.797816 0.143198-1.02284 0.0988746-0.225025 0.277872-0.407431 0.536991-0.54722 0.262529-0.143198 0.593248-0.214796 0.992155-0.214796 0.409136 0-0.243844-0.025531 0.628088 0.00539l0.00289 1.07047-0.297556 0.00328c-0.229574 0.00253 0.03586-0.00426-0.483343 0.015192 0 0-0.556627-0.036194-0.556627 0.716099v0.383565h1.31578v1.13024h-1.31578v4.30104h-0.965797v-4.30104h-0.797816z" stroke-width="1.30924"/>
  </g>
 </g>
</svg>
