<svg width="16" height="16" version="1.1" viewBox="0 0 16 16" xmlns="http://www.w3.org/2000/svg">
 <g>
  <circle cx="8" cy="8" r="7" fill="#f3ae3d" opacity=".6"/>
  <g transform="scale(.971878 1.02894)" fill="#4f3e20" opacity=".9" aria-label="g">
   <path d="m9.41119 9.43009q-0.148124 0.0846426-0.454954 0.179866-0.306829 0.0952228-0.708881 0.0952228-0.433793 0-0.814684-0.137544-0.370311-0.148124-0.65598-0.433793-0.275088-0.296249-0.444373-0.740622-0.158705-0.454954-0.158705-1.06861 0-0.539596 0.148124-0.98397 0.158705-0.454954 0.444373-0.782944 0.296249-0.32799 0.719462-0.507855 0.423213-0.190446 0.962809-0.190446 0.634819 0 1.07919 0.095223 0.454954 0.084643 0.761783 0.169285v4.38025q0 1.14267-0.581918 1.65053-0.571337 0.507856-1.73517 0.507856-0.476114 0-0.867586-0.07406-0.380892-0.07406-0.67714-0.179866l0.158705-0.772363q0.275088 0.116383 0.624239 0.190446 0.359731 0.07406 0.782944 0.07406 0.761783 0 1.08977-0.306829 0.32799-0.30683 0.32799-0.99455zm0-3.68195q-0.126964-0.0423213-0.34915-0.0740622-0.222187-0.0423213-0.603078-0.0423213-0.67714 0-1.03687 0.465534-0.34915 0.465534-0.34915 1.2379 0 0.423213 0.095223 0.730042 0.105803 0.296249 0.275088 0.497275 0.179865 0.190446 0.402052 0.285669 0.222187 0.084643 0.476114 0.084643 0.32799 0 0.613658-0.095223 0.296249-0.095223 0.476114-0.222187z" fill="#4f3e20" stroke-width="1.32254"/>
  </g>
 </g>
</svg>
