<svg width="16" height="16" version="1.1" viewBox="0 0 16 16" xmlns="http://www.w3.org/2000/svg">
 <g>
  <circle cx="8" cy="8" r="7" fill="#f3ae3d" opacity=".6"/>
  <g transform="scale(.962356 1.03912)" fill="#4f3e20" opacity=".9" aria-label="g">
   <path d="m6.62251 10.619c0.45349 0.212465 1.28928 0.267601 1.63269 0.267601 0.370056 0 0.655739-0.07401 0.857049-0.222033 0.20131-0.148022 0.337491-0.355253 0.408541-0.621694 0.0414463-0.162824 0.0606892-0.504756 0.0577287-1.02579-0.349332 0.411502-0.784518 0.617253-1.30556 0.617253-0.648338 0-1.15013-0.233875-1.50539-0.701626-0.355253-0.46775-0.53288-1.02875-0.53288-1.68301 0-0.449988 0.0814122-0.86445 0.244237-1.24339 0.162824-0.381898 0.39818-0.676462 0.706066-0.883693 0.310847-0.207231 0.674982-0.310847 1.0924-0.310847 0.556564 0 1.01543 0.224994 1.37661 0.674982v-0.568406h0.737151v4.07653c0 0.73419-0.07549 1.25375-0.226474 1.55867-0.148022 0.307887-0.384858 0.550643-0.710507 0.72827-0.322688 0.177627-0.720868 0.26644-1.19454 0.26644-0.562485 0-1.34195-0.07912-1.74051-0.290761zm0.433714-3.42703c0 0.618733 0.122858 1.0702 0.368575 1.3544 0.245717 0.284203 0.553603 0.426304 0.923659 0.426304 0.367095 0 0.674982-0.140621 0.923659-0.421864 0.248677-0.284203 0.373016-0.72827 0.373016-1.3322 0-0.577287-0.128779-1.01247-0.386338-1.30556-0.254598-0.293084-0.562485-0.439626-0.923659-0.439626-0.355253 0-0.657219 0.145062-0.905896 0.435185-0.248677 0.287163-0.373016 0.714948-0.373016 1.28335z" fill="#4f3e20" stroke-width="1.13681"/>
  </g>
 </g>
</svg>
