<svg width="16" height="16" viewBox="0 0 16 16" fill="none" xmlns="http://www.w3.org/2000/svg">
<rect x="1" y="1" width="14" height="14" rx="3" fill="#9AA7B0" fill-opacity="0.6"/>
<path fill-rule="evenodd" clip-rule="evenodd" d="M9.9922 8.00001C9.9912 7.25101 9.63513 6.00031 7.98163 6.00031C7.11224 6.00031 6.6576 6.50201 6.5986 6.60001C6.28363 6.19412 5.94412 6.00031 5.1 6.00031C4.39791 6.00031 4 6.29924 4 6.29924V6.00031H3V11.0003H4C4 11.0003 3.95 8.23431 4 8.00001C4.05 7.76571 4.05 7.00001 5 7.00001C5.95 7.00001 5.999 7.53701 6 8.00001V11.0003H7V8.00001C7 7.68601 6.95912 7.00001 7.98163 7.00001C9.00414 7.00001 9.00414 7.73962 9.0047 8.00001C9.0047 8.00001 9.0047 9.18563 9.0047 9.77845C9.0047 10.1857 9.0047 11.0003 9.0047 11.0003H9.9972L9.9922 8.00001Z" fill="#231F20" fill-opacity="0.7"/>
<path d="M11.6042 8.7628L11.1624 4.608V4.42H12.8356V4.608L12.3938 8.7628H11.6042ZM11.2376 11V9.496H12.7604V11H11.2376Z" fill="#231F20" fill-opacity="0.7"/>
</svg>
