<svg width="16" height="16" viewBox="0 0 16 16" fill="none" xmlns="http://www.w3.org/2000/svg">
<path d="M4 1C2.34315 1 1 2.34315 1 4V12C1 13.6569 2.34315 15 4 15H9V8H15C15 8 15 6.1616 15 4C15 2.34315 13.6569 1 12 1H4Z" fill="#F26522" fill-opacity="0.6"/>
<path d="M9.98163 6.00031C11.6351 6.00031 11.9912 7.251 11.9922 8H11.0047L11.0047 7.99879C11.0041 7.73732 11.0026 7.00001 9.98163 7.00001C8.99559 7.00001 8.99844 7.63794 8.99989 7.96503C8.99995 7.97713 9 7.9888 9 8.00001V11.0003H8V8.00001C7.999 7.53701 7.95 7.00001 7 7.00001C6.15387 7.00001 6.06136 7.60742 6.01591 7.90579C6.01034 7.94242 6.00547 7.97439 6 8.00001C5.95 8.23431 6 11.0003 6 11.0003H5V6.00031H6V6.29924C6 6.29924 6.39791 6.00031 7.1 6.00031C7.94412 6.00031 8.28363 6.19412 8.5986 6.60001C8.6576 6.50201 9.11224 6.00031 9.98163 6.00031Z" fill="#231F20" fill-opacity="0.7"/>
<path d="M12.8706 9C12.0268 9 11.3632 9.37098 10.9825 9.99832V9.12281H10V16H11.0029V13.5203C11.3867 14.1272 12.0417 14.4854 12.8706 14.4854C14.3289 14.4854 15.3472 13.3699 15.3472 11.7427C15.3472 10.1155 14.3289 9 12.8706 9ZM12.6608 13.5848C11.6835 13.5848 11.0029 12.8326 11.0029 11.7427C11.0029 10.6528 11.6835 9.90058 12.6608 9.90058C13.633 9.90058 14.3034 10.6528 14.3034 11.7427C14.3034 12.8326 13.633 13.5848 12.6608 13.5848Z" fill="#9AA7B0"/>
</svg>
