<svg width="16" height="16" viewBox="0 0 16 16" fill="none" xmlns="http://www.w3.org/2000/svg">
<rect x="1" y="1" width="14" height="14" rx="3" fill="#F4AF3D" fill-opacity="0.6"/>
<path fill-rule="evenodd" clip-rule="evenodd" d="M8.1533 11C7.26164 11 6.41997 10.6917 5.71997 10.0667L6.33664 9.33333C6.89497 9.81667 7.46164 10.0917 8.1783 10.0917C8.81164 10.0917 9.21164 9.79167 9.21164 9.35833V9.34167C9.21164 8.925 8.9783 8.7 7.89497 8.45C6.6533 8.15 5.9533 7.78333 5.9533 6.70833V6.69167C5.9533 5.69167 6.78664 5 7.94497 5C8.79497 5 9.46997 5.25833 10.0616 5.73333L9.51164 6.50833C8.98664 6.11667 8.46164 5.90833 7.9283 5.90833C7.3283 5.90833 6.9783 6.21667 6.9783 6.6V6.61667C6.9783 7.06667 7.24497 7.26667 8.36997 7.53333C9.6033 7.83333 10.2366 8.275 10.2366 9.24167V9.25833C10.2366 10.35 9.3783 11 8.1533 11Z" fill="#231F20" fill-opacity="0.7"/>
</svg>
