<?xml version="1.0" encoding="utf-8"?>
<svg id="Layer_1" viewBox="0 0 128 128" xmlns="http://www.w3.org/2000/svg">
  <defs>
    <linearGradient id="linear-gradient" x1="37.7" y1="-754.46" x2="128" y2="-754.46" gradientTransform="matrix(1, 0, 0, -1, -0.000015, -648.860054)" gradientUnits="userSpaceOnUse">
      <stop offset="0.192" style="stop-color: rgb(255, 102, 0);"/>
      <stop offset="0.902" style="stop-color: rgb(255, 194, 0);"/>
    </linearGradient>
    <linearGradient id="linear-gradient-2" x1="2.33" y1="-680.66" x2="70.23" y2="-680.66" gradientUnits="userSpaceOnUse" gradientTransform="matrix(1, 0, 0, -1, -0.000004, -648.859985)">
      <stop offset="0.19" style="stop-color: rgb(255, 255, 0);"/>
      <stop offset="0.9" style="stop-color: rgb(255, 22, 0);"/>
    </linearGradient>
    <linearGradient id="linear-gradient-3" x1="83.87" y1="-780.92" x2="20.45" y2="-692.42" gradientTransform="matrix(1, 0, 0, -1, 0.000008, -648.859985)" gradientUnits="userSpaceOnUse">
      <stop offset="0.09" style="stop-color: rgb(255, 194, 0);"/>
      <stop offset="0.48" style="stop-color: rgb(255, 123, 0);"/>
      <stop offset="0.9" style="stop-color: rgb(255, 22, 0);"/>
    </linearGradient>
  </defs>
  <title>icon_intellij_rust</title>
  <g transform="matrix(1, 0, 0, -1, 0.000021, 127.999977)">
    <polygon points="108.2 100.6 128 48.2 68.2 34.6 60.4 57 108.2 100.6" style="fill: rgb(255, 102, 0);"/>
    <polygon points="128 102.6 97.8 128 37.6 112.4 53.8 83.2 128 102.6" fill="url(#linear-gradient)"/>
    <polygon points="17.6 63.6 2.4 19.8 70.2 0 64.8 56.8 17.6 63.6" fill="url(#linear-gradient-2)"/>
    <polygon points="111.6 74 92.6 41.6 93 41.4 70.2 0 0 75.8 0 128 127.6 102.6 111.6 74" fill="url(#linear-gradient-3)"/>
  </g>
  <g>
    <rect x="21.33" y="21.33" width="85.33" height="85.33"/>
    <path d="M 31.4 34.6 L 46.6 34.6 C 50.8 34.6 54 35.8 56.2 38 C 58.119 40.053 59.129 42.793 59 45.6 L 59 45.6 C 59.106 47.964 58.4 50.293 57 52.2 C 55.626 53.897 53.834 55.206 51.8 56 L 60 67.8 L 51.4 67.8 L 44.6 57.6 L 38.6 57.6 L 38.6 67.8 L 31.4 67.8 L 31.4 34.6 Z M 46.2 50.6 C 47.696 50.692 49.178 50.268 50.4 49.4 C 51.375 48.549 51.893 47.29 51.8 46 L 51.8 46 C 51.865 44.615 51.272 43.28 50.2 42.4 C 48.978 41.532 47.496 41.108 46 41.2 L 38.8 41.2 L 38.8 50.8 Z" fill="#fff"/>
    <path d="M 59.4 62.8 L 63.8 57.6 C 66.8 60 70 61.6 73.8 61.6 C 76.8 61.6 78.6 60.4 78.6 58.4 L 78.6 58.4 C 78.6 56.6 77.4 55.6 71.8 54.2 C 65 52.4 60.8 50.6 60.8 44 L 60.8 43.8 C 60.8 37.8 65.6 33.8 72.4 33.8 C 76.886 33.781 81.249 35.259 84.8 38 L 81 43.6 C 78 41.6 75.2 40.4 72.4 40.4 C 69.6 40.4 68.2 41.6 68.2 43.4 L 68.2 43.4 C 68.2 45.6 69.6 46.4 75.4 47.8 C 82.2 49.6 86 52 86 57.8 L 86 57.8 C 86 64.4 81 68.2 73.8 68.2 C 68.492 68.272 63.352 66.344 59.4 62.8" fill="#fff"/>
    <rect x="29.87" y="92.59" width="32" height="5.12" fill="#fff"/>
  </g>
</svg>