<?xml version="1.0" encoding="UTF-8" standalone="no"?>
<!-- Created with Inkscape (http://www.inkscape.org/) -->

<svg
   xmlns:dc="http://purl.org/dc/elements/1.1/"
   xmlns:cc="http://creativecommons.org/ns#"
   xmlns:rdf="http://www.w3.org/1999/02/22-rdf-syntax-ns#"
   xmlns:svg="http://www.w3.org/2000/svg"
   xmlns="http://www.w3.org/2000/svg"
   version="1.1"
   width="70"
   height="70"
   viewBox="0 0 70 70"
   id="svg2"
   xml:space="preserve"
   style="fill-rule:evenodd;stroke-linejoin:round;stroke-miterlimit:1.41420996"><metadata
     id="metadata98"><rdf:RDF><cc:Work
         rdf:about=""><dc:format>image/svg+xml</dc:format><dc:type
           rdf:resource="http://purl.org/dc/dcmitype/StillImage" /><dc:title></dc:title></cc:Work></rdf:RDF></metadata><g
     id="g6"><path
       d="M 17.7,54.6 0.8,41.2 9.2,25.6 33.3,35 17.7,54.6 z"
       id="path8"
       style="fill:url(#_Linear1);fill-rule:nonzero" /><path
       d="M 70,18.7 68.7,59.2 41.8,70 25.6,59.6 49.3,35 38.9,12.3 48.2,1.1 70,18.7 z"
       id="path10"
       style="fill:url(#_Linear2);fill-rule:nonzero" /><path
       d="M 70,18.7 48.7,43.9 38.9,12.3 48.2,1.1 70,18.7 z"
       id="path12"
       style="fill:url(#_Linear3);fill-rule:nonzero" /><path
       d="M 33.7,58.1 5.6,68.3 10.1,52.5 16,33.1 0,27.7 10.1,0 l 22,2.7 21.6,24.7 -20,30.7 z"
       id="path14"
       style="fill:url(#_Linear4);fill-rule:nonzero" /></g><g
     id="g16"><rect
       width="43.200001"
       height="43.200001"
       x="13.7"
       y="13.5"
       id="rect18"
       style="fill:#000000" /><path
       d="m 33.934,21.976 c 0,-0.556 0.457,-1.013 1.013,-1.013 0.555,0 1.013,0.457 1.013,1.013 0,0.555 -0.458,1.013 -1.013,1.013 -0.556,0 -1.013,-0.458 -1.013,-1.013 M 21.85,31.147 c 0,-0.556 0.458,-1.013 1.013,-1.013 0.556,0 1.013,0.457 1.013,1.013 0,0.555 -0.457,1.012 -1.013,1.012 -0.555,0 -1.013,-0.457 -1.013,-1.012 m 24.167,0.047 c 0,-0.556 0.457,-1.013 1.013,-1.013 0.556,0 1.013,0.457 1.013,1.013 0,0.556 -0.457,1.013 -1.013,1.013 -0.556,0 -1.013,-0.457 -1.013,-1.013 m -21.234,1.388 c 0.466,-0.207 0.676,-0.754 0.469,-1.221 l -0.449,-1.016 1.767,0 0,7.967 -3.566,0 c -0.44,-1.546 -0.577,-3.163 -0.403,-4.761 l 2.182,-0.969 z m 7.393,0.195 0,-2.348 4.208,0 c 0.218,0 1.535,0.252 1.535,1.237 0,0.818 -1.01,1.111 -1.841,1.111 l -3.902,0 z M 26.43,45.42 c 0,-0.556 0.457,-1.013 1.013,-1.013 0.555,0 1.013,0.457 1.013,1.013 0,0.556 -0.458,1.013 -1.013,1.013 -0.556,0 -1.013,-0.457 -1.013,-1.013 m 15.008,0.047 c 0,-0.555 0.457,-1.013 1.013,-1.013 0.555,0 1.013,0.458 1.013,1.013 0,0.556 -0.458,1.013 -1.013,1.013 -0.556,0 -1.013,-0.457 -1.013,-1.013 m 0.313,-2.297 c -0.499,-0.107 -0.99,0.211 -1.097,0.711 l -0.508,2.372 c -3.307,1.498 -7.108,1.48 -10.4,-0.049 l -0.508,-2.373 c -0.107,-0.499 -0.598,-0.817 -1.096,-0.71 l -2.095,0.45 C 25.658,43.17 25.296,42.743 24.964,42.294 l 10.192,0 c 0.115,0 0.192,-0.021 0.192,-0.126 l 0,-3.605 c 0,-0.105 -0.077,-0.126 -0.192,-0.126 l -2.981,0 0,-2.285 3.224,0 c 0.294,0 1.573,0.084 1.982,1.719 0.128,0.503 0.41,2.139 0.602,2.663 0.192,0.587 0.972,1.76 1.803,1.76 l 5.262,0 c -0.353,0.472 -0.739,0.919 -1.155,1.337 L 41.751,43.17 z m 5.659,-9.518 c 0.072,0.719 0.081,1.444 0.027,2.165 l -1.28,0 c -0.128,0 -0.179,0.084 -0.179,0.209 l 0,0.588 c 0,1.383 -0.78,1.684 -1.464,1.76 -0.651,0.074 -1.372,-0.272 -1.461,-0.67 -0.384,-2.16 -1.024,-2.621 -2.034,-3.418 1.254,-0.796 2.558,-1.97 2.558,-3.543 0,-1.697 -1.163,-2.766 -1.957,-3.291 -1.113,-0.733 -2.345,-0.88 -2.677,-0.88 l -13.233,0 c 1.829,-2.044 4.282,-3.429 6.977,-3.938 l 1.56,1.636 c 0.352,0.37 0.936,0.383 1.305,0.03 l 1.746,-1.669 c 3.598,0.674 6.723,2.9 8.537,6.08 L 44.64,31.41 c -0.206,0.467 0.004,1.013 0.47,1.22 l 2.3,1.022 z m 2.98,0.043 -0.041,-0.417 1.231,-1.148 c 0.25,-0.233 0.157,-0.702 -0.163,-0.822 L 49.843,30.72 49.72,30.314 50.702,28.951 c 0.2,-0.277 0.016,-0.719 -0.321,-0.775 l -1.659,-0.27 -0.199,-0.372 0.697,-1.53 c 0.142,-0.312 -0.123,-0.71 -0.466,-0.697 l -1.683,0.058 -0.266,-0.322 0.387,-1.64 C 47.27,23.07 46.932,22.731 46.599,22.81 l -1.64,0.386 -0.323,-0.266 0.059,-1.683 c 0.013,-0.341 -0.386,-0.607 -0.697,-0.466 l -1.53,0.697 -0.372,-0.199 -0.271,-1.66 c -0.054,-0.336 -0.497,-0.52 -0.774,-0.32 L 39.687,20.28 39.282,20.157 38.693,18.584 C 38.574,18.263 38.104,18.171 37.871,18.42 l -1.147,1.231 -0.418,-0.04 -0.886,-1.433 c -0.179,-0.29 -0.659,-0.29 -0.838,0 l -0.886,1.433 -0.418,0.04 -1.148,-1.231 c -0.233,-0.249 -0.703,-0.157 -0.822,0.164 l -0.588,1.573 -0.406,0.123 -1.363,-0.981 c -0.277,-0.2 -0.72,-0.016 -0.775,0.32 l -0.271,1.66 -0.372,0.199 -1.53,-0.697 c -0.311,-0.142 -0.71,0.125 -0.697,0.466 l 0.059,1.683 -0.323,0.266 -1.64,-0.386 c -0.333,-0.078 -0.671,0.26 -0.593,0.593 l 0.386,1.64 -0.265,0.322 -1.684,-0.058 c -0.339,-0.01 -0.607,0.385 -0.465,0.697 l 0.697,1.53 -0.2,0.372 -1.659,0.27 c -0.337,0.055 -0.519,0.498 -0.32,0.775 l 0.981,1.363 -0.123,0.406 -1.574,0.588 c -0.319,0.12 -0.413,0.589 -0.163,0.822 l 1.231,1.148 -0.041,0.417 -1.432,0.887 c -0.29,0.179 -0.29,0.659 0,0.838 l 1.432,0.886 0.041,0.417 -1.231,1.149 c -0.25,0.232 -0.156,0.702 0.163,0.821 l 1.574,0.589 0.123,0.406 -0.981,1.363 c -0.2,0.278 -0.016,0.72 0.321,0.774 l 1.658,0.27 0.2,0.373 -0.697,1.53 c -0.143,0.311 0.126,0.711 0.465,0.697 l 1.683,-0.059 0.266,0.323 -0.386,1.641 c -0.078,0.332 0.26,0.67 0.593,0.591 l 1.64,-0.386 0.323,0.265 -0.059,1.684 c -0.013,0.341 0.386,0.608 0.697,0.466 l 1.53,-0.697 0.372,0.199 0.271,1.659 c 0.055,0.337 0.498,0.52 0.775,0.321 l 1.362,-0.982 0.407,0.124 0.588,1.572 c 0.119,0.32 0.589,0.414 0.822,0.164 l 1.148,-1.231 0.417,0.041 0.887,1.432 c 0.178,0.289 0.658,0.29 0.838,0 l 0.886,-1.432 0.417,-0.041 1.148,1.231 c 0.233,0.25 0.703,0.156 0.822,-0.164 l 0.588,-1.572 0.406,-0.124 1.364,0.982 c 0.277,0.199 0.719,0.016 0.774,-0.321 l 0.27,-1.659 0.373,-0.199 1.53,0.697 c 0.311,0.142 0.709,-0.124 0.696,-0.466 l -0.058,-1.684 0.323,-0.265 1.639,0.386 c 0.333,0.079 0.671,-0.259 0.593,-0.591 l -0.386,-1.641 0.265,-0.323 1.684,0.059 c 0.34,0.014 0.608,-0.386 0.465,-0.697 l -0.697,-1.53 0.2,-0.373 1.658,-0.27 c 0.338,-0.054 0.521,-0.496 0.321,-0.774 l -0.981,-1.363 0.123,-0.406 1.573,-0.589 c 0.32,-0.119 0.414,-0.589 0.163,-0.821 l -1.23,-1.149 0.041,-0.417 1.432,-0.886 c 0.29,-0.179 0.29,-0.659 0,-0.838 L 50.39,33.695 z"
       id="path20"
       style="fill:#ffffff;fill-rule:nonzero" /></g><defs
     id="defs22"><linearGradient
       x1="0"
       y1="0"
       x2="1"
       y2="0"
       id="_Linear1"
       gradientUnits="userSpaceOnUse"
       gradientTransform="matrix(32.5274,0,0,32.5274,0.7898,40.0893)"><stop
         id="stop25"
         style="stop-color:#f97a12;stop-opacity:1"
         offset="0" /><stop
         id="stop27"
         style="stop-color:#f97a12;stop-opacity:1"
         offset="0.25" /><stop
         id="stop29"
         style="stop-color:#b07b58;stop-opacity:1"
         offset="0.44999999" /><stop
         id="stop31"
         style="stop-color:#577bae;stop-opacity:1"
         offset="0.72000003" /><stop
         id="stop33"
         style="stop-color:#1e7ce5;stop-opacity:1"
         offset="0.91000003" /><stop
         id="stop35"
         style="stop-color:#087cfa;stop-opacity:1"
         offset="1" /></linearGradient><linearGradient
       x1="0"
       y1="0"
       x2="1"
       y2="0"
       id="_Linear2"
       gradientUnits="userSpaceOnUse"
       gradientTransform="matrix(53.6566,29.69,-29.69,53.6566,25.7674,24.88)"><stop
         id="stop38"
         style="stop-color:#f97a12;stop-opacity:1"
         offset="0" /><stop
         id="stop40"
         style="stop-color:#cb7a3e;stop-opacity:1"
         offset="0.07" /><stop
         id="stop42"
         style="stop-color:#9e7b6a;stop-opacity:1"
         offset="0.15000001" /><stop
         id="stop44"
         style="stop-color:#757b91;stop-opacity:1"
         offset="0.23999999" /><stop
         id="stop46"
         style="stop-color:#537bb1;stop-opacity:1"
         offset="0.33000001" /><stop
         id="stop48"
         style="stop-color:#387ccc;stop-opacity:1"
         offset="0.43000001" /><stop
         id="stop50"
         style="stop-color:#237ce0;stop-opacity:1"
         offset="0.52999997" /><stop
         id="stop52"
         style="stop-color:#147cef;stop-opacity:1"
         offset="0.64999998" /><stop
         id="stop54"
         style="stop-color:#0b7cf7;stop-opacity:1"
         offset="0.79000002" /><stop
         id="stop56"
         style="stop-color:#087cfa;stop-opacity:1"
         offset="1" /></linearGradient><linearGradient
       x1="0"
       y1="0"
       x2="1"
       y2="0"
       id="_Linear3"
       gradientUnits="userSpaceOnUse"
       gradientTransform="matrix(-14.9374,-44.6344,44.6344,-14.9374,63.2277,42.9153)"><stop
         id="stop59"
         style="stop-color:#fe315d;stop-opacity:1"
         offset="0" /><stop
         id="stop61"
         style="stop-color:#cb417e;stop-opacity:1"
         offset="0.07" /><stop
         id="stop63"
         style="stop-color:#9e4e9b;stop-opacity:1"
         offset="0.16" /><stop
         id="stop65"
         style="stop-color:#755bb4;stop-opacity:1"
         offset="0.23999999" /><stop
         id="stop67"
         style="stop-color:#5365ca;stop-opacity:1"
         offset="0.33000001" /><stop
         id="stop69"
         style="stop-color:#386ddb;stop-opacity:1"
         offset="0.43000001" /><stop
         id="stop71"
         style="stop-color:#2374e9;stop-opacity:1"
         offset="0.54000002" /><stop
         id="stop73"
         style="stop-color:#1478f3;stop-opacity:1"
         offset="0.64999998" /><stop
         id="stop75"
         style="stop-color:#0b7bf8;stop-opacity:1"
         offset="0.79000002" /><stop
         id="stop77"
         style="stop-color:#087cfa;stop-opacity:1"
         offset="1" /></linearGradient><linearGradient
       x1="0"
       y1="0"
       x2="1"
       y2="0"
       id="_Linear4"
       gradientUnits="userSpaceOnUse"
       gradientTransform="matrix(44.8033,74.107,-74.107,44.8033,10.7204,16.473)"><stop
         id="stop80"
         style="stop-color:#fe315d;stop-opacity:1"
         offset="0" /><stop
         id="stop82"
         style="stop-color:#f63462;stop-opacity:1"
         offset="0.04" /><stop
         id="stop84"
         style="stop-color:#df3a71;stop-opacity:1"
         offset="0.1" /><stop
         id="stop86"
         style="stop-color:#c24383;stop-opacity:1"
         offset="0.16" /><stop
         id="stop88"
         style="stop-color:#ad4a91;stop-opacity:1"
         offset="0.28999999" /><stop
         id="stop90"
         style="stop-color:#755bb4;stop-opacity:1"
         offset="0.54000002" /><stop
         id="stop92"
         style="stop-color:#1d76ed;stop-opacity:1"
         offset="0.91000003" /><stop
         id="stop94"
         style="stop-color:#087cfa;stop-opacity:1"
         offset="1" /></linearGradient></defs></svg>
