<svg width="16" height="16" version="1.1" viewBox="0 0 16 16" xmlns="http://www.w3.org/2000/svg">
 <g opacity=".8">
  <g fill="#ebb02b" stroke="#bf8a0d">
   <rect x="3.5" y="7.5" width="6" height="6" opacity="1"/>
   <rect x="9.5" y="7.5" width="6" height="6" opacity="1"/>
   <rect x="3.5" y="1.5" width="6" height="6" opacity="1"/>
  </g>
  <g fill="#ebbb59">
   <rect x="12" y="13" width="1" height="1" opacity="1"/>
   <rect x="6" y="7" width="1" height="1" opacity="1"/>
   <rect x="12" y="7" width="1" height="1" opacity="1"/>
   <rect x="6" y="1" width="1" height="1" opacity="1"/>
  </g>
  <circle cx="6.5" cy="10.5" r="2" fill="none" opacity="1" stroke="#725108"/>
  <g fill="#82633d">
   <rect x="3" y="14" width="2" height="2" opacity="1"/>
   <rect x="8" y="14" width="3" height="2" opacity="1"/>
   <rect x="14" y="14" width="2" height="2" opacity="1"/>
   <rect x="3" y="14" width="13" height="1" opacity="1"/>
  </g>
  <path d="m12 2.5c-0.554 0-1 0.39025-1 0.875v1.75c0 0.48475 0.446 0.875 1 0.875h3c0.554 0 1-0.39025 1-0.875v-1.75c0-0.48475-0.446-0.875-1-0.875zm1.5 1.39966c0.277 0 0.5 0.2742 0.5 0.613525 0 0.339325-0.223 0.611816-0.5 0.611816s-0.5-0.272491-0.5-0.611816c0-0.339325 0.223-0.613525 0.5-0.613525z" fill="#6dac35" opacity="1"/>
  <path d="m13.2114 1.44218c-0.564627 0-1.01918 0.391724-1.01918 0.878304v0.936628c0 0.071578 0.0292 0.13418 0.04777 0.200706h2.52009c0.01858-0.066526 0.04777-0.129129 0.04777-0.200706v-0.936628c0-0.48658-0.454555-0.878304-1.01918-0.878304z" fill="none" opacity="1" stroke="#6dac35" stroke-width=".884362"/>
 </g>
</svg>
