<svg width="32" height="32" version="1.1" viewBox="0 0 32 32" xmlns="http://www.w3.org/2000/svg">
 <g opacity=".8">
  <g fill="#ebb02b" stroke="#bf8a0d">
   <rect x="4.5" y="14.5" width="13" height="13" opacity="1"/>
   <rect x="17.5" y="14.5" width="13" height="13" opacity="1"/>
   <rect x="17.5" y="1.5" width="13" height="13" opacity="1"/>
  </g>
  <g fill="#ebbb59">
   <rect x="10" y="26" width="2" height="2" opacity="1"/>
   <rect x="10" y="14" width="2" height="2" opacity="1"/>
   <rect x="23" y="13" width="2" height="2" opacity="1"/>
   <rect x="23" y="1" width="2" height="2" opacity="1"/>
  </g>
  <g fill="#82633d">
   <rect x="4" y="28" width="27" height="1.5" opacity="1"/>
   <rect x="4" y="28" width="4" height="3" opacity="1"/>
   <rect x="14" y="28" width="7" height="3" opacity="1"/>
   <rect x="27" y="28" width="4" height="3" opacity="1"/>
  </g>
  <circle cx="24" cy="21" r="4.5" fill="none" opacity="1" stroke="#725108"/>
  <g transform="scale(.968909 1.03209)" fill="#725108" aria-label="R">
   <path d="m23.9386 20.021h0.397637q0.584526 0 0.862872-0.194842t0.278346-0.612361q0-0.413542-0.286299-0.588502-0.282322-0.174961-0.878777-0.174961h-0.373779zm0 1.00204v2.23074h-1.23268v-5.81345h1.69393q1.18496 0 1.75358 0.433425 0.568621 0.429448 0.568621 1.30822 0 0.512952-0.282322 0.914565-0.282323 0.397637-0.799251 0.62429l1.70984 2.53295h-1.36787l-1.38775-2.23074z" stroke-width="1.01795"/>
  </g>
  <path d="m7.47852 7c-0.541905 0-0.978516 0.495831-0.978516 1.11133v3.77734c0 0.615497 0.436611 1.11133 0.978516 1.11133h7.04297c0.541905 0 0.978516-0.495831 0.978516-1.11133v-3.77734c0-0.615497-0.436611-1.11133-0.978516-1.11133h-7.04297zm3.4707 2.19922h0.101562c0.3878 0 0.699219 0.313372 0.699219 0.701172v0.599609c0 0.3878-0.311419 0.699219-0.699219 0.699219h-0.101562c-0.3878 0-0.699219-0.311419-0.699219-0.699219v-0.599609c0-0.3878 0.311419-0.701172 0.699219-0.701172z" fill="#6eac35" opacity="1"/>
  <path d="m11 3.65598c-1.49279 0-2.69402 1.09293-2.69402 2.45143v1.83662h5.38804v-1.83662c0-1.35849-1.20124-2.45143-2.69402-2.45143z" fill="none" opacity="1" stroke="#6eac35" stroke-width="1.11196"/>
 </g>
</svg>
