<svg width="16" height="16" viewBox="0 0 16 16" fill="none" xmlns="http://www.w3.org/2000/svg">
<path d="M2 4C2 2.89543 2.89543 2 4 2H12C13.1046 2 14 2.89543 14 4V12C14 13.1046 13.1046 14 12 14H4C2.89543 14 2 13.1046 2 12V4Z" fill="#FFF4EB"/>
<path d="M8.13534 11.5C9.62429 11.5 10.9005 10.6008 11.2148 9.32459H10.1996C9.88534 10.0546 9.10703 10.5767 8.13534 10.5767C6.79625 10.5767 5.8294 9.50345 5.8294 8C5.8294 6.49655 6.79625 5.42334 8.13534 5.42334C9.10703 5.42334 9.88534 5.94544 10.1996 6.67541H11.2148C10.9005 5.39917 9.62429 4.5 8.13534 4.5C6.21614 4.5 4.79004 5.99378 4.79004 8C4.79004 10.0062 6.21614 11.5 8.13534 11.5Z" fill="#E66D17"/>
<path d="M9 3H12C12.5523 3 13 3.44772 13 4V7H14V4C14 2.89543 13.1046 2 12 2H9V3Z" fill="#E66D17"/>
<path d="M7 3V2H4C2.89543 2 2 2.89543 2 4V7H3V4C3 3.44772 3.44772 3 4 3H7Z" fill="#E66D17"/>
<path d="M3 9H2V12C2 13.1046 2.89543 14 4 14H7V13H4C3.44772 13 3 12.5523 3 12V9Z" fill="#E66D17"/>
<path d="M9 13V14H12C13.1046 14 14 13.1046 14 12V9H13V12C13 12.5523 12.5523 13 12 13H9Z" fill="#E66D17"/>
</svg>
