<svg width="16" height="16" viewBox="0 0 16 16" fill="none" xmlns="http://www.w3.org/2000/svg">
<path d="M2 4C2 2.89543 2.89543 2 4 2H12C13.1046 2 14 2.89543 14 4V12C14 13.1046 13.1046 14 12 14H4C2.89543 14 2 13.1046 2 12V4Z" fill="#2F2936"/>
<path fill-rule="evenodd" clip-rule="evenodd" d="M7.5 5.5H5V4.5H11V5.5H8.5V11.5H7.5V5.5Z" fill="#A571E6"/>
<path d="M9 3H12C12.5523 3 13 3.44772 13 4V7H14V4C14 2.89543 13.1046 2 12 2H9V3Z" fill="#A571E6"/>
<path d="M7 3V2H4C2.89543 2 2 2.89543 2 4V7H3V4C3 3.44772 3.44772 3 4 3H7Z" fill="#A571E6"/>
<path d="M3 9H2V12C2 13.1046 2.89543 14 4 14H7V13H4C3.44772 13 3 12.5523 3 12V9Z" fill="#A571E6"/>
<path d="M9 13V14H12C13.1046 14 14 13.1046 14 12V9H13V12C13 12.5523 12.5523 13 12 13H9Z" fill="#A571E6"/>
</svg>
