<svg width="16" height="16" viewBox="0 0 16 16" fill="none" xmlns="http://www.w3.org/2000/svg">
<path d="M2 4C2 2.89543 2.89543 2 4 2H12C13.1046 2 14 2.89543 14 4V12C14 13.1046 13.1046 14 12 14H4C2.89543 14 2 13.1046 2 12V4Z" fill="#FFF7F7"/>
<path d="M9 3H12C12.5523 3 13 3.44772 13 4V7H14V4C14 2.89543 13.1046 2 12 2H9V3Z" fill="#DB3B4B"/>
<path d="M7 3V2H4C2.89543 2 2 2.89543 2 4V7H3V4C3 3.44772 3.44772 3 4 3H7Z" fill="#DB3B4B"/>
<path d="M3 9H2V12C2 13.1046 2.89543 14 4 14H7V13H4C3.44772 13 3 12.5523 3 12V9Z" fill="#DB3B4B"/>
<path d="M9 13V14H12C13.1046 14 14 13.1046 14 12V9H13V12C13 12.5523 12.5523 13 12 13H9Z" fill="#DB3B4B"/>
<path d="M10.0657 5.25C9.25361 5.25 8.636 5.65158 8.29593 6.31965C8.00368 5.64685 7.40552 5.25 6.6071 5.25C5.84915 5.25 5.28147 5.61373 4.96189 6.25289V5.37615H4V10.7585H4.99869V7.59428C4.99869 6.68495 5.5138 6.11202 6.32852 6.11202C7.0749 6.11202 7.50591 6.62188 7.50591 7.44185V10.7585H8.49409V7.59428C8.49409 6.68495 9.01971 6.11202 9.82392 6.11202C10.5756 6.11202 11.0013 6.62188 11.0013 7.44185V10.7585H12V7.36301C12 6.07523 11.2168 5.25 10.0657 5.25Z" fill="#DB3B4B"/>
</svg>
