<svg width="16" height="16" viewBox="0 0 16 16" fill="none" xmlns="http://www.w3.org/2000/svg">
<path d="M4 2C2.89543 2 2 2.89543 2 4V12C2 13.1046 2.89543 14 4 14H9V8H13.685C13.7909 8 13.8959 8.00358 14 8.01091V4C14 2.89543 13.1046 2 12 2H4Z" fill="#45322B"/>
<path d="M8.29593 6.31965C8.636 5.65158 9.25361 5.25 10.0657 5.25C11.2168 5.25 12 6.07523 12 7.36301V8H11.0013V7.44185C11.0013 6.62188 10.5756 6.11202 9.82392 6.11202C9.01971 6.11202 8.49409 6.68495 8.49409 7.59428V10.7585H7.50591V7.44185C7.50591 6.62188 7.0749 6.11202 6.32852 6.11202C5.5138 6.11202 4.99869 6.68495 4.99869 7.59428V10.7585H4V5.37615H4.96189V6.25289C5.28147 5.61373 5.84915 5.25 6.6071 5.25C7.40552 5.25 8.00368 5.64685 8.29593 6.31965Z" fill="#C77D55"/>
<path d="M4 3H12C12.5523 3 13 3.44772 13 4V8H14V4C14 2.89543 13.1046 2 12 2H4C2.89543 2 2 2.89543 2 4V12C2 13.1046 2.89543 14 4 14H9V13H4C3.44772 13 3 12.5523 3 12V4C3 3.44772 3.44772 3 4 3Z" fill="#C77D55"/>
<path d="M12.8706 9C12.0268 9 11.3632 9.37098 10.9825 9.99832V9.12281H10V16H11.0029V13.5203C11.3867 14.1272 12.0417 14.4854 12.8706 14.4854C14.3289 14.4854 15.3472 13.3699 15.3472 11.7427C15.3472 10.1155 14.3289 9 12.8706 9ZM12.6608 13.5848C11.6835 13.5848 11.0029 12.8326 11.0029 11.7427C11.0029 10.6528 11.6835 9.90058 12.6608 9.90058C13.633 9.90058 14.3034 10.6528 14.3034 11.7427C14.3034 12.8326 13.633 13.5848 12.6608 13.5848Z" fill="#CED0D6"/>
</svg>
