<svg width="16" height="16" viewBox="0 0 16 16" fill="none" xmlns="http://www.w3.org/2000/svg">
<path d="M2 4C2 2.89543 2.89543 2 4 2H12C13.1046 2 14 2.89543 14 4V8H12V14H4C2.89543 14 2 13.1046 2 12V4Z" fill="#EBECF0"/>
<path d="M10.0657 5.25C9.25361 5.25 8.636 5.65158 8.29593 6.31965C8.00368 5.64685 7.40552 5.25 6.6071 5.25C5.84915 5.25 5.28147 5.61373 4.96189 6.25289V5.37615H4V10.7585H4.99869V7.59428C4.99869 6.68495 5.5138 6.11202 6.32852 6.11202C7.0749 6.11202 7.50591 6.62188 7.50591 7.44185V10.7585H8.49409V7.59428C8.49409 6.68495 9.01971 6.11202 9.82392 6.11202C10.5756 6.11202 11.0013 6.62188 11.0013 7.44185V10.7585H12V7.36301C12 6.07523 11.2168 5.25 10.0657 5.25Z" fill="#6C707E"/>
<path d="M14.0552 9H12.9502L13.0902 13.79H13.9202L14.0552 9Z" fill="#3574F0"/>
<path d="M14.105 14.79H12.895V16H14.105V14.79Z" fill="#3574F0"/>
<path d="M12 3H4C3.44772 3 3 3.44772 3 4V12C3 12.5523 3.44772 13 4 13H12V14H4C2.89543 14 2 13.1046 2 12V4C2 2.89543 2.89543 2 4 2H12C13.1046 2 14 2.89543 14 4V8H13V4C13 3.44772 12.5523 3 12 3Z" fill="#6C707E"/>
</svg>
