<svg width="16" height="16" viewBox="0 0 16 16" fill="none" xmlns="http://www.w3.org/2000/svg">
<rect x="2.5" y="2.5" width="11" height="11" rx="1.5" fill="#FFF7F7" stroke="#DB3B4B"/>
<path d="M10.0657 5.25C9.25361 5.25 8.636 5.65158 8.29593 6.31965C8.00368 5.64685 7.40552 5.25 6.6071 5.25C5.84915 5.25 5.28147 5.61373 4.96189 6.25289V5.37615H4V10.7585H4.99869V7.59428C4.99869 6.68495 5.5138 6.11202 6.32852 6.11202C7.0749 6.11202 7.50591 6.62188 7.50591 7.44185V10.7585H8.49409V7.59428C8.49409 6.68495 9.01971 6.11202 9.82392 6.11202C10.5756 6.11202 11.0013 6.62188 11.0013 7.44185V10.7585H12V7.36301C12 6.07523 11.2168 5.25 10.0657 5.25Z" fill="#DB3B4B"/>
</svg>
