<svg width="16" height="16" viewBox="0 0 16 16" fill="none" xmlns="http://www.w3.org/2000/svg">
<path fill-rule="evenodd" clip-rule="evenodd" d="M11.1865 13C11.39 12.3699 11.5 11.6978 11.5 11C11.5 9.49147 10.9861 8.10297 10.1238 7H15V13H11.1865Z" fill="#F4AF3D" fill-opacity="0.7"/>
<path fill-rule="evenodd" clip-rule="evenodd" d="M8 5.23221V0H2V5.23221C2.89751 4.76443 3.91787 4.5 5 4.5C6.08213 4.5 7.10249 4.76443 8 5.23221Z" fill="#F4AF3D" fill-opacity="0.7"/>
<path fill-rule="evenodd" clip-rule="evenodd" d="M9.15358 16H15V14H10.7678C10.3665 14.7699 9.81558 15.4495 9.15358 16Z" fill="#9AA7B0"/>
<path fill-rule="evenodd" clip-rule="evenodd" d="M9 6H15V0H9V6Z" fill="#F4AF3D" fill-opacity="0.7"/>
<path d="M4.68718 7.17815C4.68718 7.09932 4.71849 7.02372 4.77423 6.96798C4.82997 6.91224 4.90557 6.88092 4.9844 6.88092C5.06323 6.88092 5.13883 6.91224 5.19457 6.96798C5.25031 7.02372 5.28162 7.09932 5.28162 7.17815C5.28162 7.25698 5.25031 7.33258 5.19457 7.38832C5.13883 7.44406 5.06323 7.47537 4.9844 7.47537C4.90557 7.47537 4.82997 7.44406 4.77423 7.38832C4.71849 7.33258 4.68718 7.25698 4.68718 7.17815ZM1.14143 9.86925C1.14143 9.79042 1.17275 9.71482 1.22849 9.65908C1.28423 9.60334 1.35983 9.57203 1.43866 9.57203C1.51749 9.57203 1.59309 9.60334 1.64883 9.65908C1.70457 9.71482 1.73588 9.79042 1.73588 9.86925C1.73588 9.94808 1.70457 10.0237 1.64883 10.0794C1.59309 10.1352 1.51749 10.1665 1.43866 10.1665C1.35983 10.1665 1.28423 10.1352 1.22849 10.0794C1.17275 10.0237 1.14143 9.94808 1.14143 9.86925ZM8.23281 9.88312C8.23292 9.80436 8.26429 9.72887 8.32001 9.67323C8.37574 9.61758 8.45128 9.58632 8.53003 9.58632C8.60878 9.58632 8.68432 9.61758 8.74005 9.67323C8.79578 9.72887 8.82714 9.80436 8.82725 9.88312C8.82714 9.96187 8.79578 10.0374 8.74005 10.093C8.68432 10.1487 8.60878 10.1799 8.53003 10.1799C8.45128 10.1799 8.37574 10.1487 8.32001 10.093C8.26429 10.0374 8.23292 9.96187 8.23281 9.88312ZM2.00181 10.2903C2.13857 10.2296 2.20035 10.0693 2.13962 9.93227L2.00774 9.63409H2.52635V11.9717H1.48005C1.3509 11.5181 1.31066 11.0437 1.36156 10.5748L2.00181 10.2903ZM4.17123 10.3478V9.65877H5.40621C5.47 9.65877 5.85664 9.7325 5.85664 10.0216C5.85664 10.2616 5.56008 10.3477 5.31622 10.3477L4.17123 10.3478ZM2.48514 14.0577C2.48514 13.9788 2.51645 13.9032 2.57219 13.8475C2.62793 13.7918 2.70353 13.7604 2.78236 13.7604C2.86119 13.7604 2.93679 13.7918 2.99253 13.8475C3.04827 13.9032 3.07959 13.9788 3.07959 14.0577C3.07959 14.1365 3.04827 14.2121 2.99253 14.2678C2.93679 14.3236 2.86119 14.3549 2.78236 14.3549C2.70353 14.3549 2.62793 14.3236 2.57219 14.2678C2.51645 14.2121 2.48514 14.1365 2.48514 14.0577ZM6.88908 14.0715C6.88908 13.9927 6.9204 13.9171 6.97614 13.8614C7.03188 13.8056 7.10748 13.7743 7.18631 13.7743C7.26513 13.7743 7.34073 13.8056 7.39647 13.8614C7.45221 13.9171 7.48353 13.9927 7.48353 14.0715C7.48353 14.1504 7.45221 14.226 7.39647 14.2817C7.34073 14.3375 7.26513 14.3688 7.18631 14.3688C7.10748 14.3688 7.03188 14.3375 6.97614 14.2817C6.9204 14.226 6.88908 14.1504 6.88908 14.0715ZM6.98098 13.3975C6.83457 13.3662 6.69055 13.4593 6.65918 13.606L6.51 14.3022C6.03024 14.5195 5.50922 14.6307 4.98254 14.6282C4.45587 14.6257 3.93594 14.5095 3.45829 14.2876L3.3092 13.5914C3.27783 13.4449 3.13381 13.3515 2.98749 13.383L2.37286 13.515C2.25866 13.3974 2.1525 13.2722 2.05508 13.1404H5.04568C5.07953 13.1404 5.1021 13.1343 5.1021 13.1035V12.0456C5.1021 12.0148 5.07953 12.0087 5.04568 12.0087H4.17103V11.3381H5.11702C5.20338 11.3381 5.57873 11.3627 5.69875 11.8425C5.73633 11.9901 5.81886 12.4701 5.87529 12.6238C5.93152 12.7961 6.16046 13.1404 6.40442 13.1404H7.94849C7.84494 13.279 7.73168 13.4101 7.60957 13.5327L6.98098 13.3975ZM8.64163 10.6044C8.66263 10.8155 8.66522 11.0281 8.64938 11.2397H8.27393C8.23635 11.2397 8.22124 11.2643 8.22124 11.3012V11.4736C8.22124 11.8794 7.99239 11.9677 7.79185 11.9902C7.60087 12.0117 7.38914 11.9102 7.36304 11.7934C7.25038 11.1597 7.06265 11.0244 6.7662 10.7906C7.13409 10.5569 7.51691 10.2123 7.51691 9.75095C7.51691 9.2528 7.17541 8.93903 6.94264 8.78515C6.61606 8.56989 6.25447 8.52676 6.15693 8.52676H2.27398C2.81076 7.92692 3.53034 7.52082 4.32127 7.37132L4.77897 7.8515C4.88244 7.95985 5.05381 7.96386 5.16207 7.86029L5.67417 7.37046C6.19621 7.46825 6.6907 7.67849 7.12331 7.9866C7.55592 8.29471 7.91627 8.6933 8.17935 9.15468L7.82876 9.94652C7.76823 10.0836 7.83001 10.2438 7.96666 10.3046L8.64163 10.6044ZM9.516 10.6172L9.50404 10.4948L9.86515 10.158C9.9386 10.0895 9.91115 9.95168 9.81723 9.91668L9.35562 9.74407L9.31947 9.62491L9.60742 9.22497C9.66613 9.14368 9.61217 9.01391 9.51332 8.99765L9.02655 8.91847L8.96803 8.80916L9.17258 8.36017C9.21447 8.26874 9.13663 8.15178 9.03602 8.15561L8.54198 8.17282L8.46395 8.07815L8.57747 7.59692C8.60042 7.49919 8.50125 7.39992 8.40351 7.42287L7.92239 7.53629L7.82752 7.45826L7.84483 6.96422C7.8487 6.86419 7.7316 6.78605 7.64036 6.82756L7.19147 7.03221L7.08216 6.97359L7.00279 6.48672C6.98672 6.38803 6.85686 6.33409 6.77557 6.39262L6.37535 6.68057L6.25638 6.64452L6.08377 6.1828C6.04877 6.0887 5.91086 6.06164 5.84258 6.1347L5.50577 6.49609L5.38336 6.48414L5.12324 6.06383C5.07064 5.97872 4.92978 5.97872 4.87737 6.06383L4.61725 6.48414L4.49475 6.49609L4.15784 6.1347C4.08956 6.06164 3.95165 6.0887 3.91665 6.1828L3.74404 6.64452L3.62498 6.68057L3.22485 6.39262C3.14356 6.3339 3.0136 6.38803 2.99753 6.48672L2.91816 6.97359L2.80885 7.03221L2.35996 6.82756C2.26872 6.78586 2.15167 6.86418 2.1555 6.96422L2.17271 7.45826L2.07784 7.53629L1.59672 7.42287C1.49898 7.40011 1.39972 7.49919 1.42267 7.59692L1.53599 8.07815L1.45815 8.17282L0.964113 8.15561C0.864464 8.15274 0.785951 8.26874 0.827455 8.36017L1.03211 8.80916L0.973485 8.91847L0.486719 8.99765C0.387836 9.01372 0.334281 9.14368 0.392617 9.22497L0.680564 9.62491L0.644415 9.74407L0.182705 9.91668C0.0889855 9.95168 0.0615393 10.0895 0.134793 10.158L0.495995 10.4948L0.484041 10.6172L0.0638344 10.8773C-0.0212781 10.9299 -0.0212781 11.0708 0.0638344 11.1232L0.484041 11.3833L0.495995 11.5057L0.134793 11.8426C0.0615397 11.9109 0.0889857 12.0486 0.182705 12.0838L0.644416 12.2564L0.680564 12.3756L0.392617 12.7756C0.33409 12.8571 0.387931 12.987 0.486814 13.0028L0.973485 13.082L1.03211 13.1915L0.827455 13.6403C0.78576 13.7316 0.864465 13.8489 0.964113 13.8449L1.45796 13.8276L1.53599 13.9224L1.42267 14.4038C1.39972 14.5013 1.49898 14.6004 1.59672 14.5774L2.07784 14.4641L2.17271 14.542L2.1555 15.0361C2.15167 15.1361 2.26872 15.2144 2.35996 15.1727L2.80885 14.9681L2.91816 15.0267L2.99753 15.5133C3.0136 15.6124 3.14356 15.6659 3.22485 15.6076L3.62478 15.3195L3.74394 15.3557L3.91656 15.8172C3.95156 15.9109 4.08946 15.9386 4.15774 15.8651L4.49465 15.5039L4.61716 15.5162L4.87728 15.9364C4.92968 16.0211 5.07055 16.0213 5.12314 15.9364L5.38326 15.5162L5.50567 15.5039L5.84249 15.8651C5.91077 15.9386 6.04867 15.9109 6.08367 15.8172L6.25629 15.3557L6.37544 15.3195L6.77547 15.6076C6.85676 15.6659 6.98663 15.6122 7.00269 15.5133L7.08207 15.0267L7.19138 14.9681L7.64027 15.1727C7.7315 15.2143 7.84837 15.1363 7.84473 15.0361L7.82752 14.542L7.92229 14.4641L8.40342 14.5774C8.50115 14.6004 8.60032 14.5013 8.57737 14.4038L8.46405 13.9224L8.54189 13.8276L9.03593 13.8449C9.13557 13.8489 9.21437 13.7316 9.17249 13.6403L8.96793 13.1915L9.02646 13.082L9.51323 13.0028C9.6123 12.987 9.66605 12.8571 9.60733 12.7756L9.31938 12.3756L9.35553 12.2564L9.81715 12.0838C9.91106 12.0486 9.93851 11.9109 9.86506 11.8426L9.50395 11.5057L9.51591 11.3833L9.93612 11.1232C10.0212 11.0708 10.0213 10.9299 9.93621 10.8773L9.516 10.6172Z" fill="#9AA7B0"/>
</svg>
