<svg width="16" height="16" viewBox="0 0 16 16" fill="none" xmlns="http://www.w3.org/2000/svg">
<path fill-rule="evenodd" clip-rule="evenodd" d="M9 13H15V7H9V13Z" fill="#F4AF3D" fill-opacity="0.7"/>
<path fill-rule="evenodd" clip-rule="evenodd" d="M3 5C4 5 4.5 6 4.5 6H8V0H2V5C2 5 2.5 5 3 5Z" fill="#F4AF3D" fill-opacity="0.7"/>
<path fill-rule="evenodd" clip-rule="evenodd" d="M5 16H15V14H6L5 16Z" fill="#9AA7B0"/>
<path d="M6.67194 8.07814C6.45311 7.85943 6.18751 7.75004 5.87497 7.75004C5.56257 7.75004 5.29694 7.85937 5.07817 8.07814C4.85948 8.29685 4.75014 8.56243 4.75014 8.875C4.75014 9.07811 4.80077 9.26659 4.90233 9.4404C5.00388 9.61422 5.14048 9.75 5.31248 9.84761C5.31248 10.0507 5.29596 10.2295 5.26281 10.3838C5.22953 10.538 5.17489 10.6737 5.09876 10.791C5.02241 10.9082 4.94348 11.0077 4.86139 11.0898C4.77928 11.1719 4.66404 11.2489 4.51562 11.3212C4.36722 11.3935 4.22943 11.454 4.10252 11.5029C3.97561 11.5516 3.80465 11.6092 3.58982 11.6757C3.19915 11.7968 2.89843 11.908 2.68748 12.0097V9.09754C2.85936 8.99996 2.99608 8.8642 3.09763 8.69037C3.19915 8.51655 3.24993 8.32805 3.24993 8.12493C3.24993 7.81247 3.1406 7.54683 2.92183 7.32812C2.70314 7.10943 2.43755 7 2.12501 7C1.81245 7 1.54687 7.10934 1.3281 7.32812C1.10941 7.54683 1 7.81247 1 8.12493C1 8.32805 1.05077 8.51655 1.1523 8.69037C1.25385 8.8642 1.39055 8.99996 1.56245 9.09754V13.9023C1.39055 13.9998 1.25385 14.1357 1.1523 14.3095C1.05077 14.4834 1 14.6719 1 14.8749C1 15.1874 1.10932 15.453 1.3281 15.6717C1.54687 15.8904 1.81251 15.9998 2.12501 15.9998C2.43749 15.9998 2.70314 15.8904 2.92183 15.6717C3.14054 15.453 3.24993 15.1874 3.24993 14.8749C3.24993 14.6719 3.19915 14.4834 3.09763 14.3095C2.99606 14.1357 2.85936 13.9998 2.68748 13.9023V13.7499C2.68748 13.4804 2.76852 13.2852 2.93061 13.1641C3.0927 13.0429 3.42375 12.9043 3.92381 12.7481C4.45122 12.5801 4.84776 12.4218 5.11337 12.2733C5.98831 11.7773 6.42974 10.9687 6.43751 9.84759C6.60951 9.75 6.74611 9.6142 6.84766 9.44038C6.94914 9.26655 7 9.07809 7 8.87498C7.00006 8.5625 6.89065 8.29691 6.67194 8.07814Z" fill="#9AA7B0"/>
<path fill-rule="evenodd" clip-rule="evenodd" d="M9 6H15V0H9V6Z" fill="#F4AF3D" fill-opacity="0.7"/>
</svg>
