<svg width="16" height="16" version="1.1" viewBox="0 0 16 16" xmlns="http://www.w3.org/2000/svg" xmlns:xlink="http://www.w3.org/1999/xlink">
 <defs>
  <linearGradient id="linearGradient897" x1="8" x2="8" y1="13" y2="3" gradientUnits="userSpaceOnUse">
   <stop stop-color="#a66829" offset="0"/>
   <stop stop-color="#bf782f" offset=".45"/>
   <stop stop-color="#a96a2a" offset=".52"/>
   <stop stop-color="#c57c31" offset=".6"/>
   <stop stop-color="#c77d32" offset=".8"/>
   <stop stop-color="#aa6b2a" offset="1"/>
  </linearGradient>
 </defs>
 <path d="m7.51454 3c-3.59788 0-6.01454 2.23858-6.01454 5 0 2.76142 2.41666 5 6.01454 5 1.6887-1.98e-4 2.77105-0.503683 3.98546-1.4043-0.03848 0.0021-0.07698 0.0034-0.115492 0.0039-1.71563-2.44e-4 -2.83185-1.61171-2.83203-3.5996 1.861e-4 -1.9879 1.11641-3.59936 2.83203-3.59961 0.03657 0.00121 0.07311 0.00316 0.10962 0.00586-1.21255-0.900246-2.29256-1.40436-3.97959-1.40625z" fill="url(#linearGradient897)"/>
 <g fill="#686969">
  <ellipse cx="11.3" cy="8" rx="2" ry="3.1"/>
  <path d="m13.0094 6s-0.31453-2 2.69058-2l-0.207478 1.11902s-1.57858-0.337811-2.4831 0.880984z"/>
  <ellipse cx="14.25" cy="7.25" rx=".75" ry=".25"/>
  <ellipse cx="14.25" cy="8.75" rx=".75" ry=".25"/>
  <path d="m7.53051 2.9-0.589209-0.217828c0.059615-0.800805-0.134538-1.22402-0.641304-1.92849l0.910692-0.353684s0.586404 0.675318 0.319821 2.5z"/>
  <path d="m4.65215 3.4c-0.427707-1.1863-0.453581-1.95931-2.44433-1.84375l-0.407817-0.57011c2.0733-0.28247 2.62634 0.114964 3.2 1.41148z"/>
  <path d="m9.44785 3.2c0.427707-1.1863 0.453581-1.95931 2.44433-1.84375l0.407817-0.57011c-2.0733-0.28247-2.62634 0.114964-3.2 1.41148z"/>
  <path d="m13.0094 10s-0.31453 2 2.69058 2l-0.207478-1.11902s-1.57858 0.337811-2.4831-0.880984z"/>
  <path d="m7.53051 13.1-0.589209 0.217828c0.059615 0.800805-0.134538 1.22402-0.641304 1.92849l0.910692 0.353684s0.586405-0.675318 0.319821-2.5z"/>
  <path d="m4.65215 12.6c-0.427707 1.1863-0.453581 1.95931-2.44433 1.84375l-0.407817 0.57011c2.0733 0.28247 2.62634-0.114965 3.2-1.41148z"/>
  <path d="m9.44785 12.8c0.427707 1.1863 0.453581 1.95931 2.44433 1.84375l0.407817 0.57011c-2.0733 0.28247-2.62634-0.114965-3.2-1.41148z"/>
 </g>
</svg>
