<?xml version="1.0" encoding="utf-8"?>
<!-- Generator: Adobe Illustrator 19.2.1, SVG Export Plug-In . SVG Version: 6.00 Build 0)  -->
<svg version="1.1" id="Warstwa_1" xmlns="http://www.w3.org/2000/svg"  x="0px" y="0px"
	 viewBox="0 0 32 32" style="enable-background:new 0 0 32 32;" xml:space="preserve">
<style type="text/css">
	.st0{fill:#282627;}
</style>
<path class="st0" d="M9.4,26.8l5.6-2.8v-4.6l-5.6,2.4V26.8z M8.5,20.1l5.9-2.5l-5.9-2.5l-5.9,2.5L8.5,20.1z M24.5,26.8l5.6-2.8v-4.6
	l-5.6,2.4V26.8z M23.5,20.1l5.9-2.5l-5.9-2.5l-5.9,2.5L23.5,20.1z M16.9,15.8l5.6-2.4V9.5l-5.6,2.4V15.8z M16,10.3l6.5-2.8L16,4.7
	L9.5,7.5L16,10.3z M32,17.9V24c0,0.4-0.1,0.7-0.3,1s-0.4,0.5-0.8,0.7L24.4,29c-0.2,0.1-0.5,0.2-0.8,0.2s-0.6-0.1-0.8-0.2l-6.6-3.3
	c0,0-0.1,0-0.1-0.1c0,0-0.1,0-0.1,0.1L9.3,29c-0.2,0.1-0.5,0.2-0.8,0.2c-0.3,0-0.6-0.1-0.8-0.2L1,25.7c-0.3-0.2-0.6-0.4-0.8-0.7
	S0,24.4,0,24v-6.1c0-0.4,0.1-0.7,0.3-1c0.2-0.3,0.5-0.5,0.8-0.7l6.4-2.7V7.5c0-0.4,0.1-0.7,0.3-1S8.3,6,8.7,5.8L15.3,3
	c0.2-0.1,0.5-0.1,0.7-0.1s0.5,0,0.7,0.1l6.6,2.8c0.3,0.2,0.6,0.4,0.8,0.7s0.3,0.7,0.3,1v5.9l6.4,2.7c0.4,0.2,0.6,0.4,0.8,0.7
	C31.9,17.2,32,17.5,32,17.9z"/>
</svg>
