<svg width="16" height="16" viewBox="0 0 16 16" fill="none" xmlns="http://www.w3.org/2000/svg">
<g clip-path="url(#clip0)">
<path fill-rule="evenodd" clip-rule="evenodd" d="M7.2065 2.25837C7.13404 2.33083 7.09333 2.42911 7.09333 2.53159C7.09333 2.63407 7.13404 2.73235 7.2065 2.80481C7.27896 2.87728 7.37724 2.91798 7.47972 2.91798C7.5822 2.91798 7.68048 2.87728 7.75294 2.80481C7.8254 2.73235 7.86611 2.63407 7.86611 2.53159C7.86611 2.42911 7.8254 2.33083 7.75294 2.25837C7.68048 2.18591 7.5822 2.1452 7.47972 2.1452C7.37724 2.1452 7.27896 2.18591 7.2065 2.25837ZM2.59703 5.7568C2.52457 5.82927 2.48386 5.92755 2.48386 6.03003C2.48386 6.1325 2.52457 6.23079 2.59703 6.30325C2.6695 6.37571 2.76778 6.41642 2.87025 6.41642C2.97273 6.41642 3.07101 6.37571 3.14347 6.30325C3.21594 6.23079 3.25664 6.1325 3.25664 6.03003C3.25664 5.92755 3.21594 5.82927 3.14347 5.7568C3.07101 5.68434 2.97273 5.64363 2.87025 5.64363C2.76778 5.64363 2.6695 5.68434 2.59703 5.7568ZM11.816 5.77519C11.7436 5.84754 11.7028 5.94567 11.7026 6.04805C11.7028 6.15043 11.7436 6.24857 11.816 6.32091C11.8885 6.39325 11.9867 6.43389 12.089 6.43389C12.1914 6.43389 12.2896 6.39325 12.3621 6.32091C12.4345 6.24857 12.4753 6.15043 12.4754 6.04805C12.4753 5.94567 12.4345 5.84754 12.3621 5.77519C12.2896 5.70285 12.1914 5.66222 12.089 5.66222C11.9867 5.66222 11.8885 5.70285 11.816 5.77519ZM3.7815 6.11196C3.86045 6.29011 3.78014 6.49847 3.60236 6.57742L2.77003 6.94728C2.70386 7.55687 2.75616 8.17351 2.92406 8.76325H4.28426V5.72432H3.61007L3.7815 6.11196ZM6.42259 5.7564V6.65214L7.91109 6.65202C8.22811 6.65202 8.61363 6.54012 8.61363 6.22808C8.61363 5.85225 8.111 5.7564 8.02808 5.7564H6.42259ZM4.34385 11.2018C4.27139 11.2742 4.23068 11.3725 4.23068 11.475C4.23068 11.5775 4.27139 11.6757 4.34385 11.7482C4.41631 11.8207 4.51459 11.8614 4.61707 11.8614C4.71955 11.8614 4.81783 11.8207 4.89029 11.7482C4.96275 11.6757 5.00346 11.5775 5.00346 11.475C5.00346 11.3725 4.96275 11.2742 4.89029 11.2018C4.81783 11.1293 4.71955 11.0886 4.61707 11.0886C4.51459 11.0886 4.41631 11.1293 4.34385 11.2018ZM10.069 11.2198C9.99652 11.2922 9.95581 11.3905 9.95581 11.493C9.95581 11.5955 9.99652 11.6938 10.069 11.7662C10.1414 11.8387 10.2397 11.8794 10.3422 11.8794C10.4447 11.8794 10.543 11.8387 10.6154 11.7662C10.6879 11.6938 10.7286 11.5955 10.7286 11.493C10.7286 11.3905 10.6879 11.2922 10.6154 11.2198C10.543 11.1473 10.4447 11.1066 10.3422 11.1066C10.2397 11.1066 10.1414 11.1473 10.069 11.2198ZM9.65694 10.8878C9.69771 10.6971 9.88494 10.576 10.0753 10.6168L10.8924 10.7924C10.8979 10.787 10.9034 10.7814 10.9088 10.7759L12.1274 12.057C12.0863 12.1247 12.005 12.1696 11.9244 12.1507L11.299 12.0033L11.1758 12.1045L11.1982 12.7469C11.2029 12.8772 11.051 12.9787 10.9324 12.9245L10.3488 12.6585L10.2067 12.7347L10.1035 13.3673C10.0826 13.4959 9.91379 13.5657 9.80811 13.4899L9.28808 13.1153L9.13317 13.1624L8.90877 13.7624C8.86327 13.8842 8.684 13.9202 8.59523 13.8247L8.15737 13.3551L7.99824 13.371L7.66009 13.9173C7.59171 14.0277 7.40859 14.0274 7.34046 13.9173L7.0023 13.371L6.84305 13.3551L6.40506 13.8247C6.3163 13.9202 6.13703 13.8842 6.09152 13.7624L5.86712 13.1624L5.71222 13.1153L5.19231 13.4899C5.08663 13.5657 4.91768 13.4961 4.89679 13.3673L4.79361 12.7347L4.65151 12.6585L4.06794 12.9245C3.94934 12.9787 3.79717 12.877 3.80214 12.7469L3.82452 12.1045L3.70119 12.0033L3.07573 12.1507C2.94868 12.1805 2.81963 12.0517 2.84947 11.9249L2.99679 11.2992L2.89534 11.1759L2.25335 11.1984C2.1238 11.2036 2.02149 11.051 2.07569 10.9324L2.34174 10.349L2.26553 10.2066L1.63286 10.1037C1.50431 10.0831 1.43432 9.91423 1.5104 9.80831L1.88473 9.28827L1.83774 9.13336L1.23752 8.90896C1.11568 8.86321 1.08 8.68418 1.17523 8.59542L1.64479 8.15743L1.62925 7.9983L1.08298 7.66014C0.972338 7.59201 0.972338 7.40888 1.08298 7.34051L1.62925 7.00235L1.64479 6.84322L1.17523 6.40535C1.08 6.31634 1.11568 6.13719 1.23752 6.09169L1.83774 5.86729L1.88473 5.71238L1.5104 5.19246C1.43457 5.08679 1.50419 4.91784 1.63273 4.89695L2.26553 4.79401L2.34174 4.65191L2.07569 4.06822C2.02174 3.94936 2.1238 3.79856 2.25335 3.80229L2.89559 3.82467L2.99679 3.70159L2.84947 3.076C2.81963 2.94894 2.94868 2.82014 3.07573 2.84973L3.70119 2.99718L3.82452 2.89573L3.80214 2.25348C3.79717 2.12344 3.94934 2.02162 4.06794 2.07582L4.65151 2.34187L4.79361 2.26566L4.89679 1.63274C4.91768 1.50444 5.08663 1.43407 5.19231 1.51041L5.71247 1.88474L5.86725 1.83787L6.09165 1.23764C6.13715 1.11531 6.31642 1.08013 6.40519 1.17511L6.84317 1.64492L7.00243 1.62938L7.34058 1.08299C7.40871 0.972338 7.59184 0.972338 7.66021 1.08299L7.99837 1.62938L8.1575 1.64492L8.59536 1.17511C8.68412 1.08013 8.8634 1.11531 8.9089 1.23764L9.1333 1.83787L9.28795 1.88474L9.80824 1.51041C9.91391 1.43432 10.0827 1.50444 10.1036 1.63274L10.2068 2.26567L10.3489 2.34187L10.9325 2.07583C11.0511 2.02187 11.2033 2.12344 11.1983 2.25348L11.1758 2.89573L11.2991 2.99718L11.9246 2.84973C12.0516 2.81989 12.1805 2.94894 12.1507 3.076L12.0031 3.70159L12.1046 3.82467L12.7468 3.80229C12.8776 3.79732 12.9788 3.94936 12.9244 4.06822L12.6584 4.65191L12.7345 4.79401L13.3673 4.89695C13.4958 4.91808 13.566 5.08679 13.4896 5.19246L13.1153 5.71238L13.1623 5.86729L13.7624 6.09169C13.8845 6.13719 13.9202 6.31634 13.8247 6.40535L13.3553 6.84322L13.3708 7.00235L13.9171 7.34051C14.0277 7.40888 14.0276 7.59201 13.917 7.66014L13.4253 7.96448L12.3 6.9L12.2161 6.97769L11.3567 6.59594C11.179 6.51699 11.0987 6.30863 11.1774 6.13047L11.6332 5.10109C11.2912 4.50129 10.8227 3.98313 10.2603 3.58258C9.69791 3.18204 9.05507 2.90872 8.37643 2.7816L7.71069 3.41838C7.56995 3.55302 7.34717 3.5478 7.21265 3.40695L6.61765 2.78272C5.58944 2.97706 4.65399 3.505 3.95618 4.28478H9.004C9.13081 4.28478 9.60087 4.34085 10.0254 4.6207C10.328 4.82074 10.772 5.22864 10.772 5.87623C10.772 6.47597 10.2743 6.92402 9.79605 7.22774C9.80474 7.23459 9.81335 7.24138 9.82189 7.24811C10.1882 7.5367 10.4235 7.722 10.5671 8.50454L9.6 9.4L10.4394 10.2825H9.32574C9.0086 10.2825 8.71097 9.83491 8.63787 9.61089C8.59072 9.48246 8.52954 9.17873 8.47888 8.9272C8.45073 8.78745 8.42583 8.66381 8.40837 8.59529C8.25235 7.97157 7.76439 7.93949 7.65213 7.93949H6.42234V8.81125H7.55938C7.60339 8.81125 7.63273 8.81921 7.63273 8.85923V10.2345C7.63273 10.2746 7.60339 10.2825 7.55938 10.2825H3.6716C3.79825 10.4539 3.93626 10.6166 4.08472 10.7694L4.88374 10.5979C5.07395 10.557 5.26118 10.6783 5.30195 10.8688L5.49577 11.7738C6.11672 12.0623 6.79262 12.2134 7.47731 12.2167C8.16199 12.2199 8.83931 12.0754 9.463 11.7929L9.65694 10.8878Z" fill="#9AA7B0"/>
<path fill-rule="evenodd" clip-rule="evenodd" d="M13.236 11.9113L10.7 14.4473L12.1 15.8483L16.024 11.9243L16.011 11.9113L16.024 11.8983L12.1 7.97427L10.7 9.37427L13.236 11.9113Z" fill="#9AA7B0"/>
</g>
<defs>
<clipPath id="clip0">
<rect width="16" height="16" fill="white"/>
</clipPath>
</defs>
</svg>
