<svg width="16" height="16" viewBox="0 0 16 16" fill="none" xmlns="http://www.w3.org/2000/svg">
    <path fill-rule="evenodd" clip-rule="evenodd"
          d="M13.136 11.9113L10.6 14.4473L12 15.8483L15.924 11.9243L15.911 11.9113L15.924 11.8983L12 7.97428L10.6 9.37428L13.136 11.9113Z"
          fill="#9AA7B0"/>
    <path fill-rule="evenodd" clip-rule="evenodd"
          d="M7.56123 7.47072C8.52041 7.47072 9.13266 7.04563 9.13266 6.3863V6.36678C9.13266 5.67058 8.54337 5.28887 7.54847 5.28887H5.59439V7.47072H7.56123ZM4.25 4.25H7.65816C8.6199 4.25 9.37245 4.49074 9.8648 4.89848C10.2704 5.25417 10.4974 5.73565 10.4974 6.30172V6.32124C10.4974 7.3883 9.74235 8.03028 8.68367 8.28837L10.75 10.75H9.15561L7.27551 8.48357H5.59439V10.75H4.25V4.25ZM7.5 13.155C4.37513 13.155 1.845 10.6233 1.845 7.5C1.845 4.37513 4.37513 1.84338 7.5 1.84338C10.4564 1.84338 12.8804 4.10946 13.1332 7H13.9811C13.7257 3.64397 10.9214 1 7.5 1C3.91037 1 1 3.91037 1 7.5C1 11.0896 3.91037 14 7.5 14C8.01626 14 8.51847 13.9398 9 13.826V12.9541C8.52236 13.0851 8.01939 13.155 7.5 13.155Z"
          fill="#231F20" fill-opacity="0.7"/>
</svg>
