<?xml version="1.0" encoding="utf-8"?>
<!-- Generator: Adobe Illustrator 19.2.1, SVG Export Plug-In . SVG Version: 6.00 Build 0)  -->
<svg version="1.1" id="Layer_1" xmlns="http://www.w3.org/2000/svg" xmlns:xlink="http://www.w3.org/1999/xlink" x="0px" y="0px"
	 viewBox="0 0 32 32" style="enable-background:new 0 0 32 32;" xml:space="preserve">
<style type="text/css">
	.st0{opacity:0.7;fill:#9AA7B0;enable-background:new    ;}
	.st1{opacity:0.6;fill:#BD9662;enable-background:new    ;}
	.st2{opacity:0.6;fill:#231F20;enable-background:new    ;}
	.st3{opacity:0.6;}
	.st4{fill:#231F20;}
</style>
<title>java@2x</title>
<g>
	<g>
		<polygon class="st0" points="12,0 4,8 12,8 		"/>
		<rect x="2" y="18" class="st1" width="30" height="14"/>
		<polygon class="st0" points="14,0 14,8 14,10 12,10 4,10 4,16 26,16 26,0 		"/>
	</g>
	<path class="st2" d="M18.4,25.7c1.9,0.4,2.3,0.8,2.3,1.5v0c0,0.7-0.7,1.2-1.8,1.2c0,0-0.1,0-0.1,0v0H15V30l3.8,0l0,0
		c2.2,0,3.7-1.1,3.7-2.9v0c0-1.6-1.1-2.3-3.3-2.8c-2-0.4-2.4-0.8-2.4-1.5v0c0-0.6,0.6-1.2,1.7-1.2l0,0v0h2.8V20h-2.6l0,0
		c-0.1,0-0.1,0-0.2,0c-2,0-3.5,1.2-3.5,2.8v0C15,24.6,16.3,25.2,18.4,25.7z"/>
	<g class="st3">
		<path class="st4" d="M5.6,30V20h4.1c1,0,1.8,0.1,2.3,0.3c0.5,0.2,0.9,0.5,1.1,1c0.3,0.5,0.4,1,0.4,1.6c0,0.8-0.2,1.4-0.6,1.9
			c-0.4,0.5-1.1,0.8-1.9,0.9c0.4,0.3,0.8,0.5,1.1,0.8s0.7,0.8,1.1,1.6l1.2,2h-2.4l-1.4-2.2c-0.5-0.8-0.9-1.3-1-1.5
			C9.4,26.1,9.2,26,9,25.9c-0.2-0.1-0.5-0.1-1-0.1H7.6V30H5.6z M7.6,24.2h1.5c0.9,0,1.5,0,1.8-0.1c0.2-0.1,0.4-0.2,0.6-0.4
			s0.2-0.5,0.2-0.8c0-0.3-0.1-0.6-0.3-0.8c-0.2-0.2-0.4-0.3-0.7-0.4c-0.2,0-0.6,0-1.4,0H7.6V24.2z"/>
	</g>
</g>
</svg>
