<svg width="16" height="16" viewBox="0 0 16 16" fill="none" xmlns="http://www.w3.org/2000/svg">
<g clip-path="url(#clip0_7298_2467)">
<path fill-rule="evenodd" clip-rule="evenodd" d="M5.9589 10.3537C5.33378 10.3478 4.71703 10.2085 4.14994 9.94509L3.97103 9.10964C3.93339 8.93383 3.76057 8.82183 3.58499 8.85958L2.84744 9.01795C2.7104 8.87682 2.583 8.72665 2.46609 8.56844H6.05481C6.09544 8.56844 6.12252 8.56116 6.12252 8.52414V7.25468C6.12252 7.21773 6.09544 7.21038 6.05481 7.21038H5.00523V6.40569H6.14043C6.24405 6.40569 6.69448 6.43529 6.8385 7.01104C6.85461 7.07428 6.8776 7.18841 6.90358 7.31741C6.95035 7.5496 7.00682 7.82996 7.05034 7.94851C7.06285 7.98685 7.08249 8.03228 7.10804 8.08085C7.56934 7.50892 8.13193 7.02208 8.76853 6.6476C8.63356 6.15369 8.43277 5.99552 8.14329 5.76748C8.1354 5.76127 8.12745 5.75501 8.11944 5.74869C8.56091 5.46833 9.02029 5.05474 9.02029 4.50114C9.02029 3.90336 8.61049 3.52684 8.33117 3.34219C7.93927 3.08386 7.50536 3.03211 7.38831 3.03211H2.72878C3.37291 2.31231 4.23641 1.82498 5.18553 1.64559L5.73476 2.2218C5.85893 2.35182 6.06457 2.35664 6.19448 2.23235L6.80901 1.64456C7.43545 1.7619 8.02884 2.01419 8.54797 2.38392C9.0671 2.75366 9.49953 3.23196 9.81522 3.78562L9.39452 4.73582C9.32187 4.90027 9.39602 5.09261 9.56 5.16548L10.37 5.52525C10.3852 5.67862 10.3924 5.83261 10.3914 5.98659C10.8599 5.8712 11.3497 5.81 11.8538 5.81C11.8536 5.81 11.854 5.81 11.8538 5.81L11.4192 5.54063L11.4048 5.39374L11.8382 4.98956C11.9263 4.90739 11.8934 4.74202 11.7807 4.70002L11.2267 4.49288L11.1834 4.34989L11.5289 3.86997C11.5994 3.77242 11.5346 3.61669 11.416 3.59718L10.8319 3.50216L10.7616 3.37099L11.0071 2.8322C11.0574 2.72249 10.964 2.58214 10.8432 2.58673L10.2504 2.60739L10.1567 2.49378L10.293 1.91631C10.3205 1.79902 10.2015 1.6799 10.0842 1.70745L9.50686 1.84355L9.39302 1.74991L9.41379 1.15706C9.41844 1.03702 9.27792 0.943264 9.16844 0.993069L8.62976 1.23865L8.4986 1.16831L8.40335 0.584068C8.38407 0.465636 8.22823 0.400912 8.13068 0.471144L7.65042 0.816684L7.50766 0.773419L7.30052 0.219362C7.25852 0.10644 7.09304 0.0739623 7.0111 0.161639L6.60692 0.595313L6.46003 0.580968L6.14789 0.0766018C6.08477 -0.0255339 5.91573 -0.0255339 5.85284 0.0766018L5.5407 0.580968L5.3937 0.595313L4.9894 0.161639C4.90747 0.0739629 4.74198 0.106439 4.69998 0.219362L4.49284 0.773419L4.34997 0.816684L3.86982 0.471144C3.77228 0.400682 3.61632 0.465635 3.59704 0.584067L3.50179 1.16831L3.37062 1.23865L2.83195 0.993069C2.72247 0.943034 2.582 1.03702 2.58659 1.15706L2.60725 1.74991L2.49341 1.84355L1.91606 1.70745C1.79878 1.68013 1.67966 1.79902 1.7072 1.91631L1.84319 2.49377L1.74978 2.60739L1.15694 2.58673C1.03736 2.58329 0.943141 2.72249 0.992946 2.8322L1.23853 3.37099L1.16818 3.50216L0.584063 3.59718C0.465403 3.61646 0.401138 3.77242 0.47114 3.86997L0.816677 4.34989L0.773299 4.49288L0.219246 4.70002C0.106783 4.74202 0.0738472 4.90739 0.161752 4.98956L0.595194 5.39374L0.580849 5.54063L0.0766012 5.85278C-0.0255338 5.91589 -0.0255338 6.08493 0.0766012 6.14782L0.580849 6.45997L0.595194 6.60686L0.161752 7.01115C0.0738476 7.09309 0.106783 7.25835 0.219246 7.30058L0.773299 7.50772L0.816677 7.65071L0.47114 8.13074C0.400908 8.22852 0.465517 8.38436 0.584177 8.40341L1.16818 8.49843L1.23853 8.62983L0.992946 9.1684C0.942912 9.27788 1.03736 9.41869 1.15694 9.41387L1.74955 9.3931L1.84319 9.50694L1.7072 10.0845C1.67966 10.2016 1.79878 10.3205 1.91606 10.2929L2.49341 10.1569L2.60725 10.2503L2.58659 10.8433C2.582 10.9633 2.72247 11.0572 2.83195 11.0072L3.37062 10.7617L3.50179 10.8321L3.59704 11.416C3.61632 11.5349 3.77228 11.5991 3.86982 11.5291L4.34974 11.1833L4.49273 11.2268L4.69987 11.7807C4.74187 11.8931 4.90735 11.9263 4.98929 11.8382L5.39358 11.4047L5.54059 11.4194L5.76131 11.776C5.7714 11.2855 5.83946 10.8092 5.9589 10.3537ZM5.72908 1.16157C5.66219 1.22846 5.62461 1.31918 5.62461 1.41378C5.62461 1.50837 5.66219 1.59909 5.72908 1.66598C5.79597 1.73287 5.88669 1.77045 5.98128 1.77045C6.07587 1.77045 6.16659 1.73287 6.23348 1.66598C6.30037 1.59909 6.33795 1.50837 6.33795 1.41378C6.33795 1.31918 6.30037 1.22846 6.23348 1.16157C6.16659 1.09468 6.07587 1.0571 5.98128 1.0571C5.88669 1.0571 5.79597 1.09468 5.72908 1.16157ZM1.47418 4.3909C1.4073 4.45779 1.36972 4.54851 1.36972 4.6431C1.36972 4.7377 1.4073 4.82842 1.47418 4.89531C1.54107 4.9622 1.63179 4.99977 1.72639 4.99977C1.82098 4.99977 1.9117 4.9622 1.97859 4.89531C2.04548 4.82842 2.08306 4.7377 2.08306 4.6431C2.08306 4.54851 2.04548 4.45779 1.97859 4.3909C1.9117 4.32401 1.82098 4.28643 1.72639 4.28643C1.63179 4.28643 1.54107 4.32401 1.47418 4.3909ZM9.98402 4.40787C9.91714 4.47465 9.8795 4.56524 9.87937 4.65974C9.8795 4.75425 9.91714 4.84484 9.98402 4.91161C10.0509 4.97839 10.1415 5.0159 10.236 5.0159C10.3305 5.0159 10.4212 4.97839 10.4881 4.91161C10.5549 4.84484 10.5926 4.75425 10.5927 4.65974C10.5926 4.56524 10.5549 4.47465 10.4881 4.40787C10.4212 4.34109 10.3305 4.30359 10.236 4.30359C10.1415 4.30359 10.0509 4.34109 9.98402 4.40787ZM2.56754 4.71873C2.64041 4.88318 2.56628 5.07551 2.40218 5.14839L1.63387 5.48979C1.57279 6.0525 1.62107 6.6217 1.77606 7.16608H3.03163V4.36091H2.40929L2.56754 4.71873ZM5.00547 4.39052V5.21736L6.37947 5.21725C6.6721 5.21725 7.02797 5.11396 7.02797 4.82592C7.02797 4.479 6.564 4.39052 6.48746 4.39052H5.00547ZM3.08663 9.41701C3.01974 9.4839 2.98217 9.57462 2.98217 9.66921C2.98217 9.76381 3.01974 9.85453 3.08663 9.92142C3.15352 9.98831 3.24424 10.0259 3.33884 10.0259C3.43343 10.0259 3.52415 9.98831 3.59104 9.92142C3.65793 9.85453 3.6955 9.76381 3.6955 9.66921C3.6955 9.57462 3.65793 9.4839 3.59104 9.41701C3.52415 9.35012 3.43343 9.31254 3.33884 9.31254C3.24424 9.31254 3.15352 9.35012 3.08663 9.41701Z" fill="#231F20" fill-opacity="0.7"/>
<path d="M8.04688 7.8125L8.04303 11.482H8.04688V11.4922H11.7266L10.2041 9.9697C10.677 9.55519 11.3057 9.31756 11.9834 9.35307C13.1033 9.41176 14.0124 10.1985 14.2762 11.2306L15.5143 11.3384C15.2725 9.61795 13.8403 8.25367 12.0403 8.15934C11.0118 8.10544 10.0593 8.47649 9.35338 9.119L8.04688 7.8125Z" fill="#389FD6"/>
<path d="M13.4527 13.773C12.9856 14.162 12.3764 14.3828 11.7216 14.3484C10.582 14.2887 9.66065 13.4752 9.41546 12.4163L8.16951 12.308C8.38194 14.0612 9.82847 15.4612 11.6526 15.5568C12.6652 15.6099 13.6041 15.2511 14.3066 14.6269L15.6797 16V12.3203H12L13.4527 13.773Z" fill="#389FD6"/>
</g>
<defs>
<clipPath id="clip0_7298_2467">
<rect width="16" height="16" fill="white"/>
</clipPath>
</defs>
</svg>
