<svg width="16" height="16" version="1.1" viewBox="0 0 16 16" xml:space="preserve" xmlns="http://www.w3.org/2000/svg">
    <path class="st0" d="m4.7 13.375 2.8-1.4v-2.3l-2.8 1.2zm-0.45-3.35 2.95-1.25-2.95-1.25-2.95 1.25zm8 3.35 2.8-1.4v-2.3l-2.8 1.2zm-0.499999-3.35 2.95-1.25-2.95-1.25-2.95 1.25zm-3.3-2.15 2.8-1.2v-1.95l-2.8 1.2zm-0.45-2.75 3.25-1.4-3.25-1.4-3.25 1.4zm8 3.8v3.05c0 0.2-0.05 0.35-0.149999 0.5-0.100005 0.149999-0.2 0.25-0.400001 0.35l-3.25 1.65c-0.100001 0.05-0.25 0.1-0.400001 0.1-0.15 0-0.299999-0.05-0.399999-0.09999l-3.3-1.65001s-0.049999 0-0.049999-0.05c0 0-0.05 0-0.05 0.05l-3.35 1.65c-0.1 0.05-0.25 0.1-0.4 0.1-0.15 0-0.3-0.05-0.4-0.1l-3.35-1.65c-0.15-0.1-0.3-0.200001-0.4-0.35-0.1-0.15-0.1-0.3-0.1-0.5v-3.05c0-0.2 0.05-0.35 0.15-0.5 0.1-0.15 0.25-0.25 0.4-0.35l3.2-1.35v-3c0-0.2 0.05-0.35 0.15-0.5 0.1-0.15 0.25-0.25 0.45-0.35l3.3-1.4c0.1-0.05 0.25-0.05 0.35-0.05s0.25 0 0.35 0.05l3.3 1.4c0.15 0.1 0.300001 0.2 0.4 0.35 0.100005 0.15 0.150001 0.35 0.150001 0.5v2.95l3.2 1.35c0.199999 0.1 0.299999 0.2 0.399999 0.35 0.150001 0.2 0.2 0.35 0.2 0.55z" fill="#282627" stroke-width=".5"/>
</svg>
