<svg width="16" height="16" version="1.1" viewBox="0 0 16 16" xmlns="http://www.w3.org/2000/svg">
 <path d="m7.49946 1.88503a0.475559 0.475562 0 0 1 0.951117 0 0.475559 0.475562 0 0 1-0.951117 0m-5.67319 4.30577a0.475559 0.475562 0 0 1 0.951117 0 0.475559 0.475562 0 0 1-0.951117 0m11.3462 0.022187a0.475559 0.475562 0 0 1 0.951117 0 0.475559 0.475562 0 0 1-0.951117 0m-9.96959 0.651526c0.218806-0.0971628 0.317651-0.353611 0.220489-0.572878l-0.211002-0.477092h0.829779v3.74023h-1.67409a5.85497 5.85502 0 0 1-0.189581-2.23505zm3.47106 0.091961v-1.10245h1.97599c0.102059 0 0.720682 0.117973 0.720682 0.580529 0 0.384061-0.474488 0.521772-0.864666 0.521772zm-2.69774 5.93581a0.475559 0.475562 0 0 1 0.951117 0 0.475559 0.475562 0 0 1-0.951117 0m7.04631 0.02219a0.475559 0.475562 0 0 1 0.951117 0 0.475559 0.475562 0 0 1-0.951117 0m0.147044-1.07844c-0.23426-0.05019-0.464695 0.09885-0.514883 0.333567l-0.238697 1.11393a5.85497 5.85502 0 0 1-4.88274-0.023412l-0.238544-1.11393c-0.0501877-0.234414-0.280622-0.383755-0.514729-0.333413l-0.983402 0.211157a5.85497 5.85502 0 0 1-0.508456-0.599349h4.78496c0.054166 0 0.090276-0.0097 0.090276-0.05906v-1.69262c0-0.049266-0.03611-0.05906-0.090276-0.05906h-1.39944v-1.07293h1.51359c0.138169 0 0.738738 0.039477 0.930767 0.80714 0.060134 0.236097 0.192182 1.00407 0.282458 1.24996 0.08997 0.275728 0.456279 0.826571 0.846611 0.826571h2.47052a5.85497 5.85502 0 0 1-0.542272 0.627657zm2.65704-4.46903a5.85497 5.85502 0 0 1 0.0124 1.01646h-0.600722c-0.06013 0-0.08431 0.039477-0.08431 0.098387v0.275881c0 0.649383-0.366157 0.790614-0.687021 0.826571-0.305567 0.034428-0.644334-0.127918-0.686106-0.314899-0.180247-1.01386-0.480608-1.23037-0.954942-1.60449 0.588633-0.373809 1.20114-0.925265 1.20114-1.6634 0-0.797041-0.546403-1.29907-0.918832-1.54527-0.522533-0.34443-1.10107-0.413439-1.25714-0.413439h-6.21271a5.85497 5.85502 0 0 1 3.27566-1.84869l0.732311 0.768275c0.165558 0.173363 0.439754 0.179789 0.612962 0.014077l0.819375-0.783729a5.85497 5.85502 0 0 1 4.00828 2.85475l-0.560938 1.26694c-0.09685 0.219267 2e-3 0.475715 0.220642 0.572878zm1.39898 0.0205032-0.01913-0.195856 0.577771-0.538909c0.117514-0.109557 0.0736-0.330048-0.07666-0.38605l-0.73858-0.276187-0.05784-0.190654 0.460716-0.639898c0.09394-0.13006 0.0076-0.337698-0.150563-0.36371l-0.778824-0.126694-0.093643-0.174893 0.327291-0.718393c0.06701-0.14628-0.05753-0.333414-0.2185-0.327293l-0.790456 0.0275422-0.124857-0.151482 0.181625-0.769958c0.036722-0.156379-0.12195-0.315205-0.278327-0.278482l-0.7698 0.181473-0.151787-0.124858 0.02769-0.790462c0.0062-0.160051-0.181166-0.285062-0.327138-0.218655l-0.718229 0.327446-0.174892-0.0937965-0.126999-0.778986c-0.025706-0.157909-0.233495-0.244208-0.363554-0.150564l-0.640352 0.46072-0.190345-0.0576858-0.276186-0.738743c-0.056002-0.150564-0.276644-0.193867-0.385894-0.0769652l-0.538905 0.578233-0.195854-0.0191265-0.41619-0.672489c-0.084156-0.136181-0.309542-0.136181-0.393392 0l-0.41619 0.672489-0.196007 0.0191265-0.539058-0.578233c-0.10925-0.116901-0.329892-0.073599-0.385894 0.0769652l-0.276185 0.738743-0.190499 0.0576858-0.640198-0.46072c-0.130059-0.0939497-0.338002-0.0073446-0.363708 0.150564l-0.126999 0.778986-0.174892 0.0937965-0.718234-0.327446c-0.145973-0.0667134-0.333258 0.0586036-0.327138 0.218655l0.027542 0.790462-0.151787 0.124858-0.769799-0.181473c-0.156377-0.0364168-0.315203 0.122104-0.27848 0.278482l0.181318 0.769958-0.124551 0.151482-0.790455-0.0275422c-0.159438-0.0045904-0.28506 0.181014-0.218653 0.327293l0.327444 0.718393-0.0937958 0.174893-0.778827 0.126694c-0.158213 0.0257061-0.2439 0.23365-0.150563 0.36371l0.460716 0.639898-0.0578382 0.190654-0.738738 0.276187c-0.149951 0.056002-0.193865 0.276493-0.0766586 0.38605l0.577923 0.538909-0.0191264 0.195856-0.672331 0.416194c-0.13618 0.084156-0.13618 0.309544 0 0.393395l0.672331 0.416194 0.0191264 0.195854-0.577923 0.539063c-0.117207 0.109251-0.0732924 0.329587 0.0766585 0.385896l0.738738 0.276187 0.057838 0.190654-0.460716 0.64005c-0.0936428 0.130366-0.007497 0.338157 0.150716 0.363557l0.778674 0.126694 0.093795 0.175199-0.327444 0.718087c-0.066713 0.145974 0.059216 0.33372 0.218653 0.327293l0.790149-0.02769 0.124857 0.151788-0.181318 0.770111c-0.036722 0.156073 0.122103 0.314594 0.27848 0.27787l0.769799-0.181319 0.151787 0.124551-0.027543 0.790615c-0.00612 0.160051 0.181165 0.285215 0.327138 0.218502l0.718234-0.327293 0.174892 0.0938 0.126999 0.778526c0.025706 0.15852 0.233648 0.244208 0.363708 0.15087l0.639892-0.461026 0.190652 0.05799 0.276185 0.738436c0.056001 0.149953 0.276644 0.194174 0.385894 0.07666l0.539058-0.577927 0.196007 0.01959 0.41619 0.672336c0.08385 0.135569 0.309235 0.135875 0.393392 0l0.41619-0.672336 0.195854-0.01959 0.538905 0.577927c0.10925 0.117515 0.329892 0.07329 0.385894-0.07666l0.276186-0.738436 0.190652-0.05799 0.640045 0.461026c0.130059 0.09334 0.337849 0.0074 0.363554-0.15087l0.127-0.778526 0.174892-0.0938 0.718234 0.327293c0.145973 0.06671 0.332953-0.05815 0.327139-0.218502l-0.02754-0.790615 0.151634-0.124551 0.769799 0.181319c0.156377 0.03672 0.31505-0.121795 0.278328-0.27787l-0.181319-0.770111 0.124551-0.151788 0.790456 0.02769c0.159437 0.0064 0.285519-0.181319 0.2185-0.327293l-0.327291-0.718087 0.09365-0.175199 0.778827-0.126694c0.158519-0.0254 0.244511-0.233191 0.150563-0.363557l-0.460717-0.64005 0.05784-0.190654 0.738585-0.276187c0.150257-0.056309 0.194171-0.276646 0.07666-0.385896l-0.577771-0.539063 0.01913-0.195854 0.672331-0.416194c0.136181-0.083851 0.136334-0.309238 1.53e-4 -0.393395z" fill="#bd9662" stroke-width="1.23349"/>
</svg>
