<?xml version="1.0" encoding="utf-8"?>
<!-- Generator: Adobe Illustrator 19.2.1, SVG Export Plug-In . SVG Version: 6.00 Build 0)  -->
<svg version="1.1" id="Layer_1" xmlns="http://www.w3.org/2000/svg" xmlns:xlink="http://www.w3.org/1999/xlink" x="0px" y="0px"
	 viewBox="0 0 16 16" style="enable-background:new 0 0 16 16;" xml:space="preserve">
<style type="text/css">
	.st0{opacity:0.7;fill:#9AA7B0;enable-background:new    ;}
	.st1{opacity:0.6;fill:#BD9662;enable-background:new    ;}
	.st2{opacity:0.6;fill:#231F20;enable-background:new    ;}
	.st3{opacity:0.6;fill:#231F20;}
	.st4{font-family:'Arial-BoldMT';}
	.st5{font-size:7.1653px;}
</style>
<title>java</title>
<g>
	<g>
		<polygon class="st0" points="6,0 2,4 6,4 		"/>
		<rect x="1" y="9" class="st1" width="15" height="7"/>
		<polygon class="st0" points="7,0 7,4 7,5 6,5 2,5 2,8 13,8 13,0 		"/>
	</g>
	<path class="st2" d="M8.9,12.9c1,0.2,1.2,0.4,1.2,0.7v0C10,14,9.6,14.3,9.2,14.2c0,0,0,0,0,0c0,0,0,0,0,0v0H7.7V15l1.5,0l0,0
		c0.9,0.1,1.7-0.4,1.8-1.3c0-0.1,0-0.1,0-0.2v0c0-0.8-0.6-1.2-1.6-1.4c-1-0.2-1.2-0.4-1.2-0.8v0c0.1-0.4,0.4-0.6,0.8-0.6
		c0,0,0,0,0,0l0,0v0h1.4V10H9.1l0,0C9,10,9,10,9,10c-0.8-0.1-1.6,0.5-1.7,1.3c0,0,0,0.1,0,0.1v0C7.2,12.3,7.9,12.6,8.9,12.9z"/>
	<text transform="matrix(0.9178 0 0 1 2.3105 14.9545)" class="st3 st4 st5">R</text>
</g>
</svg>
