<svg width="16" height="16" viewBox="0 0 16 16" fill="none" xmlns="http://www.w3.org/2000/svg">
<g clip-path="url(#clip0)">
<path fill-rule="evenodd" clip-rule="evenodd" d="M14.042 11.537C14.6509 10.4991 15 9.29031 15 8C15 4.13401 11.866 1 8 1C4.13401 1 1 4.13401 1 8C1 11.866 4.13401 15 8 15C9.29032 15 10.4991 14.6509 11.537 14.042L10.802 13.3069C9.96562 13.7494 9.01208 14 8 14C4.68629 14 2 11.3137 2 8C2 4.68629 4.68629 2 8 2C11.3137 2 14 4.68629 14 8C14 9.01207 13.7494 9.96561 13.3069 10.802L14.042 11.537Z" fill="#9AA7B0" fill-opacity="0.8"/>
<path fill-rule="evenodd" clip-rule="evenodd" d="M12.9994 8.07629C12.9998 8.05091 13 8.02548 13 8C13 5.23858 10.7614 3 8 3C5.23858 3 3 5.23858 3 8C3 10.7614 5.23858 13 8 13C8.02295 13 8.04586 12.9998 8.06874 12.9995L7.01013 11.8766C5.27976 11.4361 4 9.86749 4 8C4 5.79086 5.79086 4 8 4C9.87442 4 11.4477 5.28929 11.8814 7.02944L12.9994 8.07629Z" fill="#9AA7B0" fill-opacity="0.8"/>
<path fill-rule="evenodd" clip-rule="evenodd" d="M7.9703 10.9999L10.9999 7.9703C10.9839 6.32713 9.64694 5 8 5C6.34315 5 5 6.34315 5 8C5 9.64694 6.32713 10.9839 7.9703 10.9999Z" fill="#9AA7B0" fill-opacity="0.8"/>
<path fill-rule="evenodd" clip-rule="evenodd" d="M9.28471 10.8153L8.39999 11.7L9.45869 12.7587L10.3942 11.8232L10.4721 11.6459L10.5256 11.3551L12.1055 12.935L12.1475 13.33L14.7523 15.9347L15.9875 14.6994L13.3831 12.095L12.9894 12.0543L11.4144 10.4793L12.2961 9.62069L12.8674 9.34995L12.8721 8.95184L11.2041 9.01083L11.2052 9.01149L11.0117 9.08833L9.77705 10.323C9.65288 10.4471 9.60767 10.6204 9.64143 10.7803L9.54791 10.7217L9.28471 10.8153Z" fill="#62B543"/>
</g>
<defs>
<clipPath id="clip0">
<rect width="16" height="16" fill="white"/>
</clipPath>
</defs>
</svg>
