<svg xmlns="http://www.w3.org/2000/svg" width="16" height="16" viewBox="0 0 16 16">
  <g fill="none" fill-rule="evenodd">
    <path fill="#9AA7B0" d="M14.9291111,9 L14,9 L14,7 L13.9170416,7 C13.4409635,4.16228666 10.9729963,2 8,2 C4.6862915,2 2,4.6862915 2,8 C2,10.9729963 4.16228666,13.4409635 7,13.9170416 L7,14.9291111 C3.60770586,14.4438815 1,11.5264719 1,8 C1,4.13400675 4.13400675,1 8,1 C11.8659932,1 15,4.13400675 15,8 C15,8.33952134 14.975828,8.67339702 14.9291111,9 Z"/>
    <path fill="#9AA7B0" d="M7,12.8999819 C4.71775968,12.4367116 3,10.4189579 3,8 C3,5.23857625 5.23857625,3 8,3 C10.4189579,3 12.4367116,4.71775968 12.8999819,7 L11.8739825,7 C11.4299397,5.27477279 9.86383943,4 8,4 C5.790861,4 4,5.790861 4,8 C4,9.86383943 5.27477279,11.4299397 7,11.8739825 L7,12.8999819 Z"/>
    <path fill="#9AA7B0" d="M7,10.8292943 C5.83480763,10.4174579 5,9.30621883 5,8 C5,6.34314575 6.34314575,5 8,5 C9.30621883,5 10.4174579,5.83480763 10.8292943,7 L10,7 L10,9 L7,9 L7,10.8292943 Z"/>
    <rect width="2" height="6" x="14" y="10" fill="#40B6E0"/>
    <rect width="2" height="8" x="11" y="8" fill="#9AA7B0"/>
    <rect width="2" height="6" x="8" y="10" fill="#62B543"/>
  </g>
</svg>
