<svg xmlns="http://www.w3.org/2000/svg" width="16" height="16" viewBox="0 0 16 16">
  <g fill="none" fill-rule="evenodd">
    <path fill="#9AA7B0" d="M14.7734944,9.77305064 L13.934116,8.8922118 C13.9775131,8.60111122 14,8.30318166 14,8 C14,4.6862915 11.3137085,2 8,2 C4.6862915,2 2,4.6862915 2,8 C2,10.9624827 4.14702044,13.4235019 6.96991985,13.9119161 L8.01707521,14.9999798 C8.01138495,14.9999932 8.00569327,15 8,15 C4.13400675,15 1,11.8659932 1,8 C1,4.13400675 4.13400675,1 8,1 C11.8659932,1 15,4.13400675 15,8 C15,8.61258066 14.9213128,9.20678292 14.7734944,9.77305064 Z"/>
    <path fill="#9AA7B0" d="M5.68466664,12.4327702 C4.08891519,11.5975625 3,9.92594614 3,8 C3,5.23857625 5.23857625,3 8,3 C10.7614237,3 13,5.23857625 13,8 L12,8 C12,5.790861 10.209139,4 8,4 C5.790861,4 4,5.790861 4,8 C4,9.64396385 4.99174569,11.0562931 6.40958904,11.6713397 L5.68466664,12.4327702 Z"/>
    <path fill="#9AA7B0" d="M7.1617334,10.8813163 C5.91283482,10.5185956 5,9.36589978 5,8 C5,6.34314575 6.34314575,5 8,5 C9.65685425,5 11,6.34314575 11,8 L9.9049,8 L7.1617334,10.8813163 Z"/>
    <polygon fill="#5C7180" points="10.346 9 10.991 9.875 8.214 12.513 11.001 15.125 10.358 16 7 12.513"/>
    <polygon fill="#5C7180" points="12.654 9 12.009 9.875 14.787 12.513 12 15.125 12.643 16 16 12.513"/>
    <path fill="#9AA7B0" d="M14.7734944,9.77305064 L13.934116,8.8922118 C13.9775131,8.60111122 14,8.30318166 14,8 C14,4.6862915 11.3137085,2 8,2 C4.6862915,2 2,4.6862915 2,8 C2,10.9624827 4.14702044,13.4235019 6.96991985,13.9119161 L8.01707521,14.9999798 C8.01138495,14.9999932 8.00569327,15 8,15 C4.13400675,15 1,11.8659932 1,8 C1,4.13400675 4.13400675,1 8,1 C11.8659932,1 15,4.13400675 15,8 C15,8.61258066 14.9213128,9.20678292 14.7734944,9.77305064 Z"/>
    <path fill="#9AA7B0" d="M5.68466664,12.4327702 C4.08891519,11.5975625 3,9.92594614 3,8 C3,5.23857625 5.23857625,3 8,3 C10.7614237,3 13,5.23857625 13,8 L12,8 C12,5.790861 10.209139,4 8,4 C5.790861,4 4,5.790861 4,8 C4,9.64396385 4.99174569,11.0562931 6.40958904,11.6713397 L5.68466664,12.4327702 Z"/>
    <path fill="#9AA7B0" d="M7.1617334,10.8813163 C5.91283482,10.5185956 5,9.36589978 5,8 C5,6.34314575 6.34314575,5 8,5 C9.65685425,5 11,6.34314575 11,8 L9.9049,8 L7.1617334,10.8813163 Z"/>
    <polygon fill="#5C7180" points="10.346 9 10.991 9.875 8.214 12.513 11.001 15.125 10.358 16 7 12.513"/>
    <polygon fill="#5C7180" points="12.654 9 12.009 9.875 14.787 12.513 12 15.125 12.643 16 16 12.513"/>
  </g>
</svg>
