<svg xmlns="http://www.w3.org/2000/svg" width="16" height="16" viewBox="0 0 16 16">
  <g fill="none" fill-rule="evenodd">
    <path fill="#9AA7B0" d="M14.9291111,9 L13.9170416,9 C13.9716012,8.67479153 14,8.34071221 14,8 C14,4.6862915 11.3137085,2 8,2 C4.6862915,2 2,4.6862915 2,8 C2,11.102036 4.35406366,13.654251 7.37319945,13.9676534 L6.81476498,14.9000742 C3.51323988,14.3370179 1,11.4620083 1,8 C1,4.13400675 4.13400675,1 8,1 C11.8659932,1 15,4.13400675 15,8 C15,8.33952134 14.975828,8.67339702 14.9291111,9 Z"/>
    <path fill="#9AA7B0" d="M12.8999819,9 L11.8739825,9 C11.956247,8.68038008 12,8.34529957 12,8 C12,5.790861 10.209139,4 8,4 C5.790861,4 4,5.790861 4,8 C4,10.209139 5.790861,12 8,12 C8.19570924,12 8.38813571,11.9859448 8.57632505,11.9587886 L7.95286534,12.9997824 C5.21314779,12.974482 3,10.7456952 3,8 C3,5.23857625 5.23857625,3 8,3 C10.7614237,3 13,5.23857625 13,8 C13,8.34246584 12.9655697,8.67689006 12.8999819,9 Z"/>
    <circle cx="8" cy="8" r="3" fill="#9AA7B0"/>
    <polygon fill="#5C7180" points="12.492 10 13.951 11.424 12 13.655 10.471 11.003 8 15.024 8.98 16 10.471 13 12.044 15.423 12.063 15.004 14.669 12.125 16 13.424 16 10"/>
  </g>
</svg>
