<svg width="16" height="16" viewBox="0 0 16 16" fill="none" xmlns="http://www.w3.org/2000/svg">
<path fill-rule="evenodd" clip-rule="evenodd" d="M14.7735 9.77305C14.9213 9.20678 15 8.61258 15 8C15 4.13401 11.866 1 8 1C4.13401 1 1 4.13401 1 8C1 11.866 4.13401 15 8 15C8.00569 15 8.01138 15 8.01708 15L6.96992 13.9119C4.14702 13.4235 2 10.9625 2 8C2 4.68629 4.68629 2 8 2C11.3137 2 14 4.68629 14 8C14 8.30318 13.9775 8.60111 13.9341 8.89221L14.7735 9.77305Z" fill="#9AA7B0" fill-opacity="0.8"/>
<path fill-rule="evenodd" clip-rule="evenodd" d="M13 8C13 5.23858 10.7614 3 8 3C5.23858 3 3 5.23858 3 8C3 9.92595 4.08892 11.5976 5.68467 12.4328L6.40959 11.6713C4.99175 11.0563 4 9.64396 4 8C4 5.79086 5.79086 4 8 4C10.2091 4 12 5.79086 12 8H13Z" fill="#9AA7B0" fill-opacity="0.8"/>
<path fill-rule="evenodd" clip-rule="evenodd" d="M7.16173 10.8813L9.9049 8H11C11 6.34315 9.65685 5 8 5C6.34315 5 5 6.34315 5 8C5 9.3659 5.91283 10.5186 7.16173 10.8813Z" fill="#9AA7B0" fill-opacity="0.8"/>
<path fill-rule="evenodd" clip-rule="evenodd" d="M10.3462 9L10.9911 9.875L8.21353 12.513L11.0005 15.125L10.3578 16L7.0004 12.513L10.3462 9Z" fill="#40B6E0"/>
<path fill-rule="evenodd" clip-rule="evenodd" d="M12.6544 9L12.0095 9.875L14.7874 12.513L12 15.125L12.6428 16L16.0001 12.513L12.6544 9Z" fill="#40B6E0"/>
</svg>
