<svg width="16" height="16" viewBox="0 0 16 16" fill="none" xmlns="http://www.w3.org/2000/svg">
<path fill-rule="evenodd" clip-rule="evenodd" d="M7 13.917C4.16229 13.441 2 10.973 2 8C2 4.68629 4.68629 2 8 2C10.973 2 13.441 4.16229 13.917 7H14V8V9H14.9291C14.9758 8.6734 15 8.33952 15 8C15 4.13401 11.866 1 8 1C4.13401 1 1 4.13401 1 8C1 11.5265 3.60771 14.4439 7 14.9291V13.917Z" fill="#9AA7B0" fill-opacity="0.8"/>
<path fill-rule="evenodd" clip-rule="evenodd" d="M7 12.9C4.71776 12.4367 3 10.419 3 8C3 5.23858 5.23858 3 8 3C10.419 3 12.4367 4.71776 12.9 7H11.874C11.4299 5.27477 9.86384 4 8 4C5.79086 4 4 5.79086 4 8C4 9.86384 5.27477 11.4299 7 11.874V12.9Z" fill="#9AA7B0" fill-opacity="0.8"/>
<path fill-rule="evenodd" clip-rule="evenodd" d="M10 9H7V10V10.8293C5.83481 10.4175 5 9.30622 5 8C5 6.34315 6.34315 5 8 5C9.30622 5 10.4175 5.83481 10.8293 7H10V9Z" fill="#9AA7B0" fill-opacity="0.8"/>
<rect x="14" y="10" width="2" height="6" fill="#40B6E0"/>
<rect x="11" y="8" width="2" height="8" fill="#9AA7B0" fill-opacity="0.8"/>
<rect x="8" y="10" width="2" height="6" fill="#62B543"/>
</svg>
