<svg xmlns="http://www.w3.org/2000/svg" width="16" height="16" viewBox="0 0 16 16">
  <g fill="none" fill-rule="evenodd">
    <path fill="#9AA7B0" d="M6,14.7101213 C3.10851105,13.8495721 1,11.1710206 1,8 C1,4.13400675 4.13400675,1 8,1 C11.8659932,1 15,4.13400675 15,8 C15,9.07359729 14.758309,10.0907446 14.3263688,11 L13.1973068,11 C13.7078171,10.1174799 14,9.09286143 14,8 C14,4.6862915 11.3137085,2 8,2 C4.6862915,2 2,4.6862915 2,8 C2,10.6124377 3.66961525,12.8349158 6,13.6585886 L6,14.7101213 Z"/>
    <path fill="#9AA7B0" d="M6,12.5839563 C4.23409522,11.8123997 3,10.050319 3,8 C3,5.23857625 5.23857625,3 8,3 C10.7614237,3 13,5.23857625 13,8 C13,9.12560592 12.6280552,10.1643395 12.0003662,11 L10.6458244,11 C11.4762451,10.2670555 12,9.19469253 12,8 C12,5.790861 10.209139,4 8,4 C5.790861,4 4,5.790861 4,8 C4,9.48056471 4.80439726,10.7732524 6,11.4648712 L6,12.5839563 Z"/>
    <path fill="#9AA7B0" d="M8,11 C6.34314575,11 5,9.65685425 5,8 C5,6.34314575 6.34314575,5 8,5 C9.65685425,5 11,6.34314575 11,8 C11,9.65685425 9.65685425,11 8,11 Z"/>
    <path fill="#B1BBC2" d="M10.735,14.006 C10.735,14.952 11.07,15.441 11.5,15.441 C11.967,15.441 12.258,14.971 12.258,14.042 C12.258,13.144 11.98,12.56 11.506,12.56 C11.089,12.56 10.735,13.041 10.735,14.006 M13,13.97 C13,15.22 12.474,16 11.474,16 C10.518,16 10.006,15.191 10,14.012 C10,12.803 10.55,12 11.525,12 C12.532,12 13,12.833 13,13.97"/>
    <polygon fill="#B1BBC2" points="14.845 12.683 14.833 12.683 14.125 13.052 14 12.48 14.947 12 15.554 12 15.554 16 14.845 16"/>
    <polygon fill="#B1BBC2" points="7.845 12.683 7.833 12.683 7.125 13.052 7 12.48 7.947 12 8.554 12 8.554 16 7.845 16"/>
  </g>
</svg>
