<svg width="16" height="16" viewBox="0 0 16 16" fill="none" xmlns="http://www.w3.org/2000/svg">
<path fill-rule="evenodd" clip-rule="evenodd" d="M14.9291 9C14.9758 8.6734 15 8.33952 15 8C15 4.13401 11.866 1 8 1C4.13401 1 1 4.13401 1 8C1 11.462 3.51324 14.337 6.81476 14.9001L7.3732 13.9677C4.35406 13.6543 2 11.102 2 8C2 4.68629 4.68629 2 8 2C11.3137 2 14 4.68629 14 8C14 8.34071 13.9716 8.67479 13.917 9H14.9291Z" fill="#9AA7B0" fill-opacity="0.8"/>
<path fill-rule="evenodd" clip-rule="evenodd" d="M12.9 9C12.9656 8.67689 13 8.34247 13 8C13 5.23858 10.7614 3 8 3C5.23858 3 3 5.23858 3 8C3 10.7457 5.21315 12.9745 7.95287 12.9998L8.57632 11.9588C8.38814 11.9859 8.19571 12 8 12C5.79086 12 4 10.2091 4 8C4 5.79086 5.79086 4 8 4C10.2091 4 12 5.79086 12 8C12 8.3453 11.9562 8.68038 11.874 9H12.9Z" fill="#9AA7B0" fill-opacity="0.8"/>
<path fill-rule="evenodd" clip-rule="evenodd" d="M8 11C9.65685 11 11 9.65685 11 8C11 6.34315 9.65685 5 8 5C6.34315 5 5 6.34315 5 8C5 9.65685 6.34315 11 8 11Z" fill="#9AA7B0" fill-opacity="0.8"/>
<path fill-rule="evenodd" clip-rule="evenodd" d="M12.492 10L13.951 11.424L12 13.6547L10.471 11.003L8 15.024L8.97977 16L10.471 13L12.044 15.4226L14.669 12.125L16 13.424V10H12.492Z" fill="#40B6E0"/>
</svg>
