<svg width="13px" height="13px" version="1.1" viewBox="0 0 13 13" xmlns="http://www.w3.org/2000/svg">
 <path d="m6.09333 1.53159a0.386391 0.386394 0 0 1 0.772783 0 0.386391 0.386394 0 0 1-0.772783 0m-4.60947 3.49843a0.386391 0.386394 0 0 1 0.772783 0 0.386391 0.386394 0 0 1-0.772783 0m9.21881 0.018027a0.386392 0.386394 0 0 1 0.772783 0 0.386392 0.386394 0 0 1-0.772783 0m-8.10029 0.529365c0.17778-0.0789449 0.258092-0.287309 0.179147-0.465463l-0.171439-0.387638h0.674196v3.03894h-1.3602a4.75716 4.7572 0 0 1-0.154034-1.81598zm2.82023 0.074718v-0.895744h1.60549c0.082923 0 0.585554 0.095853 0.585554 0.47168 0 0.312049-0.385521 0.42394-0.702541 0.42394zm-2.19191 4.82284a0.386391 0.386394 0 0 1 0.772783 0 0.386391 0.386394 0 0 1-0.772783 0m5.72513 0.01803a0.386391 0.386394 0 0 1 0.772783 0 0.386391 0.386394 0 0 1-0.772783 0m0.119473-0.876228c-0.190336-0.0407778-0.377565 0.0803123-0.418342 0.271023l-0.193942 0.905068a4.75716 4.7572 0 0 1-3.96722-0.019021l-0.193817-0.905068c-0.0407775-0.190462-0.228006-0.311801-0.418218-0.270899l-0.799014 0.171565a4.75716 4.7572 0 0 1-0.41312-0.486971h3.88778c0.04401 0 0.073349-0.00796 0.073349-0.047989v-1.37525c0-0.040032-0.02934-0.047988-0.073349-0.047988h-1.13704v-0.87175h1.22979c0.112262 0 0.600224 0.032075 0.756248 0.655801 0.048859 0.19183 0.156148 0.815804 0.229498 1.01559 0.073101 0.224029 0.370727 0.67159 0.687871 0.67159h2.0073a4.75716 4.7572 0 0 1-0.440596 0.509971zm2.15884-3.63109a4.75716 4.7572 0 0 1 0.01007 0.825874h-0.488087c-0.04886 0-0.0685 0.032075-0.0685 0.07994v0.224153c0 0.527625-0.297502 0.642374-0.558204 0.67159-0.248271 0.0279719-0.523519-0.103934-0.557459-0.255856-0.146451-0.823761-0.390494-0.999677-0.775891-1.30365 0.478265-0.30372 0.975924-0.751778 0.975924-1.35151 0-0.647596-0.443952-1.0555-0.746551-1.25553-0.424558-0.27985-0.894618-0.335919-1.02143-0.335919h-5.04783a4.75716 4.7572 0 0 1 2.66148-1.50206l0.595003 0.624223c0.134516 0.140857 0.3573 0.146079 0.498032 0.0114376l0.665742-0.63678a4.75716 4.7572 0 0 1 3.25673 2.31948l-0.455762 1.02939c-0.07869 0.178154 0.0016 0.386519 0.179271 0.465463zm1.13667 0.016659-0.01554-0.159133 0.469438-0.437864c0.09548-0.089015 0.0598-0.268164-0.06229-0.313666l-0.600095-0.224402-0.046994-0.154906 0.374333-0.519917c0.07633-0.105674 0.0062-0.27438-0.122333-0.295514l-0.632796-0.102939-0.076085-0.142101 0.265924-0.583694c0.05445-0.118852-0.04674-0.270899-0.177531-0.265926l-0.642246 0.022378-0.101446-0.123079 0.14757-0.625591c0.02984-0.127058-0.09908-0.256105-0.226141-0.226267l-0.625462 0.147446-0.123327-0.101447 0.0225-0.64225c0.004975-0.130041-0.147195-0.231612-0.265797-0.177656l-0.583565 0.26605-0.1421-0.0762097-0.103187-0.632926c-0.020886-0.128301-0.189715-0.198419-0.295388-0.122333l-0.520286 0.374335-0.154656-0.0468696-0.2244-0.600229c-0.0455017-0.122333-0.224773-0.157517-0.313539-0.0625342l-0.43786 0.469815-0.159132-0.0155403-0.338155-0.546397c-0.068377-0.110647-0.251502-0.110647-0.319631 0l-0.338154 0.546397-0.159256 0.0155403-0.437985-0.469815c-0.088766-0.0949824-0.268037-0.0597991-0.313539 0.0625342l-0.2244 0.600229-0.15478 0.0468696-0.520161-0.374335c-0.105673-0.076334-0.274626-0.00596748-0.295512 0.122333l-0.103187 0.632926-0.1421 0.0762097-0.583565-0.26605c-0.118603-0.0542046-0.270772 0.0476155-0.2658 0.177657l0.0223779 0.64225-0.123327 0.101447-0.625462-0.147446c-0.127057-0.0295887-0.256102 0.0992094-0.226265 0.226267l0.147321 0.625591-0.101198 0.123079-0.642245-0.022378c-0.129543-0.0037298-0.231611 0.147074-0.177655 0.265926l0.266048 0.583694-0.076209 0.142101-0.632797 0.102939c-0.128549 0.0208862-0.198169 0.18984-0.122333 0.295514l0.374332 0.519917-0.0469936 0.154906-0.600224 0.224402c-0.121835 0.0455021-0.157515 0.224651-0.0622851 0.313666l0.469562 0.437864-0.0155402 0.159133-0.546269 0.338157c-0.110646 0.068377-0.110646 0.251504 0 0.319633l0.546269 0.338157 0.0155402 0.159133-0.469562 0.437988c-0.0952303 0.088766-0.05955 0.267791 0.0622851 0.313541l0.600224 0.224402 0.0469936 0.154906-0.374332 0.520041c-0.0760848 0.105923-0.006091 0.274753 0.122457 0.29539l0.632672 0.102939 0.0762092 0.142349-0.266048 0.583445c-0.054204 0.118603 0.048113 0.271148 0.177655 0.265926l0.641996-0.0225 0.101446 0.123329-0.147321 0.625715c-0.029837 0.126809 0.099208 0.255606 0.226265 0.225769l0.625462-0.147322 0.123327 0.101198-0.022378 0.642375c-0.00497 0.130041 0.147197 0.231737 0.2658 0.177532l0.583565-0.265925 0.1421 0.07621 0.103187 0.632553c0.020886 0.128797 0.189839 0.198418 0.295512 0.122582l0.519913-0.374584 0.154905 0.04711 0.2244 0.599981c0.045501 0.121836 0.224773 0.157765 0.313539 0.06229l0.437985-0.469567 0.159256 0.01591 0.338155 0.546273c0.068128 0.110151 0.251254 0.110399 0.319631 0l0.338155-0.546273 0.159132-0.01591 0.43786 0.469567c0.088766 0.09548 0.268037 0.05955 0.313539-0.06229l0.2244-0.599981 0.154905-0.04711 0.520037 0.374584c0.105673 0.07584 0.274502 6e-3 0.295388-0.122582l0.103187-0.632553 0.1421-0.07621 0.583565 0.265925c0.118603 0.05421 0.270524-0.04724 0.2658-0.177532l-0.02238-0.642375 0.123202-0.101198 0.625462 0.147322c0.127056 0.02984 0.255978-0.09896 0.226141-0.225769l-0.147321-0.625715 0.101198-0.123329 0.642245 0.0225c0.129542 0.0052 0.231984-0.147323 0.177531-0.265926l-0.265923-0.583445 0.076088-0.142349 0.632796-0.102939c0.128797-0.020638 0.198666-0.189468 0.122333-0.29539l-0.374333-0.520041 0.04699-0.154906 0.600101-0.224402c0.122083-0.045751 0.157763-0.224775 0.06229-0.313541l-0.469438-0.437988 0.015544-0.159133 0.546269-0.338157c0.110647-0.068129 0.110771-0.251256 1.24e-4 -0.319633z" fill="#bd9662" stroke-width="1.00221"/>
</svg>
