<svg xmlns="http://www.w3.org/2000/svg" x="0px" y="0px" width="13px" height="13px">
    <path fill="#000000" fill-opacity="1"
          d="M6.079907892514773,1.528210223437847 a0.38554042426654755,0.38554042426654755 0 0 1 0.7710808485330951,0 a0.38554042426654755,0.38554042426654755 0 0 1 -0.7710808485330951,0 M1.4805892597828627,5.018914064770099 a0.38554042426654755,0.38554042426654755 0 0 1 0.7710808485330951,0 a0.38554042426654755,0.38554042426654755 0 0 1 -0.7710808485330951,0 m9.198513217708266,0.017986924555550007 a0.38554042426654755,0.38554042426654755 0 0 1 0.7710808485330951,0 a0.38554042426654755,0.38554042426654755 0 0 1 -0.7710808485330951,0 M2.5966469165158506,5.565096332481042 c0.17738829044438967,-0.07877032477775346 0.25752314053325387,-0.2866743630888003 0.17875281575550034,-0.46443479679985633 l-0.17106185491105833,-0.3867809018221026 h0.6727109783775699 V7.746103970658145 H1.9198423622049494 a4.746687366331865,4.746687366331865 0 0 1 -0.15369516913328587,-1.811965565399439 zm2.8140233347769072,0.0745527010888659 v-0.8937640787775013 h1.6019527152439488 c0.08273985295553002,0 0.5842649286664859,0.09564081953330376 0.5842649286664859,0.47063718457763243 c0,0.3113598664443484 -0.38467208997765895,0.4230028464443138 -0.7009938666442279,0.4230028464443138 zM3.2235842730934343,10.451833614835083 a0.38554042426654755,0.38554042426654755 0 0 1 0.7710808485330951,0 a0.38554042426654755,0.38554042426654755 0 0 1 -0.7710808485330951,0 m5.712523191087122,0.017986924555550007 a0.38554042426654755,0.38554042426654755 0 0 1 0.7710808485330951,0 a0.38554042426654755,0.38554042426654755 0 0 1 -0.7710808485330951,0 m0.11920989308885213,-0.8742885811552853 c-0.18991711375549694,-0.04068766382220968 -0.37673303362210586,0.08013485008886415 -0.41742069744431537,0.2704241071110277 l-0.19351449866660686,0.903067660444165 a4.746687366331865,4.746687366331865 0 0 1 -3.958487927532109,-0.01897930659999415 l-0.19339045091105136,-0.903067660444165 c-0.04068766382220968,-0.1900411615110524 -0.2275035836888186,-0.31111177093323733 -0.4172966496887599,-0.27030005935547213 l-0.7972549249553088,0.17118590266661377 a4.746687366331865,4.746687366331865 0 0 1 -0.41221069171098373,-0.4858950585109607 h3.879221411732133 c0.04391290546665311,0 0.07318817577775519,-0.007939056355553111 0.07318817577775519,-0.04788243364442968 V7.841868837947006 c0,-0.039943377288876564 -0.029275270311102077,-0.04788243364442968 -0.07318817577775519,-0.04788243364442968 h-1.1345407723107603 v-0.8698228619552866 h1.2270803979551759 c0.11201512326663213,0 0.5989025638220374,0.032004320933323435 0.7545824970442115,0.6543519105553536 c0.048750767933318284,0.19140568682216316 0.15580398097772968,0.8140013719553039 0.22899215675548487,1.0133461151330196 c0.07294008026664416,0.22353405551104213 0.36991040706655237,0.6701059755109039 0.6863562314886769,0.6701059755109039 h2.00287506119938 a4.746687366331865,4.746687366331865 0 0 1 -0.4396252456887529,0.5088438932887317 zm2.1540892752215552,-3.623062796509991 a4.746687366331865,4.746687366331865 0 0 1 0.010047868199996902,0.8240492401553007 h-0.4870114883109607 c-0.048750767933318284,0 -0.06835031331109001,0.032004320933323435 -0.06835031331109001,0.0797627068221976 v0.2236581032665975 c0,0.526458674577615 -0.2968462790443529,0.6409547529553573 -0.5569744224442724,0.6701059755109039 c-0.24772336784436788,0.0279107449999914 -0.5223650986442828,-0.10370392364441246 -0.5562301359109393,-0.25529028093325445 c-0.1461282560443993,-0.8219404283108568 -0.38963400019987965,-0.9974680024219138 -0.7741820424219829,-1.300764764755153 c0.4772117156220746,-0.30304866682212844 0.97377488111081,-0.7501167778442125 0.97377488111081,-1.3485231506440274 c0,-0.6461647586886892 -0.4429745350887519,-1.053165444666341 -0.7449067721108809,-1.252758283355168 c-0.42362308522209124,-0.27923149775546935 -0.8926476489775018,-0.3351770355110075 -1.0191763596441292,-0.3351770355110075 H2.9496868288268523 a4.746687366331865,4.746687366331865 0 0 1 2.6556143509325123,-1.4987449826217585 l0.5936925580887055,0.6228437806442519 c0.1342196715110697,0.14054610704440107 0.35651324946655655,0.14575611277773276 0.49693530875540187,0.011412393511107594 l0.6642757309997943,-0.6353726039553589 a4.746687366331865,4.746687366331865 0 0 1 3.2495550045323283,2.3143589753992844 l-0.4547590718665262,1.027115415999682 c-0.07852222926664243,0.17776043371105618 0.0016126208222217247,0.3856644720221029 0.1788768635110558,0.46443479679985633 zm1.1341686290440935,0.01662239924443932 l-0.015505969444439651,-0.15878112711106207 l0.46840432497763307,-0.4368961950665315 c0.09526867626663726,-0.08881819297775036 0.059666970422203806,-0.2675710087332506 -0.06214792553331412,-0.31297248726657007 l-0.5987785160664819,-0.22390619877770876 l-0.046890051599985556,-0.15456350342217443 l0.37350779197766243,-0.518767713733173 c0.07616532191108762,-0.10544059222218968 0.0062023877777758665,-0.27377339651102656 -0.12206299146662904,-0.29486151495546453 l-0.6314030757775824,-0.1027115415999683 l-0.0759172263999766,-0.14178658459995622 l0.2653381491332515,-0.5824042123331534 c0.05433291693331657,-0.11858965431107454 -0.0466419560888745,-0.27030005935547213 -0.17714019493327857,-0.2653381491332515 l-0.6408307051998021,0.02232859599999311 l-0.1012229685333021,-0.12280727799996209 l0.14724468584439895,-0.6242083059553626 c0.02977146133332415,-0.12677680617773862 -0.09886606117774725,-0.2555383764443656 -0.22564286735548586,-0.2257669151110414 l-0.624084258199807,0.14712063808884346 l-0.1230553735110731,-0.1012229685333021 l0.022452643755548632,-0.6408307051998021 c0.00496191022222069,-0.12975395231107106 -0.14687254257773244,-0.2311009685999286 -0.2652141013776959,-0.17726424268883412 l-0.5822801645775978,0.2654621968888069 l-0.14178658459995622,-0.07604127415553212 l-0.10295963711107932,-0.6315271235331382 c-0.020840022933326905,-0.12801728373329377 -0.18929687497771927,-0.19798021786660552 -0.29473746719990895,-0.12206299146662904 l-0.5191398569998394,0.37350779197766243 l-0.1543154079110635,-0.04676600384443001 l-0.22390619877770876,-0.5989025638220374 c-0.04540147853331935,-0.12206299146662904 -0.22427834204437527,-0.15716850628884044 -0.31284843951101443,-0.062396021044425196 l-0.4368961950665315,0.4687764682442994 l-0.15878112711106207,-0.015505969444439651 l-0.33740989511100683,-0.5451898856664983 c-0.06822626555553446,-0.11040250244441036 -0.25094860948881137,-0.11040250244441036 -0.3189267795332348,0 l-0.33740989511100683,0.5451898856664983 l-0.1589051748666177,0.015505969444439651 l-0.4370202428220873,-0.4687764682442994 c-0.08857009746663934,-0.0947724852444152 -0.26744696097769505,-0.059666970422203806 -0.31284843951101443,0.062396021044425196 l-0.22390619877770876,0.5989025638220374 l-0.15443945566661896,0.04676600384443001 l-0.5190158092442841,-0.37350779197766243 c-0.10544059222218968,-0.07616532191108762 -0.2740214920221376,-0.0059542922666648325 -0.29486151495546453,0.12206299146662904 l-0.10295963711107932,0.6315271235331382 l-0.14178658459995622,0.07604127415553212 l-0.5822801645775978,-0.2654621968888069 c-0.11834155879996339,-0.054084821422205526 -0.27017601159991683,0.047510290377763116 -0.2652141013776959,0.17726424268883412 l0.02232859599999311,0.6408307051998021 l-0.1230553735110731,0.1012229685333021 l-0.624084258199807,-0.14712063808884346 c-0.12677680617773862,-0.029523365822213106 -0.2555383764443656,0.09899010893330273 -0.2257669151110414,0.2257669151110414 l0.14699659033328802,0.6242083059553626 l-0.10097487302219106,0.12280727799996209 l-0.6408307051998021,-0.02232859599999311 c-0.12925776128884894,-0.0037214326666655194 -0.2311009685999286,0.14674849482217692 -0.17726424268883412,0.2653381491332515 l0.2654621968888069,0.5824042123331534 l-0.07604127415553212,0.14178658459995622 l-0.6314030757775824,0.1027115415999683 c-0.12826537924440476,0.020840022933326905 -0.1977321223554945,0.1894209227332748 -0.12206299146662904,0.29486151495546453 l0.37350779197766243,0.518767713733173 l-0.046890051599985556,0.15456350342217443 l-0.5989025638220374,0.22390619877770876 c-0.12156680044440694,0.04540147853331935 -0.15716850628884044,0.2241542942888196 -0.06214792553331412,0.31297248726657007 l0.4685283727331883,0.4368961950665315 l-0.015505969444439651,0.15878112711106207 l-0.5450658379109425,0.33740989511100683 c-0.11040250244441036,0.06822626555553446 -0.11040250244441036,0.25094860948881137 0,0.3189267795332348 l0.5450658379109425,0.33740989511100683 l0.015505969444439651,0.15878112711106207 l-0.4685283727331883,0.4370202428220873 c-0.09502058075552625,0.08857009746663934 -0.059418874911092746,0.2671988654665842 0.06214792553331412,0.31284843951101443 l0.5989025638220374,0.22390619877770876 l0.046890051599985556,0.15456350342217443 l-0.37350779197766243,0.5188917614887284 c-0.0759172263999766,0.10568868773330073 -0.006078340022220348,0.2741455397776932 0.1221870392221845,0.29473746719990895 l0.6312790280220272,0.1027115415999683 l0.07604127415553212,0.1420346801110673 l-0.2654621968888069,0.5821561168220423 c-0.054084821422205526,0.11834155879996339 0.0480064813999852,0.27054815486658307 0.17726424268883412,0.2653381491332515 l0.6405826096886906,-0.022452643755548632 l0.1012229685333021,0.1230553735110731 l-0.14699659033328802,0.624332353710918 c-0.02977146133332415,0.12652871066662758 0.09899010893330273,0.2550421854221435 0.2257669151110414,0.2252707240888192 l0.624084258199807,-0.14699659033328802 l0.1230553735110731,0.10097487302219106 l-0.02232859599999311,0.6409547529553573 c-0.00496191022222069,0.12975395231107106 0.14687254257773244,0.23122501635548418 0.2652141013776959,0.17714019493327857 l0.5822801645775978,-0.2653381491332515 l0.14178658459995622,0.07604127415553212 l0.10295963711107932,0.6311549802664714 c0.020840022933326905,0.12851347475551586 0.1894209227332748,0.19798021786660552 0.29486151495546453,0.12231108697773997 l0.518767713733173,-0.3737558874887735 l0.15456350342217443,0.04701409935554107 l0.22390619877770876,0.5986544683109262 c0.04540147853331935,0.12156680044440694 0.22427834204437527,0.15741660179995132 0.31284843951101443,0.06214792553331412 l0.4370202428220873,-0.4685283727331883 l0.1589051748666177,0.015878112711106205 l0.33740989511100683,0.5450658379109425 c0.06797817004442348,0.1099063114221883 0.2507005139777004,0.11015440693329927 0.3189267795332348,0 l0.33740989511100683,-0.5450658379109425 l0.15878112711106207,-0.015878112711106205 l0.4368961950665315,0.4685283727331883 c0.08857009746663934,0.09526867626663726 0.26744696097769505,0.059418874911092746 0.31284843951101443,-0.06214792553331412 l0.22390619877770876,-0.5986544683109262 l0.15456350342217443,-0.04701409935554107 l0.5188917614887284,0.3737558874887735 c0.10544059222218968,0.07566913088886557 0.2738974442665821,0.0059542922666648325 0.29473746719990895,-0.12231108697773997 l0.10295963711107932,-0.6311549802664714 l0.14178658459995622,-0.07604127415553212 l0.5822801645775978,0.2653381491332515 c0.11834155879996339,0.054084821422205526 0.2699279160888055,-0.047138147111096595 0.2652141013776959,-0.17714019493327857 l-0.02232859599999311,-0.6409547529553573 l0.12293132575551766,-0.10097487302219106 l0.624084258199807,0.14699659033328802 c0.12677680617773862,0.02977146133332415 0.25541432868881,-0.09874201342219174 0.22564286735548586,-0.2252707240888192 l-0.14699659033328802,-0.624332353710918 l0.10097487302219106,-0.1230553735110731 l0.6408307051998021,0.022452643755548632 c0.12925776128884894,0.005210005733331727 0.2314731118665952,-0.14699659033328802 0.17714019493327857,-0.2653381491332515 l-0.2653381491332515,-0.5821561168220423 l0.0759172263999766,-0.1420346801110673 l0.6314030757775824,-0.1027115415999683 c0.12851347475551586,-0.020591927422215876 0.19822831337771654,-0.18904877946660825 0.12206299146662904,-0.29473746719990895 l-0.37350779197766243,-0.5188917614887284 l0.046890051599985556,-0.15456350342217443 l0.5987785160664819,-0.22390619877770876 c0.12181489595551795,-0.045649574044430374 0.15741660179995132,-0.22427834204437527 0.06214792553331412,-0.31284843951101443 l-0.46840432497763307,-0.4370202428220873 l0.015505969444439651,-0.15878112711106207 l0.5450658379109425,-0.33740989511100683 c0.11040250244441036,-0.06797817004442348 0.11052655019996585,-0.2507005139777004 0.00012404775555551733,-0.3189267795332348 z"/>
</svg>
