<svg width="16" height="16" viewBox="0 0 16 16" fill="none" xmlns="http://www.w3.org/2000/svg">
<path fill-rule="evenodd" clip-rule="evenodd" d="M8 3C9.10457 3 10 2.10457 10 1H15V15H10.1238C10.9861 13.897 11.5 12.5085 11.5 11C11.5 7.41015 8.58985 4.5 5 4.5C3.49147 4.5 2.10297 5.01389 1 5.87616V1H6C6 2.10457 6.89543 3 8 3Z" fill="#6C62F3"/>
<path d="M4.68716 7.17815C4.68716 7.09932 4.71848 7.02372 4.77422 6.96798C4.82996 6.91224 4.90556 6.88092 4.98439 6.88092C5.06321 6.88092 5.13881 6.91224 5.19455 6.96798C5.25029 7.02372 5.28161 7.09932 5.28161 7.17815C5.28161 7.25698 5.25029 7.33258 5.19455 7.38832C5.13881 7.44406 5.06321 7.47537 4.98439 7.47537C4.90556 7.47537 4.82996 7.44406 4.77422 7.38832C4.71848 7.33258 4.68716 7.25698 4.68716 7.17815V7.17815ZM1.14142 9.86925C1.14142 9.79042 1.17273 9.71482 1.22847 9.65908C1.28421 9.60334 1.35981 9.57203 1.43864 9.57203C1.51747 9.57203 1.59307 9.60334 1.64881 9.65908C1.70455 9.71482 1.73587 9.79042 1.73587 9.86925C1.73587 9.94808 1.70455 10.0237 1.64881 10.0794C1.59307 10.1352 1.51747 10.1665 1.43864 10.1665C1.35981 10.1665 1.28421 10.1352 1.22847 10.0794C1.17273 10.0237 1.14142 9.94808 1.14142 9.86925V9.86925ZM8.23279 9.88312C8.23291 9.80437 8.26427 9.72888 8.32 9.67323C8.37573 9.61758 8.45126 9.58633 8.53002 9.58633C8.60877 9.58633 8.68431 9.61758 8.74003 9.67323C8.79576 9.72888 8.82713 9.80437 8.82724 9.88312C8.82713 9.96188 8.79576 10.0374 8.74003 10.093C8.68431 10.1487 8.60877 10.1799 8.53002 10.1799C8.45126 10.1799 8.37573 10.1487 8.32 10.093C8.26427 10.0374 8.23291 9.96188 8.23279 9.88312V9.88312ZM2.0018 10.2903C2.13855 10.2296 2.20033 10.0693 2.1396 9.93228L2.00773 9.63409H2.52634V11.9717H1.48003C1.35088 11.5181 1.31065 11.0438 1.36155 10.5748L2.0018 10.2903ZM4.17121 10.3478V9.65877H5.4062C5.46999 9.65877 5.85662 9.7325 5.85662 10.0216C5.85662 10.2616 5.56007 10.3477 5.31621 10.3477L4.17121 10.3478ZM2.48512 14.0577C2.48512 13.9789 2.51644 13.9033 2.57218 13.8475C2.62792 13.7918 2.70352 13.7605 2.78235 13.7605C2.86118 13.7605 2.93678 13.7918 2.99252 13.8475C3.04826 13.9033 3.07957 13.9789 3.07957 14.0577C3.07957 14.1365 3.04826 14.2121 2.99252 14.2679C2.93678 14.3236 2.86118 14.3549 2.78235 14.3549C2.70352 14.3549 2.62792 14.3236 2.57218 14.2679C2.51644 14.2121 2.48512 14.1365 2.48512 14.0577V14.0577ZM6.88907 14.0716C6.88907 13.9927 6.92038 13.9171 6.97612 13.8614C7.03186 13.8056 7.10746 13.7743 7.18629 13.7743C7.26512 13.7743 7.34072 13.8056 7.39646 13.8614C7.4522 13.9171 7.48351 13.9927 7.48351 14.0716C7.48351 14.1504 7.4522 14.226 7.39646 14.2817C7.34072 14.3375 7.26512 14.3688 7.18629 14.3688C7.10746 14.3688 7.03186 14.3375 6.97612 14.2817C6.92038 14.226 6.88907 14.1504 6.88907 14.0716V14.0716ZM6.98097 13.3975C6.83456 13.3662 6.69054 13.4593 6.65917 13.606L6.50998 14.3022C6.03022 14.5195 5.50921 14.6307 4.98253 14.6282C4.45585 14.6257 3.93592 14.5095 3.45827 14.2876L3.30918 13.5914C3.27781 13.4449 3.13379 13.3515 2.98747 13.383L2.37285 13.515C2.25865 13.3974 2.15248 13.2722 2.05506 13.1404H5.04566C5.07952 13.1404 5.10209 13.1343 5.10209 13.1035V12.0456C5.10209 12.0148 5.07952 12.0087 5.04566 12.0087H4.17101V11.3381H5.11701C5.20336 11.3381 5.57872 11.3627 5.69874 11.8425C5.73632 11.9901 5.81885 12.4701 5.87527 12.6238C5.9315 12.7961 6.16045 13.1404 6.4044 13.1404H7.94848C7.84492 13.279 7.73166 13.4101 7.60956 13.5327L6.98097 13.3975ZM8.64162 10.6044C8.66262 10.8155 8.66521 11.0281 8.64937 11.2397H8.27392C8.23634 11.2397 8.22122 11.2643 8.22122 11.3012V11.4736C8.22122 11.8795 7.99238 11.9677 7.79184 11.9902C7.60086 12.0117 7.38913 11.9102 7.36302 11.7934C7.25037 11.1597 7.06264 11.0244 6.76618 10.7906C7.13408 10.5569 7.51689 10.2123 7.51689 9.75095C7.51689 9.2528 7.17539 8.93903 6.94262 8.78516C6.61604 8.56989 6.25446 8.52676 6.15691 8.52676H2.27397C2.81075 7.92693 3.53032 7.52082 4.32126 7.37133L4.77895 7.8515C4.88242 7.95985 5.0538 7.96387 5.16205 7.8603L5.67416 7.37046C6.19619 7.46825 6.69069 7.6785 7.12329 7.9866C7.5559 8.29471 7.91626 8.6933 8.17934 9.15468L7.82875 9.94652C7.76821 10.0836 7.83 10.2438 7.96665 10.3046L8.64162 10.6044ZM9.51598 10.6172L9.50403 10.4948L9.86513 10.158C9.93858 10.0895 9.91113 9.95169 9.81722 9.91669L9.35561 9.74407L9.31946 9.62491L9.60741 9.22497C9.66612 9.14369 9.61216 9.01391 9.5133 8.99766L9.02654 8.91847L8.96801 8.80916L9.17257 8.36017C9.21446 8.26874 9.13661 8.15178 9.03601 8.15561L8.54197 8.17282L8.46393 8.07815L8.57745 7.59692C8.6004 7.49919 8.50123 7.39992 8.4035 7.42287L7.92237 7.53629L7.82751 7.45826L7.84481 6.96422C7.84869 6.86419 7.73158 6.78605 7.64035 6.82756L7.19146 7.03221L7.08215 6.97359L7.00277 6.48672C6.98671 6.38803 6.85684 6.33409 6.77555 6.39262L6.37533 6.68057L6.25637 6.64452L6.08375 6.1828C6.04875 6.0887 5.91085 6.06164 5.84257 6.1347L5.50575 6.49609L5.38334 6.48414L5.12323 6.06383C5.07063 5.97872 4.92976 5.97872 4.87736 6.06383L4.61724 6.48414L4.49473 6.49609L4.15782 6.1347C4.08954 6.06164 3.95164 6.0887 3.91664 6.1828L3.74402 6.64452L3.62496 6.68057L3.22484 6.39262C3.14355 6.3339 3.01359 6.38803 2.99752 6.48672L2.91815 6.97359L2.80884 7.03221L2.35994 6.82756C2.26871 6.78586 2.15166 6.86419 2.15548 6.96422L2.17269 7.45826L2.07783 7.53629L1.5967 7.42287C1.49897 7.40011 1.3997 7.49919 1.42265 7.59692L1.53598 8.07815L1.45813 8.17282L0.964098 8.15561C0.864449 8.15274 0.785936 8.26874 0.82744 8.36017L1.03209 8.80916L0.97347 8.91847L0.486704 8.99765C0.38782 9.01372 0.334266 9.14369 0.392602 9.22497L0.680549 9.62491L0.6444 9.74407L0.18269 9.91669C0.0889703 9.95169 0.0615241 10.0895 0.134778 10.158L0.49598 10.4948L0.484026 10.6172L0.0638191 10.8773C-0.0212934 10.9299 -0.0212934 11.0708 0.0638191 11.1232L0.484026 11.3833L0.49598 11.5057L0.134778 11.8426C0.0615244 11.9109 0.0889705 12.0486 0.18269 12.0838L0.6444 12.2564L0.680549 12.3756L0.392602 12.7756C0.334075 12.8571 0.387916 12.987 0.486799 13.0028L0.97347 13.082L1.03209 13.1915L0.82744 13.6403C0.785745 13.7316 0.86445 13.8489 0.964098 13.8449L1.45794 13.8276L1.53598 13.9225L1.42265 14.4038C1.3997 14.5013 1.49897 14.6004 1.5967 14.5774L2.07783 14.4641L2.17269 14.542L2.15548 15.0361C2.15166 15.1361 2.26871 15.2144 2.35994 15.1727L2.80884 14.9681L2.91815 15.0267L2.99752 15.5133C3.01359 15.6124 3.14355 15.6659 3.22484 15.6076L3.62477 15.3195L3.74393 15.3557L3.91654 15.8172C3.95154 15.9109 4.08944 15.9386 4.15773 15.8651L4.49464 15.5039L4.61714 15.5162L4.87726 15.9364C4.92967 16.0211 5.07053 16.0213 5.12313 15.9364L5.38325 15.5162L5.50566 15.5039L5.84247 15.8651C5.91075 15.9386 6.04865 15.9109 6.08366 15.8172L6.25627 15.3557L6.37543 15.3195L6.77546 15.6076C6.85675 15.6659 6.98661 15.6122 7.00268 15.5133L7.08205 15.0267L7.19136 14.9681L7.64026 15.1727C7.73149 15.2144 7.84835 15.1363 7.84472 15.0361L7.82751 14.542L7.92228 14.4641L8.4034 14.5774C8.50114 14.6004 8.60031 14.5013 8.57736 14.4038L8.46403 13.9225L8.54188 13.8276L9.03591 13.8449C9.13556 13.8489 9.21436 13.7316 9.17247 13.6403L8.96792 13.1915L9.02645 13.082L9.51322 13.0028C9.61229 12.987 9.66603 12.8571 9.60732 12.7756L9.31937 12.3756L9.35552 12.2564L9.81713 12.0838C9.91104 12.0486 9.93849 11.9109 9.86505 11.8426L9.50394 11.5057L9.5159 11.3833L9.9361 11.1232C10.0212 11.0708 10.0213 10.9299 9.9362 10.8773L9.51598 10.6172Z" fill="#9AA7B0"/>
</svg>
