<svg width="16" height="16" viewBox="0 0 16 16" fill="none" xmlns="http://www.w3.org/2000/svg">
<path d="M10 11.4999C9.39331 11.0443 9 10.3188 9 9.5V8C8.44772 8 8 8.44772 8 9V13C8 13.5523 8.44772 14 9 14H10V11.4999Z" fill="#45322B"/>
<rect x="1.5" y="1.5" width="5" height="5" rx="0.5" fill="#45322B" stroke="#C77D55"/>
<rect x="8.5" y="1.5" width="5" height="5" rx="0.5" fill="#45322B" stroke="#C77D55"/>
<rect x="1.5" y="8.5" width="5" height="5" rx="0.5" fill="#45322B" stroke="#C77D55"/>
<path fill-rule="evenodd" clip-rule="evenodd" d="M12 10.9146C12.5826 10.7087 13 10.1531 13 9.5C13 8.67157 12.3284 8 11.5 8C10.6716 8 10 8.67157 10 9.5C10 10.1531 10.4174 10.7087 11 10.9146V15.5C11 15.7761 11.2239 16 11.5 16C11.7761 16 12 15.7761 12 15.5V15H13.5C14.3284 15 15 14.3284 15 13.5V12.9146C15.5826 12.7087 16 12.1531 16 11.5C16 10.6716 15.3284 10 14.5 10C13.6716 10 13 10.6716 13 11.5C13 12.1531 13.4174 12.7087 14 12.9146V13.5C14 13.7761 13.7761 14 13.5 14H12V10.9146ZM11.5 10C11.7761 10 12 9.77614 12 9.5C12 9.22386 11.7761 9 11.5 9C11.2239 9 11 9.22386 11 9.5C11 9.77614 11.2239 10 11.5 10ZM14.5 12C14.7761 12 15 11.7761 15 11.5C15 11.2239 14.7761 11 14.5 11C14.2239 11 14 11.2239 14 11.5C14 11.7761 14.2239 12 14.5 12Z" fill="#CED0D6"/>
<path d="M9 13H10V14H9C8.44772 14 8 13.5523 8 13V9C8 8.44772 8.44772 8 9 8L9 13Z" fill="#C77D55"/>
</svg>
