<svg width="16" height="16" viewBox="0 0 16 16" fill="none" xmlns="http://www.w3.org/2000/svg">
<path fill-rule="evenodd" clip-rule="evenodd" d="M12.1464 9.14645C12.3417 8.95118 12.6583 8.95118 12.8536 9.14645L15.8536 12.1464C16.0488 12.3417 16.0488 12.6583 15.8536 12.8536L12.8536 15.8536C12.6583 16.0488 12.3417 16.0488 12.1464 15.8536C11.9512 15.6583 11.9512 15.3417 12.1464 15.1464L14.7929 12.5L12.1464 9.85355C11.9512 9.65829 11.9512 9.34171 12.1464 9.14645Z" fill="#CED0D6"/>
<path fill-rule="evenodd" clip-rule="evenodd" d="M14.7979 9.67661C14.93 9.13945 15 8.5779 15 8C15 4.13401 11.866 1 8 1C4.13401 1 1 4.13401 1 8C1 11.866 4.13401 15 8 15C9.76922 15 11.3851 14.3436 12.6175 13.2611L13.2611 12.6175C13.2978 12.5758 13.334 12.5336 13.3697 12.491L12.6593 11.7806C11.5592 13.1348 9.88065 14 8 14C5.7792 14 3.84021 12.7935 2.80276 11.0001H8.06395C8.11134 11.0001 8.14294 10.9837 8.14294 10.9402V9.45061C8.14294 9.40726 8.11134 9.39864 8.06395 9.39864H6.83944V8.45438H8.16383C8.28473 8.45438 8.81022 8.48913 8.97825 9.16472C8.99704 9.23893 9.02386 9.37284 9.05417 9.5242C9.10873 9.79664 9.17463 10.1257 9.2254 10.2648C9.30412 10.5074 9.62465 11.0001 9.96618 11.0001L11.8749 10.9962L11.4393 10.5607C10.9329 10.0542 10.8643 9.27569 11.2336 8.69555C11.1011 8.1856 10.8558 7.98701 10.5005 7.7055L10.4727 7.68344C10.9877 7.35446 11.5237 6.86914 11.5237 6.21953C11.5237 5.51808 11.0456 5.07626 10.7197 4.85958C10.2625 4.55646 9.75626 4.49573 9.6197 4.49573L3.12906 4.49581C4.2185 2.98411 5.99433 2 8 2C11.3137 2 14 4.68629 14 8C14 8.27911 13.9809 8.55376 13.9441 8.82274L14.7979 9.67661ZM2 8C2 7.31926 2.11337 6.66499 2.32225 6.05506L4.5369 6.05498V9.34665H2.15172C2.05244 8.91376 2 8.463 2 8ZM6.83972 7.05996V6.08973H8.5687C8.658 6.08973 9.1993 6.19355 9.1993 6.60064C9.1993 6.93864 8.78412 7.05983 8.44271 7.05983L6.83972 7.05996Z" fill="#C77D55"/>
</svg>
