<svg width="16" height="16" viewBox="0 0 16 16" fill="none" xmlns="http://www.w3.org/2000/svg">
<path d="M11.7071 9C11.4419 9 11.1875 9.10536 11 9.29289L8.64645 11.6464C8.55268 11.7402 8.5 11.8674 8.5 12C8.5 12.1326 8.55268 12.2598 8.64645 12.3536L9.64645 13.3536C9.84171 13.5488 10.1583 13.5488 10.3536 13.3536L11.5 12.2071L15.1464 15.8536C15.3417 16.0488 15.6583 16.0488 15.8536 15.8536C16.0488 15.6583 16.0488 15.3417 15.8536 15.1464L12.2071 11.5L13.8536 9.85355C13.9966 9.71055 14.0393 9.4955 13.9619 9.30866C13.8845 9.12182 13.7022 9 13.5 9H11.7071Z" fill="#CED0D6"/>
<path fill-rule="evenodd" clip-rule="evenodd" d="M14.9247 9.03056C14.9743 8.69423 15 8.35012 15 8C15 4.13401 11.866 1 8 1C4.13401 1 1 4.13401 1 8C1 11.866 4.13401 15 8 15C8.5779 15 9.13945 14.93 9.67661 14.7979L8.82274 13.9441C8.55376 13.9809 8.27911 14 8 14C5.77919 14 3.84019 12.7934 2.80275 11.0001H7.88188C7.90042 10.9794 7.91957 10.9591 7.93934 10.9393L8.14294 10.7357V9.45058C8.14294 9.40723 8.11134 9.39861 8.06395 9.39861H6.83944V8.45435H8.16383C8.28473 8.45435 8.81022 8.4891 8.97825 9.16469C8.99704 9.2389 9.02386 9.37281 9.05417 9.52417C9.07027 9.60459 9.08737 9.68996 9.10477 9.77391L10.2929 8.58579C10.488 8.39064 10.7194 8.23999 10.9711 8.14035C10.8452 7.97978 10.6882 7.8542 10.5005 7.70547L10.4727 7.68341C10.9877 7.35443 11.5237 6.86911 11.5237 6.2195C11.5237 5.51805 11.0456 5.07623 10.7197 4.85955C10.2625 4.55643 9.75626 4.4957 9.6197 4.4957L3.12908 4.49578C4.21853 2.9841 5.99434 2 8 2C11.3137 2 14 4.68629 14 8C14 8.02855 13.9998 8.05706 13.9994 8.08551C14.3935 8.22474 14.72 8.52559 14.8858 8.92597C14.9001 8.96054 14.9131 8.99542 14.9247 9.03056ZM2 8C2 7.31925 2.11337 6.66497 2.32226 6.05503L4.5369 6.05495V9.34662H2.15171C2.05244 8.91374 2 8.46299 2 8ZM6.83972 7.05993V6.0897H8.5687C8.658 6.0897 9.1993 6.19352 9.1993 6.60061C9.1993 6.93861 8.78412 7.0598 8.44271 7.0598L6.83972 7.05993Z" fill="#C77D55"/>
</svg>
