<svg width="16" height="16" viewBox="0 0 16 16" fill="none" xmlns="http://www.w3.org/2000/svg">
<path fill-rule="evenodd" clip-rule="evenodd" d="M15 8C15 8.43182 14.9609 8.85451 14.886 9.26472L13.9889 8.3676C13.9963 8.24601 14 8.12344 14 8C14 4.68629 11.3137 2 8 2C5.99434 2 4.21853 2.9841 3.12908 4.49578L9.6197 4.4957C9.75626 4.4957 10.2625 4.55643 10.7197 4.85955C11.0456 5.07623 11.5237 5.51805 11.5237 6.2195C11.5237 6.86911 10.9877 7.35443 10.4727 7.68341L10.5005 7.70547C10.5553 7.74885 10.6074 7.79027 10.6569 7.83115C10.3773 8.39254 10.4714 9.09272 10.9393 9.56066L12.3744 10.9957H12.1253L10.0112 11H9.95811C9.61961 10.9923 9.3035 10.5055 9.2254 10.2647C9.17463 10.1256 9.10873 9.7966 9.05417 9.52417C9.02387 9.37285 8.99704 9.23888 8.97825 9.16469C8.81022 8.4891 8.28473 8.45435 8.16383 8.45435H6.83944V9.39861H8.06395C8.11134 9.39861 8.14294 9.40723 8.14294 9.45058V10.9402C8.14294 10.9837 8.11134 11.0001 8.06395 11.0001H2.80275C3.84019 12.7934 5.77919 14 8 14C8.96474 14 9.8763 13.7723 10.6839 13.3677L11.1262 14.2525L11.1016 14.2771C10.1668 14.7399 9.11376 15 8 15C4.13401 15 1 11.866 1 8C1 4.13401 4.13401 1 8 1C11.866 1 15 4.13401 15 8ZM2.32226 6.05503C2.11337 6.66497 2 7.31925 2 8C2 8.46299 2.05244 8.91374 2.15171 9.34662H4.5369V6.05495L2.32226 6.05503ZM6.83972 6.0897V7.05993L8.44271 7.0598C8.78412 7.0598 9.1993 6.93861 9.1993 6.60061C9.1993 6.19352 8.658 6.0897 8.5687 6.0897H6.83972Z" fill="#C77D55"/>
<path fill-rule="evenodd" clip-rule="evenodd" d="M11.6464 8.14645C11.8417 7.95118 12.1583 7.95118 12.3536 8.14645L15.8536 11.6464C16.0488 11.8417 16.0488 12.1583 15.8536 12.3536L12.3536 15.8536C12.1583 16.0488 11.8417 16.0488 11.6464 15.8536C11.4512 15.6583 11.4512 15.3417 11.6464 15.1464L14.7929 12L11.6464 8.85355C11.4512 8.65829 11.4512 8.34171 11.6464 8.14645Z" fill="#F2FCF3"/>
</svg>
