<svg width="20" height="20" viewBox="0 0 20 20" fill="none" xmlns="http://www.w3.org/2000/svg">
<path fill-rule="evenodd" clip-rule="evenodd" d="M19 10C19 14.9706 14.9706 19 10 19C5.02944 19 1 14.9706 1 10C1 5.02944 5.02944 1 10 1C14.9706 1 19 5.02944 19 10ZM16.3455 13.9999C15.0169 16.1031 12.6716 17.5 10 17.5C7.32841 17.5 4.98308 16.1031 3.65452 13.9999H10.0826C10.1435 13.9999 10.1841 13.9788 10.1841 13.9229V12.0668C10.1841 12.011 10.1435 11.9999 10.0826 11.9999H8.5082V10.584H10.211C10.3664 10.584 11.0421 10.6287 11.2581 11.4973C11.2697 11.543 11.2836 11.6527 11.2993 11.7759C11.3163 11.9099 11.3354 12.06 11.3557 12.1614C11.4217 12.4907 11.5005 12.7059 11.5639 12.8791C11.568 12.8901 11.572 12.901 11.5759 12.9117C11.6771 13.2237 12.0892 14.0056 12.5283 14.0056L15.3043 13.9999H16.3455ZM17.2304 11.9999H15.0257C14.6812 11.9999 14.2918 11.5949 14.2141 11.1551C14.0629 10.2996 13.7283 10.0276 13.2153 9.62117L13.1795 9.59281C13.8417 9.16984 14.5308 8.54586 14.5308 7.71064C14.5308 6.80877 13.9161 6.24072 13.4971 5.96214C12.9093 5.57241 12.2584 5.49432 12.0828 5.49432L4.00364 5.49443C5.3722 3.67593 7.54877 2.5 10 2.5C14.1421 2.5 17.5 5.85786 17.5 10C17.5 10.6926 17.4061 11.3632 17.2304 11.9999ZM2.92706 7.49917C2.65049 8.28135 2.5 9.1231 2.5 10C2.5 10.6926 2.59388 11.3632 2.7696 11.9999H5.54779V7.49908L2.92706 7.49917ZM8.50856 7.54375V8.7912L10.5695 8.79103C11.0085 8.79103 11.5423 8.63521 11.5423 8.20063C11.5423 7.67724 10.8463 7.54375 10.7315 7.54375H8.50856Z" fill="#CED0D6"/>
</svg>
