<svg width="16" height="16" viewBox="0 0 16 16" fill="none" xmlns="http://www.w3.org/2000/svg">
<path fill-rule="evenodd" clip-rule="evenodd" d="M12 11.5C12 11.2239 12.2239 11 12.5 11H15.5C15.7761 11 16 11.2239 16 11.5V14.5C16 14.7761 15.7761 15 15.5 15C15.2239 15 15 14.7761 15 14.5V12.7071L11.8536 15.8536C11.6583 16.0488 11.3417 16.0488 11.1464 15.8536L10 14.7071L8.85355 15.8536C8.65829 16.0488 8.34171 16.0488 8.14645 15.8536C7.95118 15.6583 7.95118 15.3417 8.14645 15.1464L9.64645 13.6464C9.84171 13.4512 10.1583 13.4512 10.3536 13.6464L11.5 14.7929L14.2929 12H12.5C12.2239 12 12 11.7761 12 11.5Z" fill="#3574F0"/>
<path fill-rule="evenodd" clip-rule="evenodd" d="M13.6914 0.0380748C13.8782 0.115465 14 0.297783 14 0.500015V2.00001H15.5C15.7023 2.00001 15.8846 2.12184 15.962 2.30867C16.0394 2.49551 15.9966 2.71057 15.8536 2.85357L13.8536 4.85357C13.7598 4.94734 13.6326 5.00001 13.5 5.00001H11.7071L9.72311 6.98405C9.89904 7.2818 10 7.62911 10 8C10 9.10457 9.10457 10 8 10C6.89543 10 6 9.10457 6 8C6 6.89543 6.89543 6 8 6C8.37092 6 8.71825 6.10097 9.01602 6.27693L11 4.29291V2.50001C11 2.36741 11.0527 2.24023 11.1465 2.14646L13.1465 0.146461C13.2895 0.00346223 13.5045 -0.0393156 13.6914 0.0380748ZM12 4.00001H13.2929L14.2929 3.00001H13.5C13.2239 3.00001 13 2.77616 13 2.50001V1.70712L12 2.70712V4.00001ZM8 9C8.55228 9 9 8.55228 9 8C9 7.44772 8.55228 7 8 7C7.44772 7 7 7.44772 7 8C7 8.55228 7.44772 9 8 9Z" fill="#6C707E"/>
<path d="M10.0081 2.3443C9.38028 2.12136 8.70432 2 8 2C4.68629 2 2 4.68629 2 8C2 11.2736 4.62161 13.9348 7.87986 13.9988L7.43934 14.4393C7.29074 14.5879 7.17984 14.76 7.10663 14.9435C3.6625 14.5048 1 11.5633 1 8C1 4.13401 4.13401 1 8 1C8.85864 1 9.68118 1.1546 10.4413 1.43748L10.4394 1.43938C10.195 1.68373 10.0437 2.00371 10.0081 2.3443Z" fill="#6C707E"/>
<path d="M15 8C15 8.69497 14.8987 9.36629 14.7101 10H13.6586C13.8797 9.37444 14 8.70127 14 8C14 7.29572 13.8787 6.61978 13.6557 5.99195C13.9963 5.95641 14.3163 5.80507 14.5607 5.5607L14.5626 5.55883C14.8454 6.31891 15 7.1414 15 8Z" fill="#6C707E"/>
</svg>
