<svg width="16" height="16" viewBox="0 0 16 16" fill="none" xmlns="http://www.w3.org/2000/svg">
<path d="M12 10H13V15H12V10Z" fill="#EDF3FF"/>
<path d="M10 11H11V15H10V11Z" fill="#EDF3FF"/>
<path d="M15 12H14V15H15V12Z" fill="#EDF3FF"/>
<path fill-rule="evenodd" clip-rule="evenodd" d="M11 10C11 9.44772 11.4477 9 12 9H13C13.5523 9 14 9.44772 14 10V11H15C15.5523 11 16 11.4477 16 12V15C16 15.5523 15.5523 16 15 16H10C9.44772 16 9 15.5523 9 15V11C9 10.4477 9.44772 10 10 10L11 10ZM12 10H13V15H12V10ZM11 11H10L10 15H11V11ZM14 15H15V12H14V15Z" fill="#3574F0"/>
<path fill-rule="evenodd" clip-rule="evenodd" d="M13.6914 0.0380748C13.8782 0.115465 14 0.297783 14 0.500015V2.00001H15.5C15.7023 2.00001 15.8846 2.12184 15.962 2.30867C16.0394 2.49551 15.9966 2.71057 15.8536 2.85357L13.8536 4.85357C13.7598 4.94734 13.6326 5.00001 13.5 5.00001H11.7071L9.72311 6.98405C9.89904 7.2818 10 7.62911 10 8C10 9.10457 9.10457 10 8 10C6.89543 10 6 9.10457 6 8C6 6.89543 6.89543 6 8 6C8.37092 6 8.71825 6.10097 9.01602 6.27693L11 4.29291V2.50001C11 2.36741 11.0527 2.24023 11.1465 2.14646L13.1465 0.146461C13.2895 0.00346223 13.5045 -0.0393156 13.6914 0.0380748ZM12 4.00001H13.2929L14.2929 3.00001H13.5C13.2239 3.00001 13 2.77616 13 2.50001V1.70712L12 2.70712V4.00001ZM8 9C8.55228 9 9 8.55228 9 8C9 7.44772 8.55228 7 8 7C7.44772 7 7 7.44772 7 8C7 8.55228 7.44772 9 8 9Z" fill="#6C707E"/>
<path d="M10.0081 2.3443C9.38028 2.12136 8.70432 2 8 2C4.68629 2 2 4.68629 2 8C2 11.3137 4.68629 14 8 14V15C4.13401 15 1 11.866 1 8C1 4.13401 4.13401 1 8 1C8.85864 1 9.68118 1.1546 10.4413 1.43748L10.4394 1.43938C10.195 1.68373 10.0437 2.00371 10.0081 2.3443Z" fill="#6C707E"/>
<path d="M13.9943 8.26427C14.3989 8.49656 14.7146 8.86626 14.8777 9.30972C14.958 8.88544 15 8.44763 15 8C15 7.1414 14.8454 6.31891 14.5626 5.55883L14.5607 5.5607C14.3163 5.80507 13.9963 5.95641 13.6557 5.99195C13.8787 6.61978 14 7.29572 14 8C14 8.08855 13.9981 8.17666 13.9943 8.26427Z" fill="#6C707E"/>
</svg>
