<svg width="16" height="16" viewBox="0 0 16 16" fill="none" xmlns="http://www.w3.org/2000/svg">
<path fill-rule="evenodd" clip-rule="evenodd" d="M14 0.500015C14 0.297783 13.8782 0.115465 13.6914 0.0380748C13.5045 -0.0393156 13.2895 0.00346223 13.1465 0.146461L11.1465 2.14646C11.0527 2.24023 11 2.36741 11 2.50001V4.29291L9.01602 6.27693C8.71825 6.10097 8.37092 6 8 6C6.89543 6 6 6.89543 6 8C6 9.10457 6.89543 10 8 10C9.10457 10 10 9.10457 10 8C10 7.62911 9.89904 7.2818 9.72311 6.98405L11.7071 5.00001H13.5C13.6326 5.00001 13.7598 4.94734 13.8536 4.85357L15.8536 2.85357C15.9966 2.71057 16.0394 2.49551 15.962 2.30867C15.8846 2.12184 15.7023 2.00001 15.5 2.00001H14V0.500015ZM13.2929 4.00001H12V2.70712L13 1.70712V2.50001C13 2.77616 13.2239 3.00001 13.5 3.00001H14.2929L13.2929 4.00001ZM9 8C9 8.55228 8.55228 9 8 9C7.44772 9 7 8.55228 7 8C7 7.44772 7.44772 7 8 7C8.55228 7 9 7.44772 9 8Z" fill="#6C707E"/>
<path d="M10.0081 2.3443C9.38028 2.12136 8.70432 2 8 2C4.68629 2 2 4.68629 2 8C2 11.3137 4.68629 14 8 14C11.3137 14 14 11.3137 14 8C14 7.29572 13.8787 6.61978 13.6557 5.99195C13.9963 5.95641 14.3163 5.80507 14.5607 5.5607L14.5626 5.55883C14.8454 6.31891 15 7.1414 15 8C15 11.866 11.866 15 8 15C4.13401 15 1 11.866 1 8C1 4.13401 4.13401 1 8 1C8.85864 1 9.68118 1.1546 10.4413 1.43748L10.4394 1.43938C10.195 1.68373 10.0437 2.00371 10.0081 2.3443Z" fill="#6C707E"/>
</svg>
