<svg width="16" height="16" viewBox="0 0 16 16" fill="none" xmlns="http://www.w3.org/2000/svg">
<path fill-rule="evenodd" clip-rule="evenodd" d="M14 0.500015C14 0.297783 13.8782 0.115465 13.6914 0.0380748C13.5045 -0.0393156 13.2895 0.00346223 13.1465 0.146461L11.1465 2.14646C11.0527 2.24023 11 2.36741 11 2.50001V4.29291L9.01602 6.27693C8.71825 6.10097 8.37092 6 8 6C6.89543 6 6 6.89543 6 8C6 9.10457 6.89543 10 8 10C9.10457 10 10 9.10457 10 8C10 7.62911 9.89904 7.2818 9.72311 6.98405L11.7071 5.00001H13.5C13.6326 5.00001 13.7598 4.94734 13.8536 4.85357L15.8536 2.85357C15.9966 2.71057 16.0394 2.49551 15.962 2.30867C15.8846 2.12184 15.7023 2.00001 15.5 2.00001H14V0.500015ZM13.2929 4.00001H12V2.70712L13 1.70712V2.50001C13 2.77616 13.2239 3.00001 13.5 3.00001H14.2929L13.2929 4.00001ZM9 8C9 8.55228 8.55228 9 8 9C7.44772 9 7 8.55228 7 8C7 7.44772 7.44772 7 8 7C8.55228 7 9 7.44772 9 8Z" fill="#CED0D6"/>
<path d="M11.7071 9C11.4419 9 11.1875 9.10536 11 9.29289L8.64645 11.6464C8.55268 11.7402 8.5 11.8674 8.5 12C8.5 12.1326 8.55268 12.2598 8.64645 12.3536L9.64645 13.3536C9.84171 13.5488 10.1583 13.5488 10.3536 13.3536L11.5 12.2071L15.1464 15.8536C15.3417 16.0488 15.6583 16.0488 15.8536 15.8536C16.0488 15.6583 16.0488 15.3417 15.8536 15.1464L12.2071 11.5L13.8536 9.85355C13.9966 9.71055 14.0393 9.4955 13.9619 9.30866C13.8845 9.12182 13.7022 9 13.5 9H11.7071Z" fill="#57965C"/>
<path d="M8 2C8.70432 2 9.38028 2.12136 10.0081 2.3443C10.0437 2.00371 10.195 1.68373 10.4394 1.43938L10.4413 1.43748C9.68118 1.1546 8.85864 1 8 1C4.13401 1 1 4.13401 1 8C1 11.866 4.13401 15 8 15C8.5779 15 9.13945 14.93 9.67661 14.7979L8.82274 13.9441C8.55376 13.9809 8.27911 14 8 14C4.68629 14 2 11.3137 2 8C2 4.68629 4.68629 2 8 2Z" fill="#CED0D6"/>
<path d="M14.9247 9.03056C14.9131 8.99542 14.9001 8.96054 14.8858 8.92597C14.72 8.52559 14.3935 8.22474 13.9994 8.08551C13.9998 8.05706 14 8.02855 14 8C14 7.29572 13.8787 6.61978 13.6557 5.99195C13.9963 5.95641 14.3163 5.80507 14.5607 5.5607L14.5626 5.55883C14.8454 6.31891 15 7.1414 15 8C15 8.35012 14.9743 8.69423 14.9247 9.03056Z" fill="#CED0D6"/>
</svg>
