<svg width="16" height="16" viewBox="0 0 16 16" fill="none" xmlns="http://www.w3.org/2000/svg">
<path fill-rule="evenodd" clip-rule="evenodd" d="M7.62255 13.2883C7.45909 13.1309 7.45916 12.8692 7.62271 12.7119L10.3216 10.1163C10.5757 9.87185 10.9989 10.0519 10.9989 10.4045V15.5986C10.9989 15.9514 10.5755 16.1314 10.3214 15.8868L7.62255 13.2883Z" fill="#DB5C5C"/>
<path fill-rule="evenodd" clip-rule="evenodd" d="M15.3798 12.7117C15.5435 12.8691 15.5436 13.131 15.3799 13.2884L12.6774 15.8876C12.4232 16.132 12 15.9519 12 15.5993L12 10.4038C12 10.0513 12.423 9.87118 12.6772 10.1154L15.3798 12.7117Z" fill="#57965C"/>
<path fill-rule="evenodd" clip-rule="evenodd" d="M13.6914 0.0380748C13.8782 0.115465 14 0.297783 14 0.500015V2.00001H15.5C15.7023 2.00001 15.8846 2.12184 15.962 2.30867C16.0394 2.49551 15.9966 2.71057 15.8536 2.85357L13.8536 4.85357C13.7598 4.94734 13.6326 5.00001 13.5 5.00001H11.7071L9.72311 6.98405C9.89904 7.2818 10 7.62911 10 8C10 9.10457 9.10457 10 8 10C6.89543 10 6 9.10457 6 8C6 6.89543 6.89543 6 8 6C8.37092 6 8.71825 6.10097 9.01602 6.27693L11 4.29291V2.50001C11 2.36741 11.0527 2.24023 11.1465 2.14646L13.1465 0.146461C13.2895 0.00346223 13.5045 -0.0393156 13.6914 0.0380748ZM12 4.00001H13.2929L14.2929 3.00001H13.5C13.2239 3.00001 13 2.77616 13 2.50001V1.70712L12 2.70712V4.00001ZM8 9C8.55228 9 9 8.55228 9 8C9 7.44772 8.55228 7 8 7C7.44772 7 7 7.44772 7 8C7 8.55228 7.44772 9 8 9Z" fill="#CED0D6"/>
<path d="M10.0081 2.3443C9.38028 2.12136 8.70432 2 8 2C4.68629 2 2 4.68629 2 8C2 10.9073 4.0678 13.3317 6.81293 13.8826C6.84857 13.9264 6.88725 13.9685 6.92897 14.0086L7.9585 14.9999C4.1116 14.9775 1 11.8521 1 8C1 4.13401 4.13401 1 8 1C8.85864 1 9.68118 1.1546 10.4413 1.43748L10.4394 1.43938C10.195 1.68373 10.0437 2.00371 10.0081 2.3443Z" fill="#CED0D6"/>
<path d="M14.5351 10.5136L13.7407 9.75036C13.9093 9.19661 14 8.6089 14 8C14 7.29572 13.8787 6.61978 13.6557 5.99195C13.9963 5.95641 14.3163 5.80507 14.5607 5.5607L14.5626 5.55883C14.8454 6.31891 15 7.1414 15 8C15 8.88595 14.8354 9.73345 14.5351 10.5136Z" fill="#CED0D6"/>
</svg>
