<svg width="16" height="16" viewBox="0 0 16 16" fill="none" xmlns="http://www.w3.org/2000/svg">
<path fill-rule="evenodd" clip-rule="evenodd" d="M10.8536 10.1464C11.0488 10.3417 11.0488 10.6583 10.8536 10.8536L8.70711 13L10.8536 15.1464C11.0488 15.3417 11.0488 15.6583 10.8536 15.8536C10.6583 16.0488 10.3417 16.0488 10.1464 15.8536L7.64645 13.3536C7.45118 13.1583 7.45118 12.8417 7.64645 12.6464L10.1464 10.1464C10.3417 9.95118 10.6583 9.95118 10.8536 10.1464ZM12.1464 10.1464C12.3417 9.95118 12.6583 9.95118 12.8536 10.1464L15.3536 12.6464C15.5488 12.8417 15.5488 13.1583 15.3536 13.3536L12.8536 15.8536C12.6583 16.0488 12.3417 16.0488 12.1464 15.8536C11.9512 15.6583 11.9512 15.3417 12.1464 15.1464L14.2929 13L12.1464 10.8536C11.9512 10.6583 11.9512 10.3417 12.1464 10.1464Z" fill="#548AF7"/>
<path fill-rule="evenodd" clip-rule="evenodd" d="M14 0.500015C14 0.297783 13.8782 0.115465 13.6914 0.0380748C13.5045 -0.0393156 13.2895 0.00346223 13.1465 0.146461L11.1465 2.14646C11.0527 2.24023 11 2.36741 11 2.50001V4.29291L9.01602 6.27693C8.71825 6.10097 8.37092 6 8 6C6.89543 6 6 6.89543 6 8C6 9.10457 6.89543 10 8 10C9.10457 10 10 9.10457 10 8C10 7.62911 9.89904 7.2818 9.72311 6.98405L11.7071 5.00001H13.5C13.6326 5.00001 13.7598 4.94734 13.8536 4.85357L15.8536 2.85357C15.9966 2.71057 16.0394 2.49551 15.962 2.30867C15.8846 2.12184 15.7023 2.00001 15.5 2.00001H14V0.500015ZM13.2929 4.00001H12V2.70712L13 1.70712V2.50001C13 2.77616 13.2239 3.00001 13.5 3.00001H14.2929L13.2929 4.00001ZM9 8C9 8.55228 8.55228 9 8 9C7.44772 9 7 8.55228 7 8C7 7.44772 7.44772 7 8 7C8.55228 7 9 7.44772 9 8Z" fill="#CED0D6"/>
<path d="M10.0081 2.3443C9.38028 2.12136 8.70432 2 8 2C4.68629 2 2 4.68629 2 8C2 10.8965 4.05246 13.3136 6.78236 13.8764C6.82892 13.9409 6.88125 14.0026 6.93934 14.0607L7.87763 14.999C4.06809 14.9337 1 11.8251 1 8C1 4.13401 4.13401 1 8 1C8.85864 1 9.68118 1.1546 10.4413 1.43748L10.4394 1.43938C10.195 1.68373 10.0437 2.00371 10.0081 2.3443Z" fill="#CED0D6"/>
<path d="M14.5625 10.4412C14.8454 9.68113 15 8.85862 15 8C15 7.1414 14.8454 6.31891 14.5626 5.55883L14.5607 5.5607C14.3163 5.80507 13.9963 5.95641 13.6557 5.99195C13.8787 6.61978 14 7.29572 14 8C14 8.57195 13.92 9.12521 13.7705 9.64919L14.5625 10.4412Z" fill="#CED0D6"/>
</svg>
